G75*
%MOIN*%
%OFA0B0*%
%FSLAX25Y25*%
%IPPOS*%
%LPD*%
%AMOC8*
5,1,8,0,0,1.08239X$1,22.5*
%
%ADD10C,0.00000*%
%ADD11R,0.10000X0.04000*%
%ADD12R,0.04000X0.10000*%
%ADD13R,0.05000X0.02200*%
%ADD14R,0.02200X0.05000*%
%ADD15R,0.05906X0.01969*%
%ADD16R,0.01969X0.05906*%
%ADD17R,0.02200X0.04700*%
%ADD18R,0.04700X0.02200*%
%ADD19C,0.00591*%
%ADD20R,0.12598X0.12598*%
%ADD21R,0.02362X0.08661*%
%ADD22R,0.03543X0.02362*%
%ADD23R,0.08000X0.08000*%
%ADD24C,0.08000*%
%ADD25C,0.00600*%
%ADD26R,0.03562X0.03562*%
%ADD27C,0.01600*%
D10*
X0001000Y0001000D02*
X0001000Y0197850D01*
X0197850Y0197850D01*
X0197850Y0001000D01*
X0001000Y0001000D01*
D11*
X0011000Y0021000D03*
X0011000Y0026000D03*
X0011000Y0031000D03*
X0011000Y0036000D03*
X0011000Y0041000D03*
X0011000Y0046000D03*
X0011000Y0051000D03*
X0011000Y0056000D03*
X0009750Y0103500D03*
X0009750Y0108500D03*
X0009750Y0113500D03*
X0009750Y0118500D03*
X0009750Y0123500D03*
X0009750Y0128500D03*
X0009750Y0133500D03*
X0009750Y0138500D03*
X0009750Y0143500D03*
X0009750Y0148500D03*
X0009750Y0153500D03*
X0009750Y0158500D03*
X0009750Y0163500D03*
X0009750Y0168500D03*
X0009750Y0173500D03*
X0009750Y0178500D03*
X0102250Y0178500D03*
X0102250Y0173500D03*
X0102250Y0168500D03*
X0102250Y0163500D03*
X0102250Y0158500D03*
X0102250Y0153500D03*
X0102250Y0148500D03*
X0102250Y0143500D03*
X0102250Y0138500D03*
X0102250Y0133500D03*
X0102250Y0128500D03*
X0102250Y0123500D03*
X0102250Y0118500D03*
X0102250Y0113500D03*
X0102250Y0108500D03*
X0102250Y0103500D03*
X0118500Y0128500D03*
X0118500Y0133500D03*
X0118500Y0138500D03*
X0118500Y0143500D03*
X0118500Y0148500D03*
X0118500Y0153500D03*
X0118500Y0158500D03*
X0118500Y0163500D03*
X0118500Y0168500D03*
X0118500Y0173500D03*
X0118500Y0178500D03*
X0188500Y0178500D03*
X0188500Y0173500D03*
X0188500Y0168500D03*
X0188500Y0163500D03*
X0188500Y0158500D03*
X0188500Y0153500D03*
X0188500Y0148500D03*
X0188500Y0143500D03*
X0188500Y0138500D03*
X0188500Y0133500D03*
X0188500Y0128500D03*
X0188500Y0056000D03*
X0188500Y0051000D03*
X0188500Y0046000D03*
X0188500Y0041000D03*
X0188500Y0036000D03*
X0188500Y0031000D03*
X0188500Y0026000D03*
X0188500Y0021000D03*
X0148500Y0021000D03*
X0148500Y0026000D03*
X0148500Y0031000D03*
X0148500Y0036000D03*
X0148500Y0041000D03*
X0148500Y0046000D03*
X0148500Y0051000D03*
X0148500Y0056000D03*
X0134750Y0056000D03*
X0134750Y0051000D03*
X0134750Y0046000D03*
X0134750Y0041000D03*
X0134750Y0036000D03*
X0134750Y0031000D03*
X0134750Y0026000D03*
X0134750Y0021000D03*
X0079750Y0021000D03*
X0079750Y0026000D03*
X0079750Y0031000D03*
X0079750Y0036000D03*
X0079750Y0041000D03*
X0079750Y0046000D03*
X0079750Y0051000D03*
X0079750Y0056000D03*
X0066000Y0056000D03*
X0066000Y0051000D03*
X0066000Y0046000D03*
X0066000Y0041000D03*
X0066000Y0036000D03*
X0066000Y0031000D03*
X0066000Y0026000D03*
X0066000Y0021000D03*
D12*
X0056000Y0011000D03*
X0051000Y0011000D03*
X0046000Y0011000D03*
X0041000Y0011000D03*
X0036000Y0011000D03*
X0031000Y0011000D03*
X0026000Y0011000D03*
X0021000Y0011000D03*
X0021000Y0066000D03*
X0026000Y0066000D03*
X0031000Y0066000D03*
X0036000Y0066000D03*
X0041000Y0066000D03*
X0046000Y0066000D03*
X0051000Y0066000D03*
X0056000Y0066000D03*
X0053500Y0093500D03*
X0048500Y0093500D03*
X0043500Y0093500D03*
X0038500Y0093500D03*
X0033500Y0093500D03*
X0028500Y0093500D03*
X0023500Y0093500D03*
X0018500Y0093500D03*
X0058500Y0093500D03*
X0063500Y0093500D03*
X0068500Y0093500D03*
X0073500Y0093500D03*
X0078500Y0093500D03*
X0083500Y0093500D03*
X0088500Y0093500D03*
X0093500Y0093500D03*
X0094750Y0066000D03*
X0089750Y0066000D03*
X0099750Y0066000D03*
X0104750Y0066000D03*
X0109750Y0066000D03*
X0114750Y0066000D03*
X0119750Y0066000D03*
X0124750Y0066000D03*
X0151000Y0066000D03*
X0156000Y0066000D03*
X0161000Y0066000D03*
X0166000Y0066000D03*
X0171000Y0066000D03*
X0176000Y0066000D03*
X0181000Y0066000D03*
X0186000Y0066000D03*
X0178500Y0118500D03*
X0173500Y0118500D03*
X0168500Y0118500D03*
X0163500Y0118500D03*
X0158500Y0118500D03*
X0153500Y0118500D03*
X0148500Y0118500D03*
X0143500Y0118500D03*
X0138500Y0118500D03*
X0133500Y0118500D03*
X0128500Y0118500D03*
X0128500Y0188500D03*
X0133500Y0188500D03*
X0138500Y0188500D03*
X0143500Y0188500D03*
X0148500Y0188500D03*
X0153500Y0188500D03*
X0158500Y0188500D03*
X0163500Y0188500D03*
X0168500Y0188500D03*
X0173500Y0188500D03*
X0178500Y0188500D03*
X0093500Y0188500D03*
X0088500Y0188500D03*
X0083500Y0188500D03*
X0078500Y0188500D03*
X0073500Y0188500D03*
X0068500Y0188500D03*
X0063500Y0188500D03*
X0058500Y0188500D03*
X0053500Y0188500D03*
X0048500Y0188500D03*
X0043500Y0188500D03*
X0038500Y0188500D03*
X0033500Y0188500D03*
X0028500Y0188500D03*
X0023500Y0188500D03*
X0018500Y0188500D03*
X0089750Y0011000D03*
X0094750Y0011000D03*
X0099750Y0011000D03*
X0104750Y0011000D03*
X0109750Y0011000D03*
X0114750Y0011000D03*
X0119750Y0011000D03*
X0124750Y0011000D03*
X0151000Y0011000D03*
X0156000Y0011000D03*
X0161000Y0011000D03*
X0166000Y0011000D03*
X0171000Y0011000D03*
X0176000Y0011000D03*
X0181000Y0011000D03*
X0186000Y0011000D03*
D13*
X0124150Y0027476D03*
X0124150Y0030626D03*
X0124150Y0033776D03*
X0124150Y0036925D03*
X0124150Y0040075D03*
X0124150Y0043224D03*
X0124150Y0046374D03*
X0124150Y0049524D03*
X0090350Y0049524D03*
X0090350Y0046374D03*
X0090350Y0043224D03*
X0090350Y0040075D03*
X0090350Y0036925D03*
X0090350Y0033776D03*
X0090350Y0030626D03*
X0090350Y0027476D03*
X0055400Y0027476D03*
X0055400Y0030626D03*
X0055400Y0033776D03*
X0055400Y0036925D03*
X0055400Y0040075D03*
X0055400Y0043224D03*
X0055400Y0046374D03*
X0055400Y0049524D03*
X0021600Y0049524D03*
X0021600Y0046374D03*
X0021600Y0043224D03*
X0021600Y0040075D03*
X0021600Y0036925D03*
X0021600Y0033776D03*
X0021600Y0030626D03*
X0021600Y0027476D03*
D14*
X0027476Y0021600D03*
X0030626Y0021600D03*
X0033776Y0021600D03*
X0036925Y0021600D03*
X0040075Y0021600D03*
X0043224Y0021600D03*
X0046374Y0021600D03*
X0049524Y0021600D03*
X0049524Y0055400D03*
X0046374Y0055400D03*
X0043224Y0055400D03*
X0040075Y0055400D03*
X0036925Y0055400D03*
X0033776Y0055400D03*
X0030626Y0055400D03*
X0027476Y0055400D03*
X0096226Y0055400D03*
X0099376Y0055400D03*
X0102526Y0055400D03*
X0105675Y0055400D03*
X0108825Y0055400D03*
X0111974Y0055400D03*
X0115124Y0055400D03*
X0118274Y0055400D03*
X0118274Y0021600D03*
X0115124Y0021600D03*
X0111974Y0021600D03*
X0108825Y0021600D03*
X0105675Y0021600D03*
X0102526Y0021600D03*
X0099376Y0021600D03*
X0096226Y0021600D03*
D15*
X0130665Y0137752D03*
X0130665Y0140902D03*
X0130665Y0144051D03*
X0130665Y0147201D03*
X0130665Y0150350D03*
X0130665Y0153500D03*
X0130665Y0156650D03*
X0130665Y0159799D03*
X0130665Y0162949D03*
X0130665Y0166098D03*
X0130665Y0169248D03*
X0176335Y0169248D03*
X0176335Y0166098D03*
X0176335Y0162949D03*
X0176335Y0159799D03*
X0176335Y0156650D03*
X0176335Y0153500D03*
X0176335Y0150350D03*
X0176335Y0147201D03*
X0176335Y0144051D03*
X0176335Y0140902D03*
X0176335Y0137752D03*
D16*
X0169248Y0130665D03*
X0166098Y0130665D03*
X0162949Y0130665D03*
X0159799Y0130665D03*
X0156650Y0130665D03*
X0153500Y0130665D03*
X0150350Y0130665D03*
X0147201Y0130665D03*
X0144051Y0130665D03*
X0140902Y0130665D03*
X0137752Y0130665D03*
X0137752Y0176335D03*
X0140902Y0176335D03*
X0144051Y0176335D03*
X0147201Y0176335D03*
X0150350Y0176335D03*
X0153500Y0176335D03*
X0156650Y0176335D03*
X0159799Y0176335D03*
X0162949Y0176335D03*
X0166098Y0176335D03*
X0169248Y0176335D03*
D17*
X0079622Y0171709D03*
X0076472Y0171709D03*
X0073323Y0171709D03*
X0070173Y0171709D03*
X0067024Y0171709D03*
X0063874Y0171709D03*
X0060724Y0171709D03*
X0057575Y0171709D03*
X0054425Y0171709D03*
X0051276Y0171709D03*
X0048126Y0171709D03*
X0044976Y0171709D03*
X0041827Y0171709D03*
X0038677Y0171709D03*
X0035528Y0171709D03*
X0032378Y0171709D03*
X0032378Y0110291D03*
X0035528Y0110291D03*
X0038677Y0110291D03*
X0041827Y0110291D03*
X0044976Y0110291D03*
X0048126Y0110291D03*
X0051276Y0110291D03*
X0054425Y0110291D03*
X0057575Y0110291D03*
X0060724Y0110291D03*
X0063874Y0110291D03*
X0067024Y0110291D03*
X0070173Y0110291D03*
X0073323Y0110291D03*
X0076472Y0110291D03*
X0079622Y0110291D03*
D18*
X0086709Y0117378D03*
X0086709Y0120528D03*
X0086709Y0123677D03*
X0086709Y0126827D03*
X0086709Y0129976D03*
X0086709Y0133126D03*
X0086709Y0136276D03*
X0086709Y0139425D03*
X0086709Y0142575D03*
X0086709Y0145724D03*
X0086709Y0148874D03*
X0086709Y0152024D03*
X0086709Y0155173D03*
X0086709Y0158323D03*
X0086709Y0161472D03*
X0086709Y0164622D03*
X0025291Y0164622D03*
X0025291Y0161472D03*
X0025291Y0158323D03*
X0025291Y0155173D03*
X0025291Y0152024D03*
X0025291Y0148874D03*
X0025291Y0145724D03*
X0025291Y0142575D03*
X0025291Y0139425D03*
X0025291Y0136276D03*
X0025291Y0133126D03*
X0025291Y0129976D03*
X0025291Y0126827D03*
X0025291Y0123677D03*
X0025291Y0120528D03*
X0025291Y0117378D03*
D19*
X0158165Y0045095D02*
X0160331Y0045095D01*
X0158165Y0045095D02*
X0158165Y0045685D01*
X0160331Y0045685D01*
X0160331Y0045095D01*
X0160331Y0045685D02*
X0158165Y0045685D01*
X0158165Y0043126D02*
X0160331Y0043126D01*
X0158165Y0043126D02*
X0158165Y0043716D01*
X0160331Y0043716D01*
X0160331Y0043126D01*
X0160331Y0043716D02*
X0158165Y0043716D01*
X0158165Y0041158D02*
X0160331Y0041158D01*
X0158165Y0041158D02*
X0158165Y0041748D01*
X0160331Y0041748D01*
X0160331Y0041158D01*
X0160331Y0041748D02*
X0158165Y0041748D01*
X0158165Y0039189D02*
X0160331Y0039189D01*
X0158165Y0039189D02*
X0158165Y0039779D01*
X0160331Y0039779D01*
X0160331Y0039189D01*
X0160331Y0039779D02*
X0158165Y0039779D01*
X0158165Y0037221D02*
X0160331Y0037221D01*
X0158165Y0037221D02*
X0158165Y0037811D01*
X0160331Y0037811D01*
X0160331Y0037221D01*
X0160331Y0037811D02*
X0158165Y0037811D01*
X0158165Y0035252D02*
X0160331Y0035252D01*
X0158165Y0035252D02*
X0158165Y0035842D01*
X0160331Y0035842D01*
X0160331Y0035252D01*
X0160331Y0035842D02*
X0158165Y0035842D01*
X0158165Y0033284D02*
X0160331Y0033284D01*
X0158165Y0033284D02*
X0158165Y0033874D01*
X0160331Y0033874D01*
X0160331Y0033284D01*
X0160331Y0033874D02*
X0158165Y0033874D01*
X0158165Y0031315D02*
X0160331Y0031315D01*
X0158165Y0031315D02*
X0158165Y0031905D01*
X0160331Y0031905D01*
X0160331Y0031315D01*
X0160331Y0031905D02*
X0158165Y0031905D01*
X0161315Y0028165D02*
X0161905Y0028165D01*
X0161315Y0028165D02*
X0161315Y0030331D01*
X0161905Y0030331D01*
X0161905Y0028165D01*
X0161905Y0028755D02*
X0161315Y0028755D01*
X0161315Y0029345D02*
X0161905Y0029345D01*
X0161905Y0029935D02*
X0161315Y0029935D01*
X0163284Y0028165D02*
X0163874Y0028165D01*
X0163284Y0028165D02*
X0163284Y0030331D01*
X0163874Y0030331D01*
X0163874Y0028165D01*
X0163874Y0028755D02*
X0163284Y0028755D01*
X0163284Y0029345D02*
X0163874Y0029345D01*
X0163874Y0029935D02*
X0163284Y0029935D01*
X0165252Y0028165D02*
X0165842Y0028165D01*
X0165252Y0028165D02*
X0165252Y0030331D01*
X0165842Y0030331D01*
X0165842Y0028165D01*
X0165842Y0028755D02*
X0165252Y0028755D01*
X0165252Y0029345D02*
X0165842Y0029345D01*
X0165842Y0029935D02*
X0165252Y0029935D01*
X0167221Y0028165D02*
X0167811Y0028165D01*
X0167221Y0028165D02*
X0167221Y0030331D01*
X0167811Y0030331D01*
X0167811Y0028165D01*
X0167811Y0028755D02*
X0167221Y0028755D01*
X0167221Y0029345D02*
X0167811Y0029345D01*
X0167811Y0029935D02*
X0167221Y0029935D01*
X0169189Y0028165D02*
X0169779Y0028165D01*
X0169189Y0028165D02*
X0169189Y0030331D01*
X0169779Y0030331D01*
X0169779Y0028165D01*
X0169779Y0028755D02*
X0169189Y0028755D01*
X0169189Y0029345D02*
X0169779Y0029345D01*
X0169779Y0029935D02*
X0169189Y0029935D01*
X0171158Y0028165D02*
X0171748Y0028165D01*
X0171158Y0028165D02*
X0171158Y0030331D01*
X0171748Y0030331D01*
X0171748Y0028165D01*
X0171748Y0028755D02*
X0171158Y0028755D01*
X0171158Y0029345D02*
X0171748Y0029345D01*
X0171748Y0029935D02*
X0171158Y0029935D01*
X0173126Y0028165D02*
X0173716Y0028165D01*
X0173126Y0028165D02*
X0173126Y0030331D01*
X0173716Y0030331D01*
X0173716Y0028165D01*
X0173716Y0028755D02*
X0173126Y0028755D01*
X0173126Y0029345D02*
X0173716Y0029345D01*
X0173716Y0029935D02*
X0173126Y0029935D01*
X0175095Y0028165D02*
X0175685Y0028165D01*
X0175095Y0028165D02*
X0175095Y0030331D01*
X0175685Y0030331D01*
X0175685Y0028165D01*
X0175685Y0028755D02*
X0175095Y0028755D01*
X0175095Y0029345D02*
X0175685Y0029345D01*
X0175685Y0029935D02*
X0175095Y0029935D01*
X0176669Y0031315D02*
X0178835Y0031315D01*
X0176669Y0031315D02*
X0176669Y0031905D01*
X0178835Y0031905D01*
X0178835Y0031315D01*
X0178835Y0031905D02*
X0176669Y0031905D01*
X0176669Y0033284D02*
X0178835Y0033284D01*
X0176669Y0033284D02*
X0176669Y0033874D01*
X0178835Y0033874D01*
X0178835Y0033284D01*
X0178835Y0033874D02*
X0176669Y0033874D01*
X0176669Y0035252D02*
X0178835Y0035252D01*
X0176669Y0035252D02*
X0176669Y0035842D01*
X0178835Y0035842D01*
X0178835Y0035252D01*
X0178835Y0035842D02*
X0176669Y0035842D01*
X0176669Y0037221D02*
X0178835Y0037221D01*
X0176669Y0037221D02*
X0176669Y0037811D01*
X0178835Y0037811D01*
X0178835Y0037221D01*
X0178835Y0037811D02*
X0176669Y0037811D01*
X0176669Y0039189D02*
X0178835Y0039189D01*
X0176669Y0039189D02*
X0176669Y0039779D01*
X0178835Y0039779D01*
X0178835Y0039189D01*
X0178835Y0039779D02*
X0176669Y0039779D01*
X0176669Y0041158D02*
X0178835Y0041158D01*
X0176669Y0041158D02*
X0176669Y0041748D01*
X0178835Y0041748D01*
X0178835Y0041158D01*
X0178835Y0041748D02*
X0176669Y0041748D01*
X0176669Y0043126D02*
X0178835Y0043126D01*
X0176669Y0043126D02*
X0176669Y0043716D01*
X0178835Y0043716D01*
X0178835Y0043126D01*
X0178835Y0043716D02*
X0176669Y0043716D01*
X0176669Y0045095D02*
X0178835Y0045095D01*
X0176669Y0045095D02*
X0176669Y0045685D01*
X0178835Y0045685D01*
X0178835Y0045095D01*
X0178835Y0045685D02*
X0176669Y0045685D01*
X0175685Y0046669D02*
X0175095Y0046669D01*
X0175095Y0048835D01*
X0175685Y0048835D01*
X0175685Y0046669D01*
X0175685Y0047259D02*
X0175095Y0047259D01*
X0175095Y0047849D02*
X0175685Y0047849D01*
X0175685Y0048439D02*
X0175095Y0048439D01*
X0173716Y0046669D02*
X0173126Y0046669D01*
X0173126Y0048835D01*
X0173716Y0048835D01*
X0173716Y0046669D01*
X0173716Y0047259D02*
X0173126Y0047259D01*
X0173126Y0047849D02*
X0173716Y0047849D01*
X0173716Y0048439D02*
X0173126Y0048439D01*
X0171748Y0046669D02*
X0171158Y0046669D01*
X0171158Y0048835D01*
X0171748Y0048835D01*
X0171748Y0046669D01*
X0171748Y0047259D02*
X0171158Y0047259D01*
X0171158Y0047849D02*
X0171748Y0047849D01*
X0171748Y0048439D02*
X0171158Y0048439D01*
X0169779Y0046669D02*
X0169189Y0046669D01*
X0169189Y0048835D01*
X0169779Y0048835D01*
X0169779Y0046669D01*
X0169779Y0047259D02*
X0169189Y0047259D01*
X0169189Y0047849D02*
X0169779Y0047849D01*
X0169779Y0048439D02*
X0169189Y0048439D01*
X0167811Y0046669D02*
X0167221Y0046669D01*
X0167221Y0048835D01*
X0167811Y0048835D01*
X0167811Y0046669D01*
X0167811Y0047259D02*
X0167221Y0047259D01*
X0167221Y0047849D02*
X0167811Y0047849D01*
X0167811Y0048439D02*
X0167221Y0048439D01*
X0165842Y0046669D02*
X0165252Y0046669D01*
X0165252Y0048835D01*
X0165842Y0048835D01*
X0165842Y0046669D01*
X0165842Y0047259D02*
X0165252Y0047259D01*
X0165252Y0047849D02*
X0165842Y0047849D01*
X0165842Y0048439D02*
X0165252Y0048439D01*
X0163874Y0046669D02*
X0163284Y0046669D01*
X0163284Y0048835D01*
X0163874Y0048835D01*
X0163874Y0046669D01*
X0163874Y0047259D02*
X0163284Y0047259D01*
X0163284Y0047849D02*
X0163874Y0047849D01*
X0163874Y0048439D02*
X0163284Y0048439D01*
X0161905Y0046669D02*
X0161315Y0046669D01*
X0161315Y0048835D01*
X0161905Y0048835D01*
X0161905Y0046669D01*
X0161905Y0047259D02*
X0161315Y0047259D01*
X0161315Y0047849D02*
X0161905Y0047849D01*
X0161905Y0048439D02*
X0161315Y0048439D01*
D20*
X0168500Y0038500D03*
D21*
X0169750Y0079264D03*
X0164750Y0079264D03*
X0159750Y0079264D03*
X0154750Y0079264D03*
X0149000Y0079264D03*
X0144000Y0079264D03*
X0139000Y0079264D03*
X0134000Y0079264D03*
X0134000Y0099736D03*
X0139000Y0099736D03*
X0144000Y0099736D03*
X0149000Y0099736D03*
X0154750Y0099736D03*
X0159750Y0099736D03*
X0164750Y0099736D03*
X0169750Y0099736D03*
D22*
X0177250Y0101453D03*
X0177250Y0095547D03*
X0177250Y0083453D03*
X0177250Y0077547D03*
X0126500Y0077547D03*
X0126500Y0083453D03*
X0126500Y0095547D03*
X0126500Y0101453D03*
D23*
X0113500Y0079500D03*
X0190250Y0099500D03*
D24*
X0190250Y0089500D03*
X0190250Y0079500D03*
X0113500Y0089500D03*
X0113500Y0099500D03*
D25*
X0102250Y0103500D02*
X0097250Y0103500D01*
X0087250Y0113500D01*
X0087250Y0117250D01*
X0086709Y0117378D01*
X0087250Y0120375D02*
X0086709Y0120528D01*
X0087250Y0120375D02*
X0088500Y0120375D01*
X0091250Y0117625D01*
X0091250Y0114500D01*
X0097250Y0108500D01*
X0102250Y0108500D01*
X0102250Y0113500D02*
X0097250Y0112500D01*
X0094250Y0115500D01*
X0094250Y0117750D01*
X0088500Y0123500D01*
X0087250Y0123500D01*
X0086709Y0123677D01*
X0087250Y0126625D02*
X0086709Y0126827D01*
X0087250Y0126625D02*
X0089125Y0126625D01*
X0097250Y0118500D01*
X0102250Y0118500D01*
X0102250Y0123500D02*
X0097250Y0123500D01*
X0091000Y0129750D01*
X0087250Y0129750D01*
X0086709Y0129976D01*
X0087250Y0132875D02*
X0086709Y0133126D01*
X0087250Y0132875D02*
X0092875Y0132875D01*
X0097250Y0128500D01*
X0102250Y0128500D01*
X0102250Y0133500D02*
X0097250Y0133500D01*
X0094750Y0136000D01*
X0087250Y0136000D01*
X0086709Y0136276D01*
X0087250Y0139125D02*
X0086709Y0139425D01*
X0087250Y0139125D02*
X0100375Y0139125D01*
X0102250Y0138500D01*
X0100375Y0142875D02*
X0102250Y0143500D01*
X0100375Y0142875D02*
X0087250Y0142875D01*
X0086709Y0142575D01*
X0086709Y0145724D02*
X0087250Y0146000D01*
X0094750Y0146000D01*
X0097250Y0148500D01*
X0102250Y0148500D01*
X0102250Y0153500D02*
X0097250Y0153500D01*
X0092875Y0149125D01*
X0087250Y0149125D01*
X0086709Y0148874D01*
X0086709Y0152024D02*
X0087250Y0152250D01*
X0091000Y0152250D01*
X0097250Y0158500D01*
X0102250Y0158500D01*
X0102250Y0163500D02*
X0097250Y0163500D01*
X0089125Y0155375D01*
X0087250Y0155375D01*
X0086709Y0155173D01*
X0086709Y0158323D02*
X0087250Y0158500D01*
X0088500Y0158500D01*
X0093750Y0163750D01*
X0093750Y0165500D01*
X0097250Y0169000D01*
X0102250Y0168500D01*
X0102250Y0173500D02*
X0097250Y0173500D01*
X0091250Y0167500D01*
X0091250Y0164375D01*
X0088500Y0161625D01*
X0087250Y0161625D01*
X0086709Y0161472D01*
X0086709Y0164622D02*
X0087250Y0164750D01*
X0087250Y0168500D01*
X0097250Y0178500D01*
X0102250Y0178500D01*
X0093500Y0184750D02*
X0093500Y0188500D01*
X0093500Y0184750D02*
X0081000Y0172250D01*
X0079750Y0172250D01*
X0079622Y0171709D01*
X0076625Y0172250D02*
X0076625Y0173500D01*
X0084375Y0181250D01*
X0085500Y0181250D01*
X0089000Y0184750D01*
X0088500Y0188500D01*
X0083500Y0188500D02*
X0083500Y0184750D01*
X0073500Y0174750D01*
X0073500Y0172250D01*
X0073323Y0171709D01*
X0070375Y0172250D02*
X0070173Y0171709D01*
X0070375Y0172250D02*
X0070375Y0176625D01*
X0078500Y0184750D01*
X0078500Y0188500D01*
X0073500Y0188500D02*
X0073500Y0184750D01*
X0067250Y0178500D01*
X0067250Y0172250D01*
X0067024Y0171709D01*
X0064125Y0172250D02*
X0063874Y0171709D01*
X0064125Y0172250D02*
X0064125Y0180375D01*
X0068500Y0184750D01*
X0068500Y0188500D01*
X0063500Y0188500D02*
X0063500Y0184750D01*
X0061000Y0182250D01*
X0061000Y0172250D01*
X0060724Y0171709D01*
X0057875Y0172250D02*
X0057575Y0171709D01*
X0057875Y0172250D02*
X0057875Y0187875D01*
X0058500Y0188500D01*
X0054125Y0187875D02*
X0053500Y0188500D01*
X0054125Y0187875D02*
X0054125Y0172250D01*
X0054425Y0171709D01*
X0051276Y0171709D02*
X0051000Y0172250D01*
X0051000Y0182250D01*
X0048500Y0184750D01*
X0048500Y0188500D01*
X0043500Y0188500D02*
X0043500Y0184750D01*
X0047875Y0180375D01*
X0047875Y0172250D01*
X0048126Y0171709D01*
X0044976Y0171709D02*
X0044750Y0172250D01*
X0044750Y0178500D01*
X0038500Y0184750D01*
X0038500Y0188500D01*
X0033500Y0188500D02*
X0033500Y0184750D01*
X0041625Y0176625D01*
X0041625Y0172250D01*
X0041827Y0171709D01*
X0038677Y0171709D02*
X0038500Y0172250D01*
X0038500Y0174750D01*
X0028500Y0184750D01*
X0028500Y0188500D01*
X0023500Y0188500D02*
X0023000Y0184750D01*
X0027000Y0180750D01*
X0028125Y0180750D01*
X0035375Y0173500D01*
X0035375Y0172250D01*
X0035528Y0171709D01*
X0032378Y0171709D02*
X0032250Y0172250D01*
X0031000Y0172250D01*
X0018500Y0184750D01*
X0018500Y0188500D01*
X0014750Y0178500D02*
X0009750Y0178500D01*
X0009750Y0173500D02*
X0014750Y0173500D01*
X0020750Y0167500D01*
X0020750Y0164375D01*
X0023500Y0161625D01*
X0024750Y0161625D01*
X0025291Y0161472D01*
X0025291Y0164622D02*
X0024750Y0164750D01*
X0024750Y0168500D01*
X0014750Y0178500D01*
X0014750Y0169000D02*
X0009750Y0168500D01*
X0009750Y0163500D02*
X0014750Y0163500D01*
X0022875Y0155375D01*
X0024750Y0155375D01*
X0025291Y0155173D01*
X0025291Y0158323D02*
X0024750Y0158500D01*
X0023500Y0158500D01*
X0018250Y0163750D01*
X0018250Y0165500D01*
X0014750Y0169000D01*
X0014750Y0158500D02*
X0009750Y0158500D01*
X0009750Y0153500D02*
X0014750Y0153500D01*
X0019125Y0149125D01*
X0024750Y0149125D01*
X0025291Y0148874D01*
X0024750Y0146000D02*
X0025291Y0145724D01*
X0024750Y0146000D02*
X0017250Y0146000D01*
X0014750Y0148500D01*
X0009750Y0148500D01*
X0009750Y0143500D02*
X0011625Y0142875D01*
X0024750Y0142875D01*
X0025291Y0142575D01*
X0025291Y0139425D02*
X0024750Y0139125D01*
X0011625Y0139125D01*
X0009750Y0138500D01*
X0009750Y0133500D02*
X0014750Y0133500D01*
X0017250Y0136000D01*
X0024750Y0136000D01*
X0025291Y0136276D01*
X0025291Y0133126D02*
X0024750Y0132875D01*
X0019125Y0132875D01*
X0014750Y0128500D01*
X0009750Y0128500D01*
X0009750Y0123500D02*
X0014750Y0123500D01*
X0021000Y0129750D01*
X0024750Y0129750D01*
X0025291Y0129976D01*
X0025291Y0126827D02*
X0024750Y0126625D01*
X0022875Y0126625D01*
X0014750Y0118500D01*
X0009750Y0118500D01*
X0009750Y0113500D02*
X0014750Y0113000D01*
X0018250Y0116500D01*
X0018250Y0118250D01*
X0023500Y0123500D01*
X0024750Y0123500D01*
X0025291Y0123677D01*
X0025291Y0120528D02*
X0024750Y0120375D01*
X0023500Y0120375D01*
X0020750Y0117625D01*
X0020750Y0114000D01*
X0014750Y0108000D01*
X0009750Y0108500D01*
X0009750Y0103500D02*
X0014750Y0103000D01*
X0024750Y0113000D01*
X0024750Y0117250D01*
X0025291Y0117378D01*
X0031000Y0109750D02*
X0018500Y0097250D01*
X0018500Y0093500D01*
X0023500Y0093500D02*
X0023000Y0097250D01*
X0027000Y0101250D01*
X0028125Y0101250D01*
X0035375Y0108500D01*
X0035375Y0109750D01*
X0035528Y0110291D01*
X0032378Y0110291D02*
X0032250Y0109750D01*
X0031000Y0109750D01*
X0038500Y0109750D02*
X0038500Y0107250D01*
X0028500Y0097250D01*
X0028500Y0093500D01*
X0033500Y0093500D02*
X0033500Y0097250D01*
X0041625Y0105375D01*
X0041625Y0109750D01*
X0041827Y0110291D01*
X0038677Y0110291D02*
X0038500Y0109750D01*
X0044750Y0109750D02*
X0044750Y0103500D01*
X0038500Y0097250D01*
X0038500Y0093500D01*
X0043500Y0093500D02*
X0043500Y0097250D01*
X0047875Y0101625D01*
X0047875Y0109750D01*
X0048126Y0110291D01*
X0051000Y0109750D02*
X0051276Y0110291D01*
X0051000Y0109750D02*
X0051000Y0099750D01*
X0048500Y0097250D01*
X0048500Y0093500D01*
X0053500Y0093500D02*
X0054125Y0094125D01*
X0054125Y0109750D01*
X0054425Y0110291D01*
X0057575Y0110291D02*
X0057875Y0109750D01*
X0057875Y0094125D01*
X0058500Y0093500D01*
X0063500Y0093500D02*
X0063500Y0097250D01*
X0061000Y0099750D01*
X0061000Y0109750D01*
X0060724Y0110291D01*
X0063874Y0110291D02*
X0064125Y0109750D01*
X0064125Y0101625D01*
X0068500Y0097250D01*
X0068500Y0093500D01*
X0073500Y0093500D02*
X0073500Y0097250D01*
X0067250Y0103500D01*
X0067250Y0109750D01*
X0067024Y0110291D01*
X0070173Y0110291D02*
X0070375Y0109750D01*
X0070375Y0105375D01*
X0078500Y0097250D01*
X0078500Y0093500D01*
X0083500Y0093500D02*
X0083500Y0097250D01*
X0073500Y0107250D01*
X0073500Y0109750D01*
X0073323Y0110291D01*
X0076472Y0110291D02*
X0076625Y0109750D01*
X0076625Y0108500D01*
X0085375Y0099750D01*
X0086000Y0099750D01*
X0088500Y0097250D01*
X0088500Y0093500D01*
X0093500Y0093500D02*
X0093500Y0097250D01*
X0081000Y0109750D01*
X0079750Y0109750D01*
X0079622Y0110291D01*
X0044976Y0110291D02*
X0044750Y0109750D01*
X0025291Y0152024D02*
X0024750Y0152250D01*
X0021000Y0152250D01*
X0014750Y0158500D01*
X0076472Y0171709D02*
X0076625Y0172250D01*
X0118500Y0173500D02*
X0122250Y0173500D01*
X0124750Y0171000D01*
X0124750Y0169750D01*
X0127875Y0166625D01*
X0130375Y0166625D01*
X0130665Y0166098D01*
X0130375Y0163500D02*
X0130665Y0162949D01*
X0130375Y0163500D02*
X0127250Y0163500D01*
X0122250Y0168500D01*
X0118500Y0168500D01*
X0118500Y0163500D02*
X0122250Y0163500D01*
X0125375Y0160375D01*
X0130375Y0160375D01*
X0130665Y0159799D01*
X0130375Y0157250D02*
X0130665Y0156650D01*
X0130375Y0157250D02*
X0119750Y0157250D01*
X0118500Y0158500D01*
X0118500Y0153500D02*
X0130665Y0153500D01*
X0130665Y0150350D02*
X0130375Y0149750D01*
X0119750Y0149750D01*
X0118500Y0148500D01*
X0118500Y0143500D02*
X0122250Y0143500D01*
X0125375Y0146625D01*
X0130375Y0146625D01*
X0130665Y0147201D01*
X0130665Y0144051D02*
X0130375Y0143500D01*
X0127250Y0143500D01*
X0122250Y0138500D01*
X0118500Y0138500D01*
X0118500Y0133500D02*
X0122250Y0133500D01*
X0124750Y0136000D01*
X0124750Y0137250D01*
X0127875Y0140375D01*
X0130375Y0140375D01*
X0130665Y0140902D01*
X0130665Y0137752D02*
X0130375Y0137250D01*
X0124750Y0131625D01*
X0124750Y0131000D01*
X0122250Y0128500D01*
X0118500Y0128500D01*
X0128500Y0122250D02*
X0128500Y0118500D01*
X0128500Y0122250D02*
X0131000Y0124750D01*
X0131625Y0124750D01*
X0137250Y0130375D01*
X0137752Y0130665D01*
X0140375Y0130375D02*
X0140375Y0127875D01*
X0137250Y0124750D01*
X0136000Y0124750D01*
X0133500Y0122250D01*
X0133500Y0118500D01*
X0138500Y0118500D02*
X0138500Y0122250D01*
X0143500Y0127250D01*
X0143500Y0130375D01*
X0144051Y0130665D01*
X0146625Y0130375D02*
X0147201Y0130665D01*
X0146625Y0130375D02*
X0146625Y0125375D01*
X0143500Y0122250D01*
X0143500Y0118500D01*
X0148500Y0118500D02*
X0149750Y0119750D01*
X0149750Y0130375D01*
X0150350Y0130665D01*
X0153500Y0130665D02*
X0153500Y0118500D01*
X0157250Y0119750D02*
X0158500Y0118500D01*
X0157250Y0119750D02*
X0157250Y0130375D01*
X0156650Y0130665D01*
X0159799Y0130665D02*
X0160375Y0130375D01*
X0160375Y0125375D01*
X0163500Y0122250D01*
X0163500Y0118500D01*
X0168500Y0118500D02*
X0168500Y0122250D01*
X0163500Y0127250D01*
X0163500Y0130375D01*
X0162949Y0130665D01*
X0166098Y0130665D02*
X0166625Y0130375D01*
X0166625Y0127875D01*
X0169750Y0124750D01*
X0171000Y0124750D01*
X0173500Y0122250D01*
X0173500Y0118500D01*
X0178500Y0118500D02*
X0178500Y0122250D01*
X0176000Y0124750D01*
X0175375Y0124750D01*
X0169750Y0130375D01*
X0169248Y0130665D01*
X0176625Y0137250D02*
X0176335Y0137752D01*
X0176625Y0137250D02*
X0182250Y0131625D01*
X0182250Y0131000D01*
X0184750Y0128500D01*
X0188500Y0128500D01*
X0188500Y0133500D02*
X0184750Y0133500D01*
X0182250Y0136000D01*
X0182250Y0137250D01*
X0179125Y0140375D01*
X0176625Y0140375D01*
X0176335Y0140902D01*
X0176625Y0143500D02*
X0176335Y0144051D01*
X0176625Y0143500D02*
X0179750Y0143500D01*
X0184750Y0138500D01*
X0188500Y0138500D01*
X0188500Y0143500D02*
X0184750Y0143500D01*
X0181625Y0146625D01*
X0176625Y0146625D01*
X0176335Y0147201D01*
X0176625Y0149750D02*
X0176335Y0150350D01*
X0176625Y0149750D02*
X0187250Y0149750D01*
X0188500Y0148500D01*
X0188500Y0153500D02*
X0176335Y0153500D01*
X0176335Y0156650D02*
X0176625Y0157250D01*
X0187250Y0157250D01*
X0188500Y0158500D01*
X0188500Y0163500D02*
X0184750Y0163500D01*
X0181625Y0160375D01*
X0176625Y0160375D01*
X0176335Y0159799D01*
X0176335Y0162949D02*
X0176625Y0163500D01*
X0179750Y0163500D01*
X0184750Y0168500D01*
X0188500Y0168500D01*
X0188500Y0173500D02*
X0184750Y0173500D01*
X0182250Y0171000D01*
X0182250Y0169750D01*
X0179125Y0166625D01*
X0176625Y0166625D01*
X0176335Y0166098D01*
X0176335Y0169248D02*
X0176625Y0169750D01*
X0182250Y0175375D01*
X0182250Y0176000D01*
X0184750Y0178500D01*
X0188500Y0178500D01*
X0178500Y0184750D02*
X0178500Y0188500D01*
X0178500Y0184750D02*
X0176000Y0182250D01*
X0175375Y0182250D01*
X0169750Y0176625D01*
X0169248Y0176335D01*
X0166625Y0176625D02*
X0166098Y0176335D01*
X0166625Y0176625D02*
X0166625Y0179125D01*
X0169750Y0182250D01*
X0171000Y0182250D01*
X0173500Y0184750D01*
X0173500Y0188500D01*
X0168500Y0188500D02*
X0168500Y0184750D01*
X0163500Y0179750D01*
X0163500Y0176625D01*
X0162949Y0176335D01*
X0160375Y0176625D02*
X0159799Y0176335D01*
X0160375Y0176625D02*
X0160375Y0181625D01*
X0163500Y0184750D01*
X0163500Y0188500D01*
X0158500Y0188500D02*
X0157250Y0187250D01*
X0157250Y0176625D01*
X0156650Y0176335D01*
X0153500Y0176335D02*
X0153500Y0188500D01*
X0149750Y0187250D02*
X0148500Y0188500D01*
X0149750Y0187250D02*
X0149750Y0176625D01*
X0150350Y0176335D01*
X0147201Y0176335D02*
X0146625Y0176625D01*
X0146625Y0181625D01*
X0143500Y0184750D01*
X0143500Y0188500D01*
X0138500Y0188500D02*
X0138500Y0184750D01*
X0143500Y0179750D01*
X0143500Y0176625D01*
X0144051Y0176335D01*
X0140902Y0176335D02*
X0140375Y0176625D01*
X0140375Y0179125D01*
X0137250Y0182250D01*
X0136000Y0182250D01*
X0133500Y0184750D01*
X0133500Y0188500D01*
X0128500Y0188500D02*
X0128500Y0184750D01*
X0131000Y0182250D01*
X0131625Y0182250D01*
X0137250Y0176625D01*
X0137752Y0176335D01*
X0130375Y0169750D02*
X0130665Y0169248D01*
X0130375Y0169750D02*
X0124750Y0175375D01*
X0124750Y0176000D01*
X0122250Y0178500D01*
X0118500Y0178500D01*
X0140902Y0130665D02*
X0140375Y0130375D01*
X0151000Y0066000D02*
X0151500Y0065900D01*
X0151500Y0061700D01*
X0161100Y0052100D01*
X0161100Y0047900D01*
X0161610Y0047752D01*
X0163500Y0047900D02*
X0163579Y0047752D01*
X0163500Y0047900D02*
X0163500Y0055100D01*
X0156300Y0062300D01*
X0156300Y0065900D01*
X0156000Y0066000D01*
X0161000Y0066000D02*
X0161100Y0065900D01*
X0161100Y0062300D01*
X0165300Y0058100D01*
X0165300Y0047900D01*
X0165547Y0047752D01*
X0167100Y0047900D02*
X0167516Y0047752D01*
X0167100Y0047900D02*
X0167100Y0065300D01*
X0166500Y0065900D01*
X0166000Y0066000D01*
X0169500Y0064700D02*
X0170700Y0065900D01*
X0171000Y0066000D01*
X0169500Y0064700D02*
X0169500Y0047900D01*
X0169484Y0047752D01*
X0171453Y0047752D02*
X0171900Y0047900D01*
X0171900Y0058100D01*
X0175500Y0061700D01*
X0175500Y0065900D01*
X0176000Y0066000D01*
X0180900Y0065900D02*
X0180900Y0062300D01*
X0173700Y0055100D01*
X0173700Y0047900D01*
X0173421Y0047752D01*
X0175390Y0047752D02*
X0175500Y0047900D01*
X0175500Y0052100D01*
X0185700Y0062300D01*
X0185700Y0065900D01*
X0186000Y0066000D01*
X0181000Y0066000D02*
X0180900Y0065900D01*
X0184500Y0055700D02*
X0188100Y0055700D01*
X0188500Y0056000D01*
X0184500Y0055700D02*
X0177900Y0049100D01*
X0177900Y0045500D01*
X0177752Y0045390D01*
X0177900Y0043700D02*
X0177752Y0043421D01*
X0177900Y0043700D02*
X0179700Y0043700D01*
X0182100Y0046100D01*
X0182100Y0047900D01*
X0185100Y0050900D01*
X0188100Y0050900D01*
X0188500Y0051000D01*
X0188500Y0046000D02*
X0188100Y0045500D01*
X0184500Y0045500D01*
X0180900Y0041900D01*
X0177900Y0041900D01*
X0177752Y0041453D01*
X0177900Y0039500D02*
X0177752Y0039484D01*
X0177900Y0039500D02*
X0186900Y0039500D01*
X0188100Y0040700D01*
X0188500Y0041000D01*
X0187500Y0037100D02*
X0188100Y0036500D01*
X0188500Y0036000D01*
X0187500Y0037100D02*
X0177900Y0037100D01*
X0177752Y0037516D01*
X0177752Y0035547D02*
X0177900Y0035300D01*
X0180900Y0035300D01*
X0185100Y0031100D01*
X0188100Y0031100D01*
X0188500Y0031000D01*
X0188100Y0026300D02*
X0184500Y0026300D01*
X0182100Y0028700D01*
X0182100Y0030500D01*
X0179100Y0033500D01*
X0177900Y0033500D01*
X0177752Y0033579D01*
X0177752Y0031610D02*
X0177900Y0031100D01*
X0177900Y0028100D01*
X0184500Y0021500D01*
X0188100Y0021500D01*
X0188500Y0021000D01*
X0188500Y0026000D02*
X0188100Y0026300D01*
X0185700Y0014900D02*
X0185700Y0011300D01*
X0186000Y0011000D01*
X0185700Y0014900D02*
X0175500Y0025100D01*
X0175500Y0028700D01*
X0175390Y0029248D01*
X0173700Y0028700D02*
X0173421Y0029248D01*
X0173700Y0028700D02*
X0173700Y0022100D01*
X0180900Y0014900D01*
X0180900Y0011300D01*
X0181000Y0011000D01*
X0176000Y0011000D02*
X0175500Y0011300D01*
X0175500Y0014900D01*
X0171900Y0018500D01*
X0171900Y0028700D01*
X0171453Y0029248D01*
X0169484Y0029248D02*
X0169500Y0028700D01*
X0169500Y0012500D01*
X0171000Y0011000D01*
X0167100Y0011900D02*
X0166500Y0011300D01*
X0166000Y0011000D01*
X0167100Y0011900D02*
X0167100Y0028700D01*
X0167516Y0029248D01*
X0165547Y0029248D02*
X0165300Y0028700D01*
X0165300Y0019100D01*
X0161100Y0014900D01*
X0161100Y0011300D01*
X0161000Y0011000D01*
X0156300Y0011300D02*
X0156300Y0014900D01*
X0163500Y0022100D01*
X0163500Y0028700D01*
X0163579Y0029248D01*
X0161610Y0029248D02*
X0161100Y0028700D01*
X0161100Y0024500D01*
X0151500Y0014900D01*
X0151500Y0011300D01*
X0151000Y0011000D01*
X0156000Y0011000D02*
X0156300Y0011300D01*
X0152700Y0021500D02*
X0148500Y0021500D01*
X0148500Y0021000D01*
X0152700Y0021500D02*
X0158700Y0027500D01*
X0158700Y0031100D01*
X0159248Y0031610D01*
X0158700Y0033500D02*
X0159248Y0033579D01*
X0158700Y0033500D02*
X0157500Y0033500D01*
X0155750Y0031750D01*
X0155750Y0029950D01*
X0152100Y0026300D01*
X0148500Y0026300D01*
X0148500Y0026000D01*
X0148500Y0031000D02*
X0148500Y0031100D01*
X0152100Y0031100D01*
X0156300Y0035300D01*
X0158700Y0035300D01*
X0159248Y0035547D01*
X0158700Y0037100D02*
X0159248Y0037516D01*
X0158700Y0037100D02*
X0149100Y0037100D01*
X0148500Y0036500D01*
X0148500Y0036000D01*
X0149700Y0039500D02*
X0148500Y0040700D01*
X0148500Y0041000D01*
X0149700Y0039500D02*
X0158700Y0039500D01*
X0159248Y0039484D01*
X0159248Y0041453D02*
X0158700Y0041900D01*
X0156300Y0041900D01*
X0152700Y0045500D01*
X0148500Y0045500D01*
X0148500Y0046000D01*
X0148500Y0050900D02*
X0148500Y0051000D01*
X0148500Y0050900D02*
X0152100Y0050900D01*
X0155750Y0047250D01*
X0155750Y0045450D01*
X0157500Y0043700D01*
X0158700Y0043700D01*
X0159248Y0043421D01*
X0159248Y0045390D02*
X0158700Y0045500D01*
X0158700Y0049100D01*
X0152100Y0055700D01*
X0148500Y0055700D01*
X0148500Y0056000D01*
X0134750Y0056000D02*
X0131000Y0056000D01*
X0124750Y0049750D01*
X0124150Y0049524D01*
X0124750Y0046625D02*
X0124150Y0046374D01*
X0124750Y0046625D02*
X0126625Y0046625D01*
X0131000Y0051000D01*
X0134750Y0051000D01*
X0134750Y0046000D02*
X0131000Y0046000D01*
X0128500Y0043500D01*
X0124750Y0043500D01*
X0124150Y0043224D01*
X0124750Y0040375D02*
X0124150Y0040075D01*
X0124750Y0040375D02*
X0134125Y0040375D01*
X0134750Y0041000D01*
X0134125Y0036625D02*
X0134750Y0036000D01*
X0134125Y0036625D02*
X0124750Y0036625D01*
X0124150Y0036925D01*
X0124150Y0033776D02*
X0124750Y0033500D01*
X0128500Y0033500D01*
X0131000Y0031000D01*
X0134750Y0031000D01*
X0134750Y0026000D02*
X0131000Y0026000D01*
X0126625Y0030375D01*
X0124750Y0030375D01*
X0124150Y0030626D01*
X0124150Y0027476D02*
X0124750Y0027250D01*
X0131000Y0021000D01*
X0134750Y0021000D01*
X0124750Y0014750D02*
X0124750Y0011000D01*
X0124750Y0014750D02*
X0118500Y0021000D01*
X0118274Y0021600D01*
X0115375Y0021000D02*
X0115375Y0019125D01*
X0119750Y0014750D01*
X0119750Y0011000D01*
X0114750Y0011000D02*
X0114750Y0014750D01*
X0112250Y0017250D01*
X0112250Y0021000D01*
X0111974Y0021600D01*
X0115124Y0021600D02*
X0115375Y0021000D01*
X0109125Y0021000D02*
X0108825Y0021600D01*
X0109125Y0021000D02*
X0109125Y0011625D01*
X0109750Y0011000D01*
X0105375Y0011625D02*
X0104750Y0011000D01*
X0105375Y0011625D02*
X0105375Y0021000D01*
X0105675Y0021600D01*
X0102526Y0021600D02*
X0102250Y0021000D01*
X0102250Y0017250D01*
X0099750Y0014750D01*
X0099750Y0011000D01*
X0094750Y0011000D02*
X0094750Y0014750D01*
X0099125Y0019125D01*
X0099125Y0021000D01*
X0099376Y0021600D01*
X0096226Y0021600D02*
X0096000Y0021000D01*
X0089750Y0014750D01*
X0089750Y0011000D01*
X0083500Y0021000D02*
X0079750Y0021000D01*
X0083500Y0021000D02*
X0089750Y0027250D01*
X0090350Y0027476D01*
X0089750Y0030375D02*
X0087875Y0030375D01*
X0083500Y0026000D01*
X0079750Y0026000D01*
X0079750Y0031000D02*
X0083500Y0031000D01*
X0086000Y0033500D01*
X0089750Y0033500D01*
X0090350Y0033776D01*
X0090350Y0030626D02*
X0089750Y0030375D01*
X0089750Y0036625D02*
X0090350Y0036925D01*
X0089750Y0036625D02*
X0080375Y0036625D01*
X0079750Y0036000D01*
X0080375Y0040375D02*
X0079750Y0041000D01*
X0080375Y0040375D02*
X0089750Y0040375D01*
X0090350Y0040075D01*
X0090350Y0043224D02*
X0089750Y0043500D01*
X0086000Y0043500D01*
X0083500Y0046000D01*
X0079750Y0046000D01*
X0079750Y0051000D02*
X0083500Y0051000D01*
X0087875Y0046625D01*
X0089750Y0046625D01*
X0090350Y0046374D01*
X0090350Y0049524D02*
X0089750Y0049750D01*
X0083500Y0056000D01*
X0079750Y0056000D01*
X0089750Y0062250D02*
X0089750Y0066000D01*
X0089750Y0062250D02*
X0096000Y0056000D01*
X0096226Y0055400D01*
X0099125Y0056000D02*
X0099376Y0055400D01*
X0099125Y0056000D02*
X0099125Y0057875D01*
X0094750Y0062250D01*
X0094750Y0066000D01*
X0099750Y0066000D02*
X0099750Y0062250D01*
X0102250Y0059750D01*
X0102250Y0056000D01*
X0102526Y0055400D01*
X0105375Y0056000D02*
X0105675Y0055400D01*
X0105375Y0056000D02*
X0105375Y0065375D01*
X0104750Y0066000D01*
X0109125Y0065375D02*
X0109750Y0066000D01*
X0109125Y0065375D02*
X0109125Y0056000D01*
X0108825Y0055400D01*
X0111974Y0055400D02*
X0112250Y0056000D01*
X0112250Y0059750D01*
X0114750Y0062250D01*
X0114750Y0066000D01*
X0119750Y0066000D02*
X0119750Y0062250D01*
X0115375Y0057875D01*
X0115375Y0056000D01*
X0115124Y0055400D01*
X0118274Y0055400D02*
X0118500Y0056000D01*
X0124750Y0062250D01*
X0124750Y0066000D01*
X0066000Y0056000D02*
X0062250Y0056000D01*
X0056000Y0049750D01*
X0055400Y0049524D01*
X0056000Y0046625D02*
X0055400Y0046374D01*
X0056000Y0046625D02*
X0057875Y0046625D01*
X0062250Y0051000D01*
X0066000Y0051000D01*
X0066000Y0046000D02*
X0062250Y0046000D01*
X0059750Y0043500D01*
X0056000Y0043500D01*
X0055400Y0043224D01*
X0056000Y0040375D02*
X0055400Y0040075D01*
X0056000Y0040375D02*
X0065375Y0040375D01*
X0066000Y0041000D01*
X0065375Y0036625D02*
X0066000Y0036000D01*
X0065375Y0036625D02*
X0056000Y0036625D01*
X0055400Y0036925D01*
X0055400Y0033776D02*
X0056000Y0033500D01*
X0059750Y0033500D01*
X0062250Y0031000D01*
X0066000Y0031000D01*
X0066000Y0026000D02*
X0062250Y0026000D01*
X0057875Y0030375D01*
X0056000Y0030375D01*
X0055400Y0030626D01*
X0055400Y0027476D02*
X0056000Y0027250D01*
X0062250Y0021000D01*
X0066000Y0021000D01*
X0056000Y0014750D02*
X0056000Y0011000D01*
X0056000Y0014750D02*
X0049750Y0021000D01*
X0049524Y0021600D01*
X0046625Y0021000D02*
X0046625Y0019125D01*
X0051000Y0014750D01*
X0051000Y0011000D01*
X0046000Y0011000D02*
X0046000Y0014750D01*
X0043500Y0017250D01*
X0043500Y0021000D01*
X0043224Y0021600D01*
X0040375Y0021000D02*
X0040075Y0021600D01*
X0040375Y0021000D02*
X0040375Y0011625D01*
X0041000Y0011000D01*
X0036625Y0011625D02*
X0036000Y0011000D01*
X0036625Y0011625D02*
X0036625Y0021000D01*
X0036925Y0021600D01*
X0033776Y0021600D02*
X0033500Y0021000D01*
X0033500Y0017250D01*
X0031000Y0014750D01*
X0031000Y0011000D01*
X0026000Y0011000D02*
X0026000Y0014750D01*
X0030375Y0019125D01*
X0030375Y0021000D01*
X0030626Y0021600D01*
X0027476Y0021600D02*
X0027250Y0021000D01*
X0021000Y0014750D01*
X0021000Y0011000D01*
X0014750Y0021000D02*
X0011000Y0021000D01*
X0014750Y0021000D02*
X0021000Y0027250D01*
X0021600Y0027476D01*
X0021000Y0030375D02*
X0019125Y0030375D01*
X0014750Y0026000D01*
X0011000Y0026000D01*
X0011000Y0031000D02*
X0014750Y0031000D01*
X0017250Y0033500D01*
X0021000Y0033500D01*
X0021600Y0033776D01*
X0021600Y0030626D02*
X0021000Y0030375D01*
X0021000Y0036625D02*
X0021600Y0036925D01*
X0021000Y0036625D02*
X0011625Y0036625D01*
X0011000Y0036000D01*
X0011625Y0040375D02*
X0011000Y0041000D01*
X0011625Y0040375D02*
X0021000Y0040375D01*
X0021600Y0040075D01*
X0021600Y0043224D02*
X0021000Y0043500D01*
X0017250Y0043500D01*
X0014750Y0046000D01*
X0011000Y0046000D01*
X0011000Y0051000D02*
X0014750Y0051000D01*
X0019125Y0046625D01*
X0021000Y0046625D01*
X0021600Y0046374D01*
X0021600Y0049524D02*
X0021000Y0049750D01*
X0014750Y0056000D01*
X0011000Y0056000D01*
X0021000Y0062250D02*
X0021000Y0066000D01*
X0021000Y0062250D02*
X0027250Y0056000D01*
X0027476Y0055400D01*
X0030375Y0056000D02*
X0030375Y0057875D01*
X0026000Y0062250D01*
X0026000Y0066000D01*
X0031000Y0066000D02*
X0031000Y0062250D01*
X0033500Y0059750D01*
X0033500Y0056000D01*
X0033776Y0055400D01*
X0030626Y0055400D02*
X0030375Y0056000D01*
X0036625Y0056000D02*
X0036925Y0055400D01*
X0036625Y0056000D02*
X0036625Y0065375D01*
X0036000Y0066000D01*
X0040375Y0065375D02*
X0041000Y0066000D01*
X0040375Y0065375D02*
X0040375Y0056000D01*
X0040075Y0055400D01*
X0043224Y0055400D02*
X0043500Y0056000D01*
X0043500Y0059750D01*
X0046000Y0062250D01*
X0046000Y0066000D01*
X0051000Y0066000D02*
X0051000Y0062250D01*
X0046625Y0057875D01*
X0046625Y0056000D01*
X0046374Y0055400D01*
X0049524Y0055400D02*
X0049750Y0056000D01*
X0056000Y0062250D01*
X0056000Y0066000D01*
X0046374Y0021600D02*
X0046625Y0021000D01*
D26*
X0164000Y0034000D03*
X0164000Y0043000D03*
X0173000Y0043000D03*
X0173000Y0034000D03*
D27*
X0169750Y0077547D02*
X0169750Y0079264D01*
X0169967Y0079047D01*
X0169750Y0077547D02*
X0177250Y0077547D01*
X0190250Y0077547D01*
X0190250Y0079500D01*
X0186387Y0084123D02*
X0180822Y0084123D01*
X0180822Y0083453D02*
X0180822Y0084871D01*
X0180699Y0085329D01*
X0180462Y0085739D01*
X0180127Y0086074D01*
X0179716Y0086311D01*
X0179259Y0086434D01*
X0177250Y0086434D01*
X0177250Y0083453D01*
X0177250Y0083453D01*
X0177250Y0086434D01*
X0175241Y0086434D01*
X0174784Y0086311D01*
X0174373Y0086074D01*
X0174038Y0085739D01*
X0173801Y0085329D01*
X0173678Y0084871D01*
X0173678Y0083453D01*
X0177250Y0083453D01*
X0180822Y0083453D01*
X0177250Y0083453D01*
X0177250Y0083453D01*
X0177250Y0083453D01*
X0173678Y0083453D01*
X0173678Y0082035D01*
X0173801Y0081577D01*
X0174038Y0081166D01*
X0174373Y0080831D01*
X0174614Y0080692D01*
X0174269Y0080347D01*
X0172931Y0080347D01*
X0172931Y0084423D01*
X0171760Y0085594D01*
X0167740Y0085594D01*
X0167109Y0084963D01*
X0167036Y0085035D01*
X0166626Y0085272D01*
X0166168Y0085394D01*
X0164750Y0085394D01*
X0163332Y0085394D01*
X0162874Y0085272D01*
X0162464Y0085035D01*
X0162250Y0084821D01*
X0162036Y0085035D01*
X0161626Y0085272D01*
X0161168Y0085394D01*
X0159750Y0085394D01*
X0158332Y0085394D01*
X0157874Y0085272D01*
X0157464Y0085035D01*
X0157391Y0084963D01*
X0156760Y0085594D01*
X0153750Y0085594D01*
X0153750Y0093406D01*
X0156760Y0093406D01*
X0157391Y0094037D01*
X0157464Y0093965D01*
X0157874Y0093728D01*
X0158332Y0093606D01*
X0159750Y0093605D01*
X0159750Y0099736D01*
X0159750Y0093606D01*
X0161168Y0093606D01*
X0161626Y0093728D01*
X0162036Y0093965D01*
X0162250Y0094179D01*
X0162464Y0093965D01*
X0162874Y0093728D01*
X0163332Y0093606D01*
X0164750Y0093605D01*
X0164750Y0099736D01*
X0164750Y0093606D01*
X0166168Y0093606D01*
X0166626Y0093728D01*
X0167036Y0093965D01*
X0167109Y0094037D01*
X0167740Y0093406D01*
X0171760Y0093406D01*
X0172931Y0094577D01*
X0172931Y0098653D01*
X0174269Y0098653D01*
X0174614Y0098308D01*
X0174373Y0098169D01*
X0174038Y0097834D01*
X0173801Y0097423D01*
X0173678Y0096965D01*
X0173678Y0095547D01*
X0173678Y0094129D01*
X0173801Y0093671D01*
X0174038Y0093261D01*
X0174373Y0092926D01*
X0174784Y0092689D01*
X0175241Y0092566D01*
X0177250Y0092566D01*
X0179259Y0092566D01*
X0179716Y0092689D01*
X0180127Y0092926D01*
X0180462Y0093261D01*
X0180699Y0093671D01*
X0180822Y0094129D01*
X0180822Y0095547D01*
X0177250Y0095547D01*
X0177250Y0092566D01*
X0177250Y0095547D01*
X0177250Y0095547D01*
X0177250Y0095547D01*
X0173678Y0095547D01*
X0177250Y0095547D01*
X0177250Y0095547D01*
X0180822Y0095547D01*
X0180822Y0096965D01*
X0180699Y0097423D01*
X0180462Y0097834D01*
X0180127Y0098169D01*
X0179886Y0098308D01*
X0180231Y0098653D01*
X0184250Y0098653D01*
X0184250Y0094672D01*
X0185422Y0093500D01*
X0186048Y0093500D01*
X0185826Y0093278D01*
X0185289Y0092540D01*
X0184875Y0091726D01*
X0184593Y0090858D01*
X0184450Y0089956D01*
X0184450Y0089700D01*
X0190050Y0089700D01*
X0190050Y0089300D01*
X0184450Y0089300D01*
X0184450Y0089044D01*
X0184593Y0088142D01*
X0184875Y0087274D01*
X0185289Y0086460D01*
X0185826Y0085722D01*
X0186472Y0085076D01*
X0187039Y0084664D01*
X0186851Y0084587D01*
X0185163Y0082899D01*
X0184250Y0080693D01*
X0184250Y0080347D01*
X0180231Y0080347D01*
X0179886Y0080692D01*
X0180127Y0080831D01*
X0180462Y0081166D01*
X0180699Y0081577D01*
X0180822Y0082035D01*
X0180822Y0083453D01*
X0180822Y0082524D02*
X0185008Y0082524D01*
X0184346Y0080926D02*
X0180221Y0080926D01*
X0177250Y0084123D02*
X0177250Y0084123D01*
X0177250Y0085721D02*
X0177250Y0085721D01*
X0174028Y0085721D02*
X0153750Y0085721D01*
X0153750Y0087320D02*
X0184860Y0087320D01*
X0184470Y0088918D02*
X0153750Y0088918D01*
X0153750Y0090517D02*
X0184539Y0090517D01*
X0185073Y0092115D02*
X0153750Y0092115D01*
X0157068Y0093714D02*
X0157928Y0093714D01*
X0159750Y0093714D02*
X0159750Y0093714D01*
X0159750Y0095312D02*
X0159750Y0095312D01*
X0159750Y0096911D02*
X0159750Y0096911D01*
X0159750Y0098509D02*
X0159750Y0098509D01*
X0159750Y0099736D02*
X0159750Y0099736D01*
X0159750Y0099736D01*
X0164750Y0099736D01*
X0164750Y0099736D01*
X0164750Y0099736D01*
X0162731Y0099736D01*
X0159750Y0099736D01*
X0164750Y0098509D02*
X0164750Y0098509D01*
X0164750Y0096911D02*
X0164750Y0096911D01*
X0164750Y0095312D02*
X0164750Y0095312D01*
X0164750Y0093714D02*
X0164750Y0093714D01*
X0166572Y0093714D02*
X0167432Y0093714D01*
X0172068Y0093714D02*
X0173790Y0093714D01*
X0173678Y0095312D02*
X0172931Y0095312D01*
X0172931Y0096911D02*
X0173678Y0096911D01*
X0174412Y0098509D02*
X0172931Y0098509D01*
X0169967Y0099953D02*
X0169750Y0099736D01*
X0169750Y0101453D01*
X0177250Y0101453D01*
X0190250Y0101453D01*
X0190250Y0099500D01*
X0184250Y0098509D02*
X0180088Y0098509D01*
X0180822Y0096911D02*
X0184250Y0096911D01*
X0184250Y0095312D02*
X0180822Y0095312D01*
X0180710Y0093714D02*
X0185208Y0093714D01*
X0177250Y0093714D02*
X0177250Y0093714D01*
X0177250Y0095312D02*
X0177250Y0095312D01*
X0180472Y0085721D02*
X0185826Y0085721D01*
X0173678Y0084123D02*
X0172931Y0084123D01*
X0172931Y0082524D02*
X0173678Y0082524D01*
X0174279Y0080926D02*
X0172931Y0080926D01*
X0164750Y0080926D02*
X0164750Y0080926D01*
X0164750Y0082524D02*
X0164750Y0082524D01*
X0164750Y0084123D02*
X0164750Y0084123D01*
X0164750Y0085394D02*
X0164750Y0079264D01*
X0164750Y0079264D01*
X0164750Y0085394D01*
X0159750Y0085394D02*
X0159750Y0079264D01*
X0159750Y0079264D01*
X0159750Y0085394D01*
X0159750Y0084123D02*
X0159750Y0084123D01*
X0159750Y0082524D02*
X0159750Y0082524D01*
X0159750Y0080926D02*
X0159750Y0080926D01*
X0159750Y0079327D02*
X0159750Y0079327D01*
X0159750Y0079264D02*
X0161769Y0079264D01*
X0164750Y0079264D01*
X0164750Y0079264D01*
X0159750Y0079264D01*
X0159750Y0079264D01*
X0164750Y0079327D02*
X0164750Y0079327D01*
X0150000Y0085594D02*
X0150000Y0093406D01*
X0146990Y0093406D01*
X0146359Y0094037D01*
X0146286Y0093965D01*
X0145876Y0093728D01*
X0145418Y0093606D01*
X0144000Y0093606D01*
X0144000Y0099736D01*
X0144000Y0099736D01*
X0144000Y0093605D01*
X0142582Y0093606D01*
X0142124Y0093728D01*
X0141714Y0093965D01*
X0141500Y0094179D01*
X0141286Y0093965D01*
X0140876Y0093728D01*
X0140418Y0093606D01*
X0139000Y0093606D01*
X0139000Y0099736D01*
X0139000Y0099736D01*
X0139000Y0093605D01*
X0137582Y0093606D01*
X0137124Y0093728D01*
X0136714Y0093965D01*
X0136641Y0094037D01*
X0136010Y0093406D01*
X0131990Y0093406D01*
X0130819Y0094577D01*
X0130819Y0098653D01*
X0129481Y0098653D01*
X0129136Y0098308D01*
X0129377Y0098169D01*
X0129712Y0097834D01*
X0129949Y0097423D01*
X0130072Y0096965D01*
X0130072Y0095547D01*
X0126500Y0095547D01*
X0126500Y0092566D01*
X0128509Y0092566D01*
X0128966Y0092689D01*
X0129377Y0092926D01*
X0129712Y0093261D01*
X0129949Y0093671D01*
X0130072Y0094129D01*
X0130072Y0095547D01*
X0126500Y0095547D01*
X0126500Y0095547D01*
X0126500Y0092566D01*
X0124491Y0092566D01*
X0124034Y0092689D01*
X0123623Y0092926D01*
X0123288Y0093261D01*
X0123051Y0093671D01*
X0122928Y0094129D01*
X0122928Y0095547D01*
X0126500Y0095547D01*
X0126500Y0095547D01*
X0126500Y0095547D01*
X0122928Y0095547D01*
X0122928Y0096965D01*
X0123051Y0097423D01*
X0123288Y0097834D01*
X0123623Y0098169D01*
X0123864Y0098308D01*
X0123519Y0098653D01*
X0119500Y0098653D01*
X0119500Y0098307D01*
X0118587Y0096101D01*
X0116899Y0094413D01*
X0116711Y0094336D01*
X0117278Y0093924D01*
X0117924Y0093278D01*
X0118461Y0092540D01*
X0118875Y0091726D01*
X0119157Y0090858D01*
X0119300Y0089956D01*
X0119300Y0089700D01*
X0113700Y0089700D01*
X0113700Y0089300D01*
X0119300Y0089300D01*
X0119300Y0089044D01*
X0119157Y0088142D01*
X0118875Y0087274D01*
X0118461Y0086460D01*
X0117924Y0085722D01*
X0117702Y0085500D01*
X0118328Y0085500D01*
X0119500Y0084328D01*
X0119500Y0080347D01*
X0123519Y0080347D01*
X0123864Y0080692D01*
X0123623Y0080831D01*
X0123288Y0081166D01*
X0123051Y0081577D01*
X0122928Y0082035D01*
X0122928Y0083453D01*
X0126500Y0083453D01*
X0126500Y0083453D01*
X0126500Y0086434D01*
X0128509Y0086434D01*
X0128966Y0086311D01*
X0129377Y0086074D01*
X0129712Y0085739D01*
X0129949Y0085329D01*
X0130072Y0084871D01*
X0130072Y0083453D01*
X0126500Y0083453D01*
X0126500Y0086434D01*
X0124491Y0086434D01*
X0124034Y0086311D01*
X0123623Y0086074D01*
X0123288Y0085739D01*
X0123051Y0085329D01*
X0122928Y0084871D01*
X0122928Y0083453D01*
X0126500Y0083453D01*
X0126500Y0083453D01*
X0126500Y0083453D01*
X0130072Y0083453D01*
X0130072Y0082035D01*
X0129949Y0081577D01*
X0129712Y0081166D01*
X0129377Y0080831D01*
X0129136Y0080692D01*
X0129481Y0080347D01*
X0130819Y0080347D01*
X0130819Y0084423D01*
X0131990Y0085594D01*
X0136010Y0085594D01*
X0136641Y0084963D01*
X0136714Y0085035D01*
X0137124Y0085272D01*
X0137582Y0085394D01*
X0139000Y0085394D01*
X0139000Y0079264D01*
X0139000Y0079264D01*
X0139000Y0085394D01*
X0140418Y0085394D01*
X0140876Y0085272D01*
X0141286Y0085035D01*
X0141500Y0084821D01*
X0141714Y0085035D01*
X0142124Y0085272D01*
X0142582Y0085394D01*
X0144000Y0085394D01*
X0144000Y0079264D01*
X0144000Y0079264D01*
X0144000Y0085394D01*
X0145418Y0085394D01*
X0145876Y0085272D01*
X0146286Y0085035D01*
X0146359Y0084963D01*
X0146990Y0085594D01*
X0150000Y0085594D01*
X0150000Y0085721D02*
X0129722Y0085721D01*
X0130072Y0084123D02*
X0130819Y0084123D01*
X0130819Y0082524D02*
X0130072Y0082524D01*
X0129471Y0080926D02*
X0130819Y0080926D01*
X0133783Y0079047D02*
X0134000Y0079264D01*
X0134000Y0077547D01*
X0126500Y0077547D01*
X0113500Y0077547D01*
X0113500Y0079500D01*
X0119500Y0080926D02*
X0123529Y0080926D01*
X0122928Y0082524D02*
X0119500Y0082524D01*
X0119500Y0084123D02*
X0122928Y0084123D01*
X0123278Y0085721D02*
X0117924Y0085721D01*
X0118890Y0087320D02*
X0150000Y0087320D01*
X0150000Y0088918D02*
X0119280Y0088918D01*
X0119211Y0090517D02*
X0150000Y0090517D01*
X0150000Y0092115D02*
X0118677Y0092115D01*
X0117489Y0093714D02*
X0123040Y0093714D01*
X0122928Y0095312D02*
X0117797Y0095312D01*
X0118922Y0096911D02*
X0122928Y0096911D01*
X0123662Y0098509D02*
X0119500Y0098509D01*
X0113500Y0099500D02*
X0113500Y0101453D01*
X0126500Y0101453D01*
X0134000Y0101453D01*
X0134000Y0099736D01*
X0133783Y0099953D01*
X0130819Y0098509D02*
X0129338Y0098509D01*
X0130072Y0096911D02*
X0130819Y0096911D01*
X0130819Y0095312D02*
X0130072Y0095312D01*
X0129960Y0093714D02*
X0131682Y0093714D01*
X0136318Y0093714D02*
X0137178Y0093714D01*
X0139000Y0093714D02*
X0139000Y0093714D01*
X0139000Y0095312D02*
X0139000Y0095312D01*
X0139000Y0096911D02*
X0139000Y0096911D01*
X0139000Y0098509D02*
X0139000Y0098509D01*
X0139000Y0099736D02*
X0139000Y0099736D01*
X0141019Y0099736D01*
X0144000Y0099736D01*
X0144000Y0099736D01*
X0139000Y0099736D01*
X0144000Y0098509D02*
X0144000Y0098509D01*
X0144000Y0096911D02*
X0144000Y0096911D01*
X0144000Y0095312D02*
X0144000Y0095312D01*
X0144000Y0093714D02*
X0144000Y0093714D01*
X0145822Y0093714D02*
X0146682Y0093714D01*
X0142178Y0093714D02*
X0140822Y0093714D01*
X0139000Y0084123D02*
X0139000Y0084123D01*
X0139000Y0082524D02*
X0139000Y0082524D01*
X0139000Y0080926D02*
X0139000Y0080926D01*
X0139000Y0079327D02*
X0139000Y0079327D01*
X0139000Y0079264D02*
X0144000Y0079264D01*
X0144000Y0079264D01*
X0141981Y0079264D01*
X0139000Y0079264D01*
X0139000Y0079264D01*
X0144000Y0079327D02*
X0144000Y0079327D01*
X0144000Y0080926D02*
X0144000Y0080926D01*
X0144000Y0082524D02*
X0144000Y0082524D01*
X0144000Y0084123D02*
X0144000Y0084123D01*
X0126500Y0084123D02*
X0126500Y0084123D01*
X0126500Y0085721D02*
X0126500Y0085721D01*
X0126500Y0093714D02*
X0126500Y0093714D01*
X0126500Y0095312D02*
X0126500Y0095312D01*
X0161572Y0093714D02*
X0162928Y0093714D01*
M02*
