G75*
%MOIN*%
%OFA0B0*%
%FSLAX25Y25*%
%IPPOS*%
%LPD*%
%AMOC8*
5,1,8,0,0,1.08239X$1,22.5*
%
%ADD10C,0.00000*%
%ADD11R,0.10000X0.04000*%
%ADD12R,0.04000X0.10000*%
%ADD13R,0.05000X0.02200*%
%ADD14R,0.02200X0.05000*%
%ADD15R,0.05906X0.01969*%
%ADD16R,0.01969X0.05906*%
%ADD17R,0.02200X0.04700*%
%ADD18R,0.04700X0.02200*%
%ADD19C,0.00591*%
%ADD20R,0.12598X0.12598*%
%ADD21R,0.02362X0.08661*%
%ADD22R,0.03543X0.02362*%
D10*
X0001000Y0001000D02*
X0001000Y0196850D01*
X0196850Y0196850D01*
X0196850Y0001000D01*
X0001000Y0001000D01*
D11*
X0010500Y0020500D03*
X0010500Y0025500D03*
X0010500Y0030500D03*
X0010500Y0035500D03*
X0010500Y0040500D03*
X0010500Y0045500D03*
X0010500Y0050500D03*
X0010500Y0055500D03*
X0009250Y0103000D03*
X0009250Y0108000D03*
X0009250Y0113000D03*
X0009250Y0118000D03*
X0009250Y0123000D03*
X0009250Y0128000D03*
X0009250Y0133000D03*
X0009250Y0138000D03*
X0009250Y0143000D03*
X0009250Y0148000D03*
X0009250Y0153000D03*
X0009250Y0158000D03*
X0009250Y0163000D03*
X0009250Y0168000D03*
X0009250Y0173000D03*
X0009250Y0178000D03*
X0101750Y0178000D03*
X0101750Y0173000D03*
X0101750Y0168000D03*
X0101750Y0163000D03*
X0101750Y0158000D03*
X0101750Y0153000D03*
X0101750Y0148000D03*
X0101750Y0143000D03*
X0101750Y0138000D03*
X0101750Y0133000D03*
X0101750Y0128000D03*
X0101750Y0123000D03*
X0101750Y0118000D03*
X0101750Y0113000D03*
X0101750Y0108000D03*
X0101750Y0103000D03*
X0118000Y0128000D03*
X0118000Y0133000D03*
X0118000Y0138000D03*
X0118000Y0143000D03*
X0118000Y0148000D03*
X0118000Y0153000D03*
X0118000Y0158000D03*
X0118000Y0163000D03*
X0118000Y0168000D03*
X0118000Y0173000D03*
X0118000Y0178000D03*
X0188000Y0178000D03*
X0188000Y0173000D03*
X0188000Y0168000D03*
X0188000Y0163000D03*
X0188000Y0158000D03*
X0188000Y0153000D03*
X0188000Y0148000D03*
X0188000Y0143000D03*
X0188000Y0138000D03*
X0188000Y0133000D03*
X0188000Y0128000D03*
X0188000Y0055500D03*
X0188000Y0050500D03*
X0188000Y0045500D03*
X0188000Y0040500D03*
X0188000Y0035500D03*
X0188000Y0030500D03*
X0188000Y0025500D03*
X0188000Y0020500D03*
X0148000Y0020500D03*
X0148000Y0025500D03*
X0148000Y0030500D03*
X0148000Y0035500D03*
X0148000Y0040500D03*
X0148000Y0045500D03*
X0148000Y0050500D03*
X0148000Y0055500D03*
X0134250Y0055500D03*
X0134250Y0050500D03*
X0134250Y0045500D03*
X0134250Y0040500D03*
X0134250Y0035500D03*
X0134250Y0030500D03*
X0134250Y0025500D03*
X0134250Y0020500D03*
X0079250Y0020500D03*
X0079250Y0025500D03*
X0079250Y0030500D03*
X0079250Y0035500D03*
X0079250Y0040500D03*
X0079250Y0045500D03*
X0079250Y0050500D03*
X0079250Y0055500D03*
X0065500Y0055500D03*
X0065500Y0050500D03*
X0065500Y0045500D03*
X0065500Y0040500D03*
X0065500Y0035500D03*
X0065500Y0030500D03*
X0065500Y0025500D03*
X0065500Y0020500D03*
D12*
X0055500Y0010500D03*
X0050500Y0010500D03*
X0045500Y0010500D03*
X0040500Y0010500D03*
X0035500Y0010500D03*
X0030500Y0010500D03*
X0025500Y0010500D03*
X0020500Y0010500D03*
X0020500Y0065500D03*
X0025500Y0065500D03*
X0030500Y0065500D03*
X0035500Y0065500D03*
X0040500Y0065500D03*
X0045500Y0065500D03*
X0050500Y0065500D03*
X0055500Y0065500D03*
X0053000Y0093000D03*
X0048000Y0093000D03*
X0043000Y0093000D03*
X0038000Y0093000D03*
X0033000Y0093000D03*
X0028000Y0093000D03*
X0023000Y0093000D03*
X0018000Y0093000D03*
X0058000Y0093000D03*
X0063000Y0093000D03*
X0068000Y0093000D03*
X0073000Y0093000D03*
X0078000Y0093000D03*
X0083000Y0093000D03*
X0088000Y0093000D03*
X0093000Y0093000D03*
X0094250Y0065500D03*
X0099250Y0065500D03*
X0104250Y0065500D03*
X0109250Y0065500D03*
X0114250Y0065500D03*
X0119250Y0065500D03*
X0124250Y0065500D03*
X0150500Y0065500D03*
X0155500Y0065500D03*
X0160500Y0065500D03*
X0165500Y0065500D03*
X0170500Y0065500D03*
X0175500Y0065500D03*
X0180500Y0065500D03*
X0185500Y0065500D03*
X0178000Y0118000D03*
X0173000Y0118000D03*
X0168000Y0118000D03*
X0163000Y0118000D03*
X0158000Y0118000D03*
X0153000Y0118000D03*
X0148000Y0118000D03*
X0143000Y0118000D03*
X0138000Y0118000D03*
X0133000Y0118000D03*
X0128000Y0118000D03*
X0089250Y0065500D03*
X0089250Y0010500D03*
X0094250Y0010500D03*
X0099250Y0010500D03*
X0104250Y0010500D03*
X0109250Y0010500D03*
X0114250Y0010500D03*
X0119250Y0010500D03*
X0124250Y0010500D03*
X0150500Y0010500D03*
X0155500Y0010500D03*
X0160500Y0010500D03*
X0165500Y0010500D03*
X0170500Y0010500D03*
X0175500Y0010500D03*
X0180500Y0010500D03*
X0185500Y0010500D03*
X0178000Y0188000D03*
X0173000Y0188000D03*
X0168000Y0188000D03*
X0163000Y0188000D03*
X0158000Y0188000D03*
X0153000Y0188000D03*
X0148000Y0188000D03*
X0143000Y0188000D03*
X0138000Y0188000D03*
X0133000Y0188000D03*
X0128000Y0188000D03*
X0093000Y0188000D03*
X0088000Y0188000D03*
X0083000Y0188000D03*
X0078000Y0188000D03*
X0073000Y0188000D03*
X0068000Y0188000D03*
X0063000Y0188000D03*
X0058000Y0188000D03*
X0053000Y0188000D03*
X0048000Y0188000D03*
X0043000Y0188000D03*
X0038000Y0188000D03*
X0033000Y0188000D03*
X0028000Y0188000D03*
X0023000Y0188000D03*
X0018000Y0188000D03*
D13*
X0021100Y0049024D03*
X0021100Y0045874D03*
X0021100Y0042724D03*
X0021100Y0039575D03*
X0021100Y0036425D03*
X0021100Y0033276D03*
X0021100Y0030126D03*
X0021100Y0026976D03*
X0054900Y0026976D03*
X0054900Y0030126D03*
X0054900Y0033276D03*
X0054900Y0036425D03*
X0054900Y0039575D03*
X0054900Y0042724D03*
X0054900Y0045874D03*
X0054900Y0049024D03*
X0089850Y0049024D03*
X0089850Y0045874D03*
X0089850Y0042724D03*
X0089850Y0039575D03*
X0089850Y0036425D03*
X0089850Y0033276D03*
X0089850Y0030126D03*
X0089850Y0026976D03*
X0123650Y0026976D03*
X0123650Y0030126D03*
X0123650Y0033276D03*
X0123650Y0036425D03*
X0123650Y0039575D03*
X0123650Y0042724D03*
X0123650Y0045874D03*
X0123650Y0049024D03*
D14*
X0117774Y0054900D03*
X0114624Y0054900D03*
X0111474Y0054900D03*
X0108325Y0054900D03*
X0105175Y0054900D03*
X0102026Y0054900D03*
X0098876Y0054900D03*
X0095726Y0054900D03*
X0095726Y0021100D03*
X0098876Y0021100D03*
X0102026Y0021100D03*
X0105175Y0021100D03*
X0108325Y0021100D03*
X0111474Y0021100D03*
X0114624Y0021100D03*
X0117774Y0021100D03*
X0049024Y0021100D03*
X0045874Y0021100D03*
X0042724Y0021100D03*
X0039575Y0021100D03*
X0036425Y0021100D03*
X0033276Y0021100D03*
X0030126Y0021100D03*
X0026976Y0021100D03*
X0026976Y0054900D03*
X0030126Y0054900D03*
X0033276Y0054900D03*
X0036425Y0054900D03*
X0039575Y0054900D03*
X0042724Y0054900D03*
X0045874Y0054900D03*
X0049024Y0054900D03*
D15*
X0130165Y0137252D03*
X0130165Y0140402D03*
X0130165Y0143551D03*
X0130165Y0146701D03*
X0130165Y0149850D03*
X0130165Y0153000D03*
X0130165Y0156150D03*
X0130165Y0159299D03*
X0130165Y0162449D03*
X0130165Y0165598D03*
X0130165Y0168748D03*
X0175835Y0168748D03*
X0175835Y0165598D03*
X0175835Y0162449D03*
X0175835Y0159299D03*
X0175835Y0156150D03*
X0175835Y0153000D03*
X0175835Y0149850D03*
X0175835Y0146701D03*
X0175835Y0143551D03*
X0175835Y0140402D03*
X0175835Y0137252D03*
D16*
X0168748Y0130165D03*
X0165598Y0130165D03*
X0162449Y0130165D03*
X0159299Y0130165D03*
X0156150Y0130165D03*
X0153000Y0130165D03*
X0149850Y0130165D03*
X0146701Y0130165D03*
X0143551Y0130165D03*
X0140402Y0130165D03*
X0137252Y0130165D03*
X0137252Y0175835D03*
X0140402Y0175835D03*
X0143551Y0175835D03*
X0146701Y0175835D03*
X0149850Y0175835D03*
X0153000Y0175835D03*
X0156150Y0175835D03*
X0159299Y0175835D03*
X0162449Y0175835D03*
X0165598Y0175835D03*
X0168748Y0175835D03*
D17*
X0079122Y0171209D03*
X0075972Y0171209D03*
X0072823Y0171209D03*
X0069673Y0171209D03*
X0066524Y0171209D03*
X0063374Y0171209D03*
X0060224Y0171209D03*
X0057075Y0171209D03*
X0053925Y0171209D03*
X0050776Y0171209D03*
X0047626Y0171209D03*
X0044476Y0171209D03*
X0041327Y0171209D03*
X0038177Y0171209D03*
X0035028Y0171209D03*
X0031878Y0171209D03*
X0031878Y0109791D03*
X0035028Y0109791D03*
X0038177Y0109791D03*
X0041327Y0109791D03*
X0044476Y0109791D03*
X0047626Y0109791D03*
X0050776Y0109791D03*
X0053925Y0109791D03*
X0057075Y0109791D03*
X0060224Y0109791D03*
X0063374Y0109791D03*
X0066524Y0109791D03*
X0069673Y0109791D03*
X0072823Y0109791D03*
X0075972Y0109791D03*
X0079122Y0109791D03*
D18*
X0086209Y0116878D03*
X0086209Y0120028D03*
X0086209Y0123177D03*
X0086209Y0126327D03*
X0086209Y0129476D03*
X0086209Y0132626D03*
X0086209Y0135776D03*
X0086209Y0138925D03*
X0086209Y0142075D03*
X0086209Y0145224D03*
X0086209Y0148374D03*
X0086209Y0151524D03*
X0086209Y0154673D03*
X0086209Y0157823D03*
X0086209Y0160972D03*
X0086209Y0164122D03*
X0024791Y0164122D03*
X0024791Y0160972D03*
X0024791Y0157823D03*
X0024791Y0154673D03*
X0024791Y0151524D03*
X0024791Y0148374D03*
X0024791Y0145224D03*
X0024791Y0142075D03*
X0024791Y0138925D03*
X0024791Y0135776D03*
X0024791Y0132626D03*
X0024791Y0129476D03*
X0024791Y0126327D03*
X0024791Y0123177D03*
X0024791Y0120028D03*
X0024791Y0116878D03*
D19*
X0157665Y0044595D02*
X0159831Y0044595D01*
X0157665Y0044595D02*
X0157665Y0045185D01*
X0159831Y0045185D01*
X0159831Y0044595D01*
X0159831Y0045185D02*
X0157665Y0045185D01*
X0157665Y0042626D02*
X0159831Y0042626D01*
X0157665Y0042626D02*
X0157665Y0043216D01*
X0159831Y0043216D01*
X0159831Y0042626D01*
X0159831Y0043216D02*
X0157665Y0043216D01*
X0157665Y0040658D02*
X0159831Y0040658D01*
X0157665Y0040658D02*
X0157665Y0041248D01*
X0159831Y0041248D01*
X0159831Y0040658D01*
X0159831Y0041248D02*
X0157665Y0041248D01*
X0157665Y0038689D02*
X0159831Y0038689D01*
X0157665Y0038689D02*
X0157665Y0039279D01*
X0159831Y0039279D01*
X0159831Y0038689D01*
X0159831Y0039279D02*
X0157665Y0039279D01*
X0157665Y0036721D02*
X0159831Y0036721D01*
X0157665Y0036721D02*
X0157665Y0037311D01*
X0159831Y0037311D01*
X0159831Y0036721D01*
X0159831Y0037311D02*
X0157665Y0037311D01*
X0157665Y0034752D02*
X0159831Y0034752D01*
X0157665Y0034752D02*
X0157665Y0035342D01*
X0159831Y0035342D01*
X0159831Y0034752D01*
X0159831Y0035342D02*
X0157665Y0035342D01*
X0157665Y0032784D02*
X0159831Y0032784D01*
X0157665Y0032784D02*
X0157665Y0033374D01*
X0159831Y0033374D01*
X0159831Y0032784D01*
X0159831Y0033374D02*
X0157665Y0033374D01*
X0157665Y0030815D02*
X0159831Y0030815D01*
X0157665Y0030815D02*
X0157665Y0031405D01*
X0159831Y0031405D01*
X0159831Y0030815D01*
X0159831Y0031405D02*
X0157665Y0031405D01*
X0160815Y0027665D02*
X0161405Y0027665D01*
X0160815Y0027665D02*
X0160815Y0029831D01*
X0161405Y0029831D01*
X0161405Y0027665D01*
X0161405Y0028255D02*
X0160815Y0028255D01*
X0160815Y0028845D02*
X0161405Y0028845D01*
X0161405Y0029435D02*
X0160815Y0029435D01*
X0162784Y0027665D02*
X0163374Y0027665D01*
X0162784Y0027665D02*
X0162784Y0029831D01*
X0163374Y0029831D01*
X0163374Y0027665D01*
X0163374Y0028255D02*
X0162784Y0028255D01*
X0162784Y0028845D02*
X0163374Y0028845D01*
X0163374Y0029435D02*
X0162784Y0029435D01*
X0164752Y0027665D02*
X0165342Y0027665D01*
X0164752Y0027665D02*
X0164752Y0029831D01*
X0165342Y0029831D01*
X0165342Y0027665D01*
X0165342Y0028255D02*
X0164752Y0028255D01*
X0164752Y0028845D02*
X0165342Y0028845D01*
X0165342Y0029435D02*
X0164752Y0029435D01*
X0166721Y0027665D02*
X0167311Y0027665D01*
X0166721Y0027665D02*
X0166721Y0029831D01*
X0167311Y0029831D01*
X0167311Y0027665D01*
X0167311Y0028255D02*
X0166721Y0028255D01*
X0166721Y0028845D02*
X0167311Y0028845D01*
X0167311Y0029435D02*
X0166721Y0029435D01*
X0168689Y0027665D02*
X0169279Y0027665D01*
X0168689Y0027665D02*
X0168689Y0029831D01*
X0169279Y0029831D01*
X0169279Y0027665D01*
X0169279Y0028255D02*
X0168689Y0028255D01*
X0168689Y0028845D02*
X0169279Y0028845D01*
X0169279Y0029435D02*
X0168689Y0029435D01*
X0170658Y0027665D02*
X0171248Y0027665D01*
X0170658Y0027665D02*
X0170658Y0029831D01*
X0171248Y0029831D01*
X0171248Y0027665D01*
X0171248Y0028255D02*
X0170658Y0028255D01*
X0170658Y0028845D02*
X0171248Y0028845D01*
X0171248Y0029435D02*
X0170658Y0029435D01*
X0172626Y0027665D02*
X0173216Y0027665D01*
X0172626Y0027665D02*
X0172626Y0029831D01*
X0173216Y0029831D01*
X0173216Y0027665D01*
X0173216Y0028255D02*
X0172626Y0028255D01*
X0172626Y0028845D02*
X0173216Y0028845D01*
X0173216Y0029435D02*
X0172626Y0029435D01*
X0174595Y0027665D02*
X0175185Y0027665D01*
X0174595Y0027665D02*
X0174595Y0029831D01*
X0175185Y0029831D01*
X0175185Y0027665D01*
X0175185Y0028255D02*
X0174595Y0028255D01*
X0174595Y0028845D02*
X0175185Y0028845D01*
X0175185Y0029435D02*
X0174595Y0029435D01*
X0176169Y0030815D02*
X0178335Y0030815D01*
X0176169Y0030815D02*
X0176169Y0031405D01*
X0178335Y0031405D01*
X0178335Y0030815D01*
X0178335Y0031405D02*
X0176169Y0031405D01*
X0176169Y0032784D02*
X0178335Y0032784D01*
X0176169Y0032784D02*
X0176169Y0033374D01*
X0178335Y0033374D01*
X0178335Y0032784D01*
X0178335Y0033374D02*
X0176169Y0033374D01*
X0176169Y0034752D02*
X0178335Y0034752D01*
X0176169Y0034752D02*
X0176169Y0035342D01*
X0178335Y0035342D01*
X0178335Y0034752D01*
X0178335Y0035342D02*
X0176169Y0035342D01*
X0176169Y0036721D02*
X0178335Y0036721D01*
X0176169Y0036721D02*
X0176169Y0037311D01*
X0178335Y0037311D01*
X0178335Y0036721D01*
X0178335Y0037311D02*
X0176169Y0037311D01*
X0176169Y0038689D02*
X0178335Y0038689D01*
X0176169Y0038689D02*
X0176169Y0039279D01*
X0178335Y0039279D01*
X0178335Y0038689D01*
X0178335Y0039279D02*
X0176169Y0039279D01*
X0176169Y0040658D02*
X0178335Y0040658D01*
X0176169Y0040658D02*
X0176169Y0041248D01*
X0178335Y0041248D01*
X0178335Y0040658D01*
X0178335Y0041248D02*
X0176169Y0041248D01*
X0176169Y0042626D02*
X0178335Y0042626D01*
X0176169Y0042626D02*
X0176169Y0043216D01*
X0178335Y0043216D01*
X0178335Y0042626D01*
X0178335Y0043216D02*
X0176169Y0043216D01*
X0176169Y0044595D02*
X0178335Y0044595D01*
X0176169Y0044595D02*
X0176169Y0045185D01*
X0178335Y0045185D01*
X0178335Y0044595D01*
X0178335Y0045185D02*
X0176169Y0045185D01*
X0175185Y0046169D02*
X0174595Y0046169D01*
X0174595Y0048335D01*
X0175185Y0048335D01*
X0175185Y0046169D01*
X0175185Y0046759D02*
X0174595Y0046759D01*
X0174595Y0047349D02*
X0175185Y0047349D01*
X0175185Y0047939D02*
X0174595Y0047939D01*
X0173216Y0046169D02*
X0172626Y0046169D01*
X0172626Y0048335D01*
X0173216Y0048335D01*
X0173216Y0046169D01*
X0173216Y0046759D02*
X0172626Y0046759D01*
X0172626Y0047349D02*
X0173216Y0047349D01*
X0173216Y0047939D02*
X0172626Y0047939D01*
X0171248Y0046169D02*
X0170658Y0046169D01*
X0170658Y0048335D01*
X0171248Y0048335D01*
X0171248Y0046169D01*
X0171248Y0046759D02*
X0170658Y0046759D01*
X0170658Y0047349D02*
X0171248Y0047349D01*
X0171248Y0047939D02*
X0170658Y0047939D01*
X0169279Y0046169D02*
X0168689Y0046169D01*
X0168689Y0048335D01*
X0169279Y0048335D01*
X0169279Y0046169D01*
X0169279Y0046759D02*
X0168689Y0046759D01*
X0168689Y0047349D02*
X0169279Y0047349D01*
X0169279Y0047939D02*
X0168689Y0047939D01*
X0167311Y0046169D02*
X0166721Y0046169D01*
X0166721Y0048335D01*
X0167311Y0048335D01*
X0167311Y0046169D01*
X0167311Y0046759D02*
X0166721Y0046759D01*
X0166721Y0047349D02*
X0167311Y0047349D01*
X0167311Y0047939D02*
X0166721Y0047939D01*
X0165342Y0046169D02*
X0164752Y0046169D01*
X0164752Y0048335D01*
X0165342Y0048335D01*
X0165342Y0046169D01*
X0165342Y0046759D02*
X0164752Y0046759D01*
X0164752Y0047349D02*
X0165342Y0047349D01*
X0165342Y0047939D02*
X0164752Y0047939D01*
X0163374Y0046169D02*
X0162784Y0046169D01*
X0162784Y0048335D01*
X0163374Y0048335D01*
X0163374Y0046169D01*
X0163374Y0046759D02*
X0162784Y0046759D01*
X0162784Y0047349D02*
X0163374Y0047349D01*
X0163374Y0047939D02*
X0162784Y0047939D01*
X0161405Y0046169D02*
X0160815Y0046169D01*
X0160815Y0048335D01*
X0161405Y0048335D01*
X0161405Y0046169D01*
X0161405Y0046759D02*
X0160815Y0046759D01*
X0160815Y0047349D02*
X0161405Y0047349D01*
X0161405Y0047939D02*
X0160815Y0047939D01*
D20*
X0168000Y0038000D03*
D21*
X0169250Y0078764D03*
X0164250Y0078764D03*
X0159250Y0078764D03*
X0154250Y0078764D03*
X0148500Y0078764D03*
X0143500Y0078764D03*
X0138500Y0078764D03*
X0133500Y0078764D03*
X0133500Y0099236D03*
X0138500Y0099236D03*
X0143500Y0099236D03*
X0148500Y0099236D03*
X0154250Y0099236D03*
X0159250Y0099236D03*
X0164250Y0099236D03*
X0169250Y0099236D03*
D22*
X0176750Y0100953D03*
X0176750Y0095047D03*
X0176750Y0082953D03*
X0176750Y0077047D03*
X0126000Y0077047D03*
X0126000Y0082953D03*
X0126000Y0095047D03*
X0126000Y0100953D03*
M02*
