G75*
%MOIN*%
%OFA0B0*%
%FSLAX25Y25*%
%IPPOS*%
%LPD*%
%AMOC8*
5,1,8,0,0,1.08239X$1,22.5*
%
%ADD10C,0.00000*%
%ADD11R,0.10000X0.04000*%
%ADD12R,0.04000X0.10000*%
%ADD13R,0.05000X0.02200*%
%ADD14R,0.02200X0.05000*%
%ADD15R,0.05906X0.01969*%
%ADD16R,0.01969X0.05906*%
%ADD17R,0.02200X0.04700*%
%ADD18R,0.04700X0.02200*%
%ADD19C,0.00591*%
%ADD20R,0.12598X0.12598*%
%ADD21R,0.02362X0.08661*%
%ADD22R,0.03543X0.02362*%
%ADD23R,0.08000X0.08000*%
%ADD24C,0.08000*%
%ADD25C,0.00600*%
%ADD26R,0.03562X0.03562*%
%ADD27C,0.01600*%
D10*
X0001000Y0001000D02*
X0001000Y0196850D01*
X0196850Y0196850D01*
X0196850Y0001000D01*
X0001000Y0001000D01*
D11*
X0010500Y0020500D03*
X0010500Y0025500D03*
X0010500Y0030500D03*
X0010500Y0035500D03*
X0010500Y0040500D03*
X0010500Y0045500D03*
X0010500Y0050500D03*
X0010500Y0055500D03*
X0009250Y0103000D03*
X0009250Y0108000D03*
X0009250Y0113000D03*
X0009250Y0118000D03*
X0009250Y0123000D03*
X0009250Y0128000D03*
X0009250Y0133000D03*
X0009250Y0138000D03*
X0009250Y0143000D03*
X0009250Y0148000D03*
X0009250Y0153000D03*
X0009250Y0158000D03*
X0009250Y0163000D03*
X0009250Y0168000D03*
X0009250Y0173000D03*
X0009250Y0178000D03*
X0101750Y0178000D03*
X0101750Y0173000D03*
X0101750Y0168000D03*
X0101750Y0163000D03*
X0101750Y0158000D03*
X0101750Y0153000D03*
X0101750Y0148000D03*
X0101750Y0143000D03*
X0101750Y0138000D03*
X0101750Y0133000D03*
X0101750Y0128000D03*
X0101750Y0123000D03*
X0101750Y0118000D03*
X0101750Y0113000D03*
X0101750Y0108000D03*
X0101750Y0103000D03*
X0118000Y0128000D03*
X0118000Y0133000D03*
X0118000Y0138000D03*
X0118000Y0143000D03*
X0118000Y0148000D03*
X0118000Y0153000D03*
X0118000Y0158000D03*
X0118000Y0163000D03*
X0118000Y0168000D03*
X0118000Y0173000D03*
X0118000Y0178000D03*
X0188000Y0178000D03*
X0188000Y0173000D03*
X0188000Y0168000D03*
X0188000Y0163000D03*
X0188000Y0158000D03*
X0188000Y0153000D03*
X0188000Y0148000D03*
X0188000Y0143000D03*
X0188000Y0138000D03*
X0188000Y0133000D03*
X0188000Y0128000D03*
X0188000Y0055500D03*
X0188000Y0050500D03*
X0188000Y0045500D03*
X0188000Y0040500D03*
X0188000Y0035500D03*
X0188000Y0030500D03*
X0188000Y0025500D03*
X0188000Y0020500D03*
X0148000Y0020500D03*
X0148000Y0025500D03*
X0148000Y0030500D03*
X0148000Y0035500D03*
X0148000Y0040500D03*
X0148000Y0045500D03*
X0148000Y0050500D03*
X0148000Y0055500D03*
X0134250Y0055500D03*
X0134250Y0050500D03*
X0134250Y0045500D03*
X0134250Y0040500D03*
X0134250Y0035500D03*
X0134250Y0030500D03*
X0134250Y0025500D03*
X0134250Y0020500D03*
X0079250Y0020500D03*
X0079250Y0025500D03*
X0079250Y0030500D03*
X0079250Y0035500D03*
X0079250Y0040500D03*
X0079250Y0045500D03*
X0079250Y0050500D03*
X0079250Y0055500D03*
X0065500Y0055500D03*
X0065500Y0050500D03*
X0065500Y0045500D03*
X0065500Y0040500D03*
X0065500Y0035500D03*
X0065500Y0030500D03*
X0065500Y0025500D03*
X0065500Y0020500D03*
D12*
X0055500Y0010500D03*
X0050500Y0010500D03*
X0045500Y0010500D03*
X0040500Y0010500D03*
X0035500Y0010500D03*
X0030500Y0010500D03*
X0025500Y0010500D03*
X0020500Y0010500D03*
X0020500Y0065500D03*
X0025500Y0065500D03*
X0030500Y0065500D03*
X0035500Y0065500D03*
X0040500Y0065500D03*
X0045500Y0065500D03*
X0050500Y0065500D03*
X0055500Y0065500D03*
X0053000Y0093000D03*
X0048000Y0093000D03*
X0043000Y0093000D03*
X0038000Y0093000D03*
X0033000Y0093000D03*
X0028000Y0093000D03*
X0023000Y0093000D03*
X0018000Y0093000D03*
X0058000Y0093000D03*
X0063000Y0093000D03*
X0068000Y0093000D03*
X0073000Y0093000D03*
X0078000Y0093000D03*
X0083000Y0093000D03*
X0088000Y0093000D03*
X0093000Y0093000D03*
X0094250Y0065500D03*
X0099250Y0065500D03*
X0104250Y0065500D03*
X0109250Y0065500D03*
X0114250Y0065500D03*
X0119250Y0065500D03*
X0124250Y0065500D03*
X0150500Y0065500D03*
X0155500Y0065500D03*
X0160500Y0065500D03*
X0165500Y0065500D03*
X0170500Y0065500D03*
X0175500Y0065500D03*
X0180500Y0065500D03*
X0185500Y0065500D03*
X0178000Y0118000D03*
X0173000Y0118000D03*
X0168000Y0118000D03*
X0163000Y0118000D03*
X0158000Y0118000D03*
X0153000Y0118000D03*
X0148000Y0118000D03*
X0143000Y0118000D03*
X0138000Y0118000D03*
X0133000Y0118000D03*
X0128000Y0118000D03*
X0089250Y0065500D03*
X0089250Y0010500D03*
X0094250Y0010500D03*
X0099250Y0010500D03*
X0104250Y0010500D03*
X0109250Y0010500D03*
X0114250Y0010500D03*
X0119250Y0010500D03*
X0124250Y0010500D03*
X0150500Y0010500D03*
X0155500Y0010500D03*
X0160500Y0010500D03*
X0165500Y0010500D03*
X0170500Y0010500D03*
X0175500Y0010500D03*
X0180500Y0010500D03*
X0185500Y0010500D03*
X0178000Y0188000D03*
X0173000Y0188000D03*
X0168000Y0188000D03*
X0163000Y0188000D03*
X0158000Y0188000D03*
X0153000Y0188000D03*
X0148000Y0188000D03*
X0143000Y0188000D03*
X0138000Y0188000D03*
X0133000Y0188000D03*
X0128000Y0188000D03*
X0093000Y0188000D03*
X0088000Y0188000D03*
X0083000Y0188000D03*
X0078000Y0188000D03*
X0073000Y0188000D03*
X0068000Y0188000D03*
X0063000Y0188000D03*
X0058000Y0188000D03*
X0053000Y0188000D03*
X0048000Y0188000D03*
X0043000Y0188000D03*
X0038000Y0188000D03*
X0033000Y0188000D03*
X0028000Y0188000D03*
X0023000Y0188000D03*
X0018000Y0188000D03*
D13*
X0021100Y0049024D03*
X0021100Y0045874D03*
X0021100Y0042724D03*
X0021100Y0039575D03*
X0021100Y0036425D03*
X0021100Y0033276D03*
X0021100Y0030126D03*
X0021100Y0026976D03*
X0054900Y0026976D03*
X0054900Y0030126D03*
X0054900Y0033276D03*
X0054900Y0036425D03*
X0054900Y0039575D03*
X0054900Y0042724D03*
X0054900Y0045874D03*
X0054900Y0049024D03*
X0089850Y0049024D03*
X0089850Y0045874D03*
X0089850Y0042724D03*
X0089850Y0039575D03*
X0089850Y0036425D03*
X0089850Y0033276D03*
X0089850Y0030126D03*
X0089850Y0026976D03*
X0123650Y0026976D03*
X0123650Y0030126D03*
X0123650Y0033276D03*
X0123650Y0036425D03*
X0123650Y0039575D03*
X0123650Y0042724D03*
X0123650Y0045874D03*
X0123650Y0049024D03*
D14*
X0117774Y0054900D03*
X0114624Y0054900D03*
X0111474Y0054900D03*
X0108325Y0054900D03*
X0105175Y0054900D03*
X0102026Y0054900D03*
X0098876Y0054900D03*
X0095726Y0054900D03*
X0095726Y0021100D03*
X0098876Y0021100D03*
X0102026Y0021100D03*
X0105175Y0021100D03*
X0108325Y0021100D03*
X0111474Y0021100D03*
X0114624Y0021100D03*
X0117774Y0021100D03*
X0049024Y0021100D03*
X0045874Y0021100D03*
X0042724Y0021100D03*
X0039575Y0021100D03*
X0036425Y0021100D03*
X0033276Y0021100D03*
X0030126Y0021100D03*
X0026976Y0021100D03*
X0026976Y0054900D03*
X0030126Y0054900D03*
X0033276Y0054900D03*
X0036425Y0054900D03*
X0039575Y0054900D03*
X0042724Y0054900D03*
X0045874Y0054900D03*
X0049024Y0054900D03*
D15*
X0130165Y0137252D03*
X0130165Y0140402D03*
X0130165Y0143551D03*
X0130165Y0146701D03*
X0130165Y0149850D03*
X0130165Y0153000D03*
X0130165Y0156150D03*
X0130165Y0159299D03*
X0130165Y0162449D03*
X0130165Y0165598D03*
X0130165Y0168748D03*
X0175835Y0168748D03*
X0175835Y0165598D03*
X0175835Y0162449D03*
X0175835Y0159299D03*
X0175835Y0156150D03*
X0175835Y0153000D03*
X0175835Y0149850D03*
X0175835Y0146701D03*
X0175835Y0143551D03*
X0175835Y0140402D03*
X0175835Y0137252D03*
D16*
X0168748Y0130165D03*
X0165598Y0130165D03*
X0162449Y0130165D03*
X0159299Y0130165D03*
X0156150Y0130165D03*
X0153000Y0130165D03*
X0149850Y0130165D03*
X0146701Y0130165D03*
X0143551Y0130165D03*
X0140402Y0130165D03*
X0137252Y0130165D03*
X0137252Y0175835D03*
X0140402Y0175835D03*
X0143551Y0175835D03*
X0146701Y0175835D03*
X0149850Y0175835D03*
X0153000Y0175835D03*
X0156150Y0175835D03*
X0159299Y0175835D03*
X0162449Y0175835D03*
X0165598Y0175835D03*
X0168748Y0175835D03*
D17*
X0079122Y0171209D03*
X0075972Y0171209D03*
X0072823Y0171209D03*
X0069673Y0171209D03*
X0066524Y0171209D03*
X0063374Y0171209D03*
X0060224Y0171209D03*
X0057075Y0171209D03*
X0053925Y0171209D03*
X0050776Y0171209D03*
X0047626Y0171209D03*
X0044476Y0171209D03*
X0041327Y0171209D03*
X0038177Y0171209D03*
X0035028Y0171209D03*
X0031878Y0171209D03*
X0031878Y0109791D03*
X0035028Y0109791D03*
X0038177Y0109791D03*
X0041327Y0109791D03*
X0044476Y0109791D03*
X0047626Y0109791D03*
X0050776Y0109791D03*
X0053925Y0109791D03*
X0057075Y0109791D03*
X0060224Y0109791D03*
X0063374Y0109791D03*
X0066524Y0109791D03*
X0069673Y0109791D03*
X0072823Y0109791D03*
X0075972Y0109791D03*
X0079122Y0109791D03*
D18*
X0086209Y0116878D03*
X0086209Y0120028D03*
X0086209Y0123177D03*
X0086209Y0126327D03*
X0086209Y0129476D03*
X0086209Y0132626D03*
X0086209Y0135776D03*
X0086209Y0138925D03*
X0086209Y0142075D03*
X0086209Y0145224D03*
X0086209Y0148374D03*
X0086209Y0151524D03*
X0086209Y0154673D03*
X0086209Y0157823D03*
X0086209Y0160972D03*
X0086209Y0164122D03*
X0024791Y0164122D03*
X0024791Y0160972D03*
X0024791Y0157823D03*
X0024791Y0154673D03*
X0024791Y0151524D03*
X0024791Y0148374D03*
X0024791Y0145224D03*
X0024791Y0142075D03*
X0024791Y0138925D03*
X0024791Y0135776D03*
X0024791Y0132626D03*
X0024791Y0129476D03*
X0024791Y0126327D03*
X0024791Y0123177D03*
X0024791Y0120028D03*
X0024791Y0116878D03*
D19*
X0157665Y0044595D02*
X0159831Y0044595D01*
X0157665Y0044595D02*
X0157665Y0045185D01*
X0159831Y0045185D01*
X0159831Y0044595D01*
X0159831Y0045185D02*
X0157665Y0045185D01*
X0157665Y0042626D02*
X0159831Y0042626D01*
X0157665Y0042626D02*
X0157665Y0043216D01*
X0159831Y0043216D01*
X0159831Y0042626D01*
X0159831Y0043216D02*
X0157665Y0043216D01*
X0157665Y0040658D02*
X0159831Y0040658D01*
X0157665Y0040658D02*
X0157665Y0041248D01*
X0159831Y0041248D01*
X0159831Y0040658D01*
X0159831Y0041248D02*
X0157665Y0041248D01*
X0157665Y0038689D02*
X0159831Y0038689D01*
X0157665Y0038689D02*
X0157665Y0039279D01*
X0159831Y0039279D01*
X0159831Y0038689D01*
X0159831Y0039279D02*
X0157665Y0039279D01*
X0157665Y0036721D02*
X0159831Y0036721D01*
X0157665Y0036721D02*
X0157665Y0037311D01*
X0159831Y0037311D01*
X0159831Y0036721D01*
X0159831Y0037311D02*
X0157665Y0037311D01*
X0157665Y0034752D02*
X0159831Y0034752D01*
X0157665Y0034752D02*
X0157665Y0035342D01*
X0159831Y0035342D01*
X0159831Y0034752D01*
X0159831Y0035342D02*
X0157665Y0035342D01*
X0157665Y0032784D02*
X0159831Y0032784D01*
X0157665Y0032784D02*
X0157665Y0033374D01*
X0159831Y0033374D01*
X0159831Y0032784D01*
X0159831Y0033374D02*
X0157665Y0033374D01*
X0157665Y0030815D02*
X0159831Y0030815D01*
X0157665Y0030815D02*
X0157665Y0031405D01*
X0159831Y0031405D01*
X0159831Y0030815D01*
X0159831Y0031405D02*
X0157665Y0031405D01*
X0160815Y0027665D02*
X0161405Y0027665D01*
X0160815Y0027665D02*
X0160815Y0029831D01*
X0161405Y0029831D01*
X0161405Y0027665D01*
X0161405Y0028255D02*
X0160815Y0028255D01*
X0160815Y0028845D02*
X0161405Y0028845D01*
X0161405Y0029435D02*
X0160815Y0029435D01*
X0162784Y0027665D02*
X0163374Y0027665D01*
X0162784Y0027665D02*
X0162784Y0029831D01*
X0163374Y0029831D01*
X0163374Y0027665D01*
X0163374Y0028255D02*
X0162784Y0028255D01*
X0162784Y0028845D02*
X0163374Y0028845D01*
X0163374Y0029435D02*
X0162784Y0029435D01*
X0164752Y0027665D02*
X0165342Y0027665D01*
X0164752Y0027665D02*
X0164752Y0029831D01*
X0165342Y0029831D01*
X0165342Y0027665D01*
X0165342Y0028255D02*
X0164752Y0028255D01*
X0164752Y0028845D02*
X0165342Y0028845D01*
X0165342Y0029435D02*
X0164752Y0029435D01*
X0166721Y0027665D02*
X0167311Y0027665D01*
X0166721Y0027665D02*
X0166721Y0029831D01*
X0167311Y0029831D01*
X0167311Y0027665D01*
X0167311Y0028255D02*
X0166721Y0028255D01*
X0166721Y0028845D02*
X0167311Y0028845D01*
X0167311Y0029435D02*
X0166721Y0029435D01*
X0168689Y0027665D02*
X0169279Y0027665D01*
X0168689Y0027665D02*
X0168689Y0029831D01*
X0169279Y0029831D01*
X0169279Y0027665D01*
X0169279Y0028255D02*
X0168689Y0028255D01*
X0168689Y0028845D02*
X0169279Y0028845D01*
X0169279Y0029435D02*
X0168689Y0029435D01*
X0170658Y0027665D02*
X0171248Y0027665D01*
X0170658Y0027665D02*
X0170658Y0029831D01*
X0171248Y0029831D01*
X0171248Y0027665D01*
X0171248Y0028255D02*
X0170658Y0028255D01*
X0170658Y0028845D02*
X0171248Y0028845D01*
X0171248Y0029435D02*
X0170658Y0029435D01*
X0172626Y0027665D02*
X0173216Y0027665D01*
X0172626Y0027665D02*
X0172626Y0029831D01*
X0173216Y0029831D01*
X0173216Y0027665D01*
X0173216Y0028255D02*
X0172626Y0028255D01*
X0172626Y0028845D02*
X0173216Y0028845D01*
X0173216Y0029435D02*
X0172626Y0029435D01*
X0174595Y0027665D02*
X0175185Y0027665D01*
X0174595Y0027665D02*
X0174595Y0029831D01*
X0175185Y0029831D01*
X0175185Y0027665D01*
X0175185Y0028255D02*
X0174595Y0028255D01*
X0174595Y0028845D02*
X0175185Y0028845D01*
X0175185Y0029435D02*
X0174595Y0029435D01*
X0176169Y0030815D02*
X0178335Y0030815D01*
X0176169Y0030815D02*
X0176169Y0031405D01*
X0178335Y0031405D01*
X0178335Y0030815D01*
X0178335Y0031405D02*
X0176169Y0031405D01*
X0176169Y0032784D02*
X0178335Y0032784D01*
X0176169Y0032784D02*
X0176169Y0033374D01*
X0178335Y0033374D01*
X0178335Y0032784D01*
X0178335Y0033374D02*
X0176169Y0033374D01*
X0176169Y0034752D02*
X0178335Y0034752D01*
X0176169Y0034752D02*
X0176169Y0035342D01*
X0178335Y0035342D01*
X0178335Y0034752D01*
X0178335Y0035342D02*
X0176169Y0035342D01*
X0176169Y0036721D02*
X0178335Y0036721D01*
X0176169Y0036721D02*
X0176169Y0037311D01*
X0178335Y0037311D01*
X0178335Y0036721D01*
X0178335Y0037311D02*
X0176169Y0037311D01*
X0176169Y0038689D02*
X0178335Y0038689D01*
X0176169Y0038689D02*
X0176169Y0039279D01*
X0178335Y0039279D01*
X0178335Y0038689D01*
X0178335Y0039279D02*
X0176169Y0039279D01*
X0176169Y0040658D02*
X0178335Y0040658D01*
X0176169Y0040658D02*
X0176169Y0041248D01*
X0178335Y0041248D01*
X0178335Y0040658D01*
X0178335Y0041248D02*
X0176169Y0041248D01*
X0176169Y0042626D02*
X0178335Y0042626D01*
X0176169Y0042626D02*
X0176169Y0043216D01*
X0178335Y0043216D01*
X0178335Y0042626D01*
X0178335Y0043216D02*
X0176169Y0043216D01*
X0176169Y0044595D02*
X0178335Y0044595D01*
X0176169Y0044595D02*
X0176169Y0045185D01*
X0178335Y0045185D01*
X0178335Y0044595D01*
X0178335Y0045185D02*
X0176169Y0045185D01*
X0175185Y0046169D02*
X0174595Y0046169D01*
X0174595Y0048335D01*
X0175185Y0048335D01*
X0175185Y0046169D01*
X0175185Y0046759D02*
X0174595Y0046759D01*
X0174595Y0047349D02*
X0175185Y0047349D01*
X0175185Y0047939D02*
X0174595Y0047939D01*
X0173216Y0046169D02*
X0172626Y0046169D01*
X0172626Y0048335D01*
X0173216Y0048335D01*
X0173216Y0046169D01*
X0173216Y0046759D02*
X0172626Y0046759D01*
X0172626Y0047349D02*
X0173216Y0047349D01*
X0173216Y0047939D02*
X0172626Y0047939D01*
X0171248Y0046169D02*
X0170658Y0046169D01*
X0170658Y0048335D01*
X0171248Y0048335D01*
X0171248Y0046169D01*
X0171248Y0046759D02*
X0170658Y0046759D01*
X0170658Y0047349D02*
X0171248Y0047349D01*
X0171248Y0047939D02*
X0170658Y0047939D01*
X0169279Y0046169D02*
X0168689Y0046169D01*
X0168689Y0048335D01*
X0169279Y0048335D01*
X0169279Y0046169D01*
X0169279Y0046759D02*
X0168689Y0046759D01*
X0168689Y0047349D02*
X0169279Y0047349D01*
X0169279Y0047939D02*
X0168689Y0047939D01*
X0167311Y0046169D02*
X0166721Y0046169D01*
X0166721Y0048335D01*
X0167311Y0048335D01*
X0167311Y0046169D01*
X0167311Y0046759D02*
X0166721Y0046759D01*
X0166721Y0047349D02*
X0167311Y0047349D01*
X0167311Y0047939D02*
X0166721Y0047939D01*
X0165342Y0046169D02*
X0164752Y0046169D01*
X0164752Y0048335D01*
X0165342Y0048335D01*
X0165342Y0046169D01*
X0165342Y0046759D02*
X0164752Y0046759D01*
X0164752Y0047349D02*
X0165342Y0047349D01*
X0165342Y0047939D02*
X0164752Y0047939D01*
X0163374Y0046169D02*
X0162784Y0046169D01*
X0162784Y0048335D01*
X0163374Y0048335D01*
X0163374Y0046169D01*
X0163374Y0046759D02*
X0162784Y0046759D01*
X0162784Y0047349D02*
X0163374Y0047349D01*
X0163374Y0047939D02*
X0162784Y0047939D01*
X0161405Y0046169D02*
X0160815Y0046169D01*
X0160815Y0048335D01*
X0161405Y0048335D01*
X0161405Y0046169D01*
X0161405Y0046759D02*
X0160815Y0046759D01*
X0160815Y0047349D02*
X0161405Y0047349D01*
X0161405Y0047939D02*
X0160815Y0047939D01*
D20*
X0168000Y0038000D03*
D21*
X0169250Y0078764D03*
X0164250Y0078764D03*
X0159250Y0078764D03*
X0154250Y0078764D03*
X0148500Y0078764D03*
X0143500Y0078764D03*
X0138500Y0078764D03*
X0133500Y0078764D03*
X0133500Y0099236D03*
X0138500Y0099236D03*
X0143500Y0099236D03*
X0148500Y0099236D03*
X0154250Y0099236D03*
X0159250Y0099236D03*
X0164250Y0099236D03*
X0169250Y0099236D03*
D22*
X0176750Y0100953D03*
X0176750Y0095047D03*
X0176750Y0082953D03*
X0176750Y0077047D03*
X0126000Y0077047D03*
X0126000Y0082953D03*
X0126000Y0095047D03*
X0126000Y0100953D03*
D23*
X0113000Y0079000D03*
X0189750Y0099000D03*
D24*
X0189750Y0089000D03*
X0189750Y0079000D03*
X0113000Y0089000D03*
X0113000Y0099000D03*
D25*
X0101750Y0103000D02*
X0096750Y0103000D01*
X0086750Y0113000D01*
X0086750Y0116750D01*
X0086209Y0116878D01*
X0086750Y0119875D02*
X0086209Y0120028D01*
X0086750Y0119875D02*
X0088000Y0119875D01*
X0090750Y0117125D01*
X0090750Y0114000D01*
X0096750Y0108000D01*
X0101750Y0108000D01*
X0101750Y0113000D02*
X0096750Y0112000D01*
X0093750Y0115000D01*
X0093750Y0117250D01*
X0088000Y0123000D01*
X0086750Y0123000D01*
X0086209Y0123177D01*
X0086750Y0126125D02*
X0086209Y0126327D01*
X0086750Y0126125D02*
X0088625Y0126125D01*
X0096750Y0118000D01*
X0101750Y0118000D01*
X0101750Y0123000D02*
X0096750Y0123000D01*
X0090500Y0129250D01*
X0086750Y0129250D01*
X0086209Y0129476D01*
X0086750Y0132375D02*
X0086209Y0132626D01*
X0086750Y0132375D02*
X0092375Y0132375D01*
X0096750Y0128000D01*
X0101750Y0128000D01*
X0101750Y0133000D02*
X0096750Y0133000D01*
X0094250Y0135500D01*
X0086750Y0135500D01*
X0086209Y0135776D01*
X0086750Y0138625D02*
X0086209Y0138925D01*
X0086750Y0138625D02*
X0099875Y0138625D01*
X0101750Y0138000D01*
X0099875Y0142375D02*
X0101750Y0143000D01*
X0099875Y0142375D02*
X0086750Y0142375D01*
X0086209Y0142075D01*
X0086209Y0145224D02*
X0086750Y0145500D01*
X0094250Y0145500D01*
X0096750Y0148000D01*
X0101750Y0148000D01*
X0101750Y0153000D02*
X0096750Y0153000D01*
X0092375Y0148625D01*
X0086750Y0148625D01*
X0086209Y0148374D01*
X0086209Y0151524D02*
X0086750Y0151750D01*
X0090500Y0151750D01*
X0096750Y0158000D01*
X0101750Y0158000D01*
X0101750Y0163000D02*
X0096750Y0163000D01*
X0088625Y0154875D01*
X0086750Y0154875D01*
X0086209Y0154673D01*
X0086209Y0157823D02*
X0086750Y0158000D01*
X0088000Y0158000D01*
X0093250Y0163250D01*
X0093250Y0165000D01*
X0096750Y0168500D01*
X0101750Y0168000D01*
X0101750Y0173000D02*
X0096750Y0173000D01*
X0090750Y0167000D01*
X0090750Y0163875D01*
X0088000Y0161125D01*
X0086750Y0161125D01*
X0086209Y0160972D01*
X0086209Y0164122D02*
X0086750Y0164250D01*
X0086750Y0168000D01*
X0096750Y0178000D01*
X0101750Y0178000D01*
X0093000Y0184250D02*
X0093000Y0188000D01*
X0093000Y0184250D02*
X0080500Y0171750D01*
X0079250Y0171750D01*
X0079122Y0171209D01*
X0076125Y0171750D02*
X0076125Y0173000D01*
X0083875Y0180750D01*
X0085000Y0180750D01*
X0088500Y0184250D01*
X0088000Y0188000D01*
X0083000Y0188000D02*
X0083000Y0184250D01*
X0073000Y0174250D01*
X0073000Y0171750D01*
X0072823Y0171209D01*
X0069875Y0171750D02*
X0069673Y0171209D01*
X0069875Y0171750D02*
X0069875Y0176125D01*
X0078000Y0184250D01*
X0078000Y0188000D01*
X0073000Y0188000D02*
X0073000Y0184250D01*
X0066750Y0178000D01*
X0066750Y0171750D01*
X0066524Y0171209D01*
X0063625Y0171750D02*
X0063374Y0171209D01*
X0063625Y0171750D02*
X0063625Y0179875D01*
X0068000Y0184250D01*
X0068000Y0188000D01*
X0063000Y0188000D02*
X0063000Y0184250D01*
X0060500Y0181750D01*
X0060500Y0171750D01*
X0060224Y0171209D01*
X0057375Y0171750D02*
X0057075Y0171209D01*
X0057375Y0171750D02*
X0057375Y0187375D01*
X0058000Y0188000D01*
X0053625Y0187375D02*
X0053000Y0188000D01*
X0053625Y0187375D02*
X0053625Y0171750D01*
X0053925Y0171209D01*
X0050776Y0171209D02*
X0050500Y0171750D01*
X0050500Y0181750D01*
X0048000Y0184250D01*
X0048000Y0188000D01*
X0043000Y0188000D02*
X0043000Y0184250D01*
X0047375Y0179875D01*
X0047375Y0171750D01*
X0047626Y0171209D01*
X0044476Y0171209D02*
X0044250Y0171750D01*
X0044250Y0178000D01*
X0038000Y0184250D01*
X0038000Y0188000D01*
X0033000Y0188000D02*
X0033000Y0184250D01*
X0041125Y0176125D01*
X0041125Y0171750D01*
X0041327Y0171209D01*
X0038177Y0171209D02*
X0038000Y0171750D01*
X0038000Y0174250D01*
X0028000Y0184250D01*
X0028000Y0188000D01*
X0023000Y0188000D02*
X0022500Y0184250D01*
X0026500Y0180250D01*
X0027625Y0180250D01*
X0034875Y0173000D01*
X0034875Y0171750D01*
X0035028Y0171209D01*
X0031878Y0171209D02*
X0031750Y0171750D01*
X0030500Y0171750D01*
X0018000Y0184250D01*
X0018000Y0188000D01*
X0014250Y0178000D02*
X0009250Y0178000D01*
X0009250Y0173000D02*
X0014250Y0173000D01*
X0020250Y0167000D01*
X0020250Y0163875D01*
X0023000Y0161125D01*
X0024250Y0161125D01*
X0024791Y0160972D01*
X0024791Y0164122D02*
X0024250Y0164250D01*
X0024250Y0168000D01*
X0014250Y0178000D01*
X0014250Y0168500D02*
X0009250Y0168000D01*
X0009250Y0163000D02*
X0014250Y0163000D01*
X0022375Y0154875D01*
X0024250Y0154875D01*
X0024791Y0154673D01*
X0024791Y0157823D02*
X0024250Y0158000D01*
X0023000Y0158000D01*
X0017750Y0163250D01*
X0017750Y0165000D01*
X0014250Y0168500D01*
X0014250Y0158000D02*
X0009250Y0158000D01*
X0009250Y0153000D02*
X0014250Y0153000D01*
X0018625Y0148625D01*
X0024250Y0148625D01*
X0024791Y0148374D01*
X0024250Y0145500D02*
X0024791Y0145224D01*
X0024250Y0145500D02*
X0016750Y0145500D01*
X0014250Y0148000D01*
X0009250Y0148000D01*
X0009250Y0143000D02*
X0011125Y0142375D01*
X0024250Y0142375D01*
X0024791Y0142075D01*
X0024791Y0138925D02*
X0024250Y0138625D01*
X0011125Y0138625D01*
X0009250Y0138000D01*
X0009250Y0133000D02*
X0014250Y0133000D01*
X0016750Y0135500D01*
X0024250Y0135500D01*
X0024791Y0135776D01*
X0024791Y0132626D02*
X0024250Y0132375D01*
X0018625Y0132375D01*
X0014250Y0128000D01*
X0009250Y0128000D01*
X0009250Y0123000D02*
X0014250Y0123000D01*
X0020500Y0129250D01*
X0024250Y0129250D01*
X0024791Y0129476D01*
X0024791Y0126327D02*
X0024250Y0126125D01*
X0022375Y0126125D01*
X0014250Y0118000D01*
X0009250Y0118000D01*
X0009250Y0113000D02*
X0014250Y0112500D01*
X0017750Y0116000D01*
X0017750Y0117750D01*
X0023000Y0123000D01*
X0024250Y0123000D01*
X0024791Y0123177D01*
X0024791Y0120028D02*
X0024250Y0119875D01*
X0023000Y0119875D01*
X0020250Y0117125D01*
X0020250Y0113500D01*
X0014250Y0107500D01*
X0009250Y0108000D01*
X0009250Y0103000D02*
X0014250Y0102500D01*
X0024250Y0112500D01*
X0024250Y0116750D01*
X0024791Y0116878D01*
X0030500Y0109250D02*
X0018000Y0096750D01*
X0018000Y0093000D01*
X0023000Y0093000D02*
X0022500Y0096750D01*
X0026500Y0100750D01*
X0027625Y0100750D01*
X0034875Y0108000D01*
X0034875Y0109250D01*
X0035028Y0109791D01*
X0031878Y0109791D02*
X0031750Y0109250D01*
X0030500Y0109250D01*
X0038000Y0109250D02*
X0038000Y0106750D01*
X0028000Y0096750D01*
X0028000Y0093000D01*
X0033000Y0093000D02*
X0033000Y0096750D01*
X0041125Y0104875D01*
X0041125Y0109250D01*
X0041327Y0109791D01*
X0038177Y0109791D02*
X0038000Y0109250D01*
X0044250Y0109250D02*
X0044250Y0103000D01*
X0038000Y0096750D01*
X0038000Y0093000D01*
X0043000Y0093000D02*
X0043000Y0096750D01*
X0047375Y0101125D01*
X0047375Y0109250D01*
X0047626Y0109791D01*
X0044476Y0109791D02*
X0044250Y0109250D01*
X0050500Y0109250D02*
X0050776Y0109791D01*
X0050500Y0109250D02*
X0050500Y0099250D01*
X0048000Y0096750D01*
X0048000Y0093000D01*
X0053000Y0093000D02*
X0053625Y0093625D01*
X0053625Y0109250D01*
X0053925Y0109791D01*
X0057075Y0109791D02*
X0057375Y0109250D01*
X0057375Y0093625D01*
X0058000Y0093000D01*
X0063000Y0093000D02*
X0063000Y0096750D01*
X0060500Y0099250D01*
X0060500Y0109250D01*
X0060224Y0109791D01*
X0063374Y0109791D02*
X0063625Y0109250D01*
X0063625Y0101125D01*
X0068000Y0096750D01*
X0068000Y0093000D01*
X0073000Y0093000D02*
X0073000Y0096750D01*
X0066750Y0103000D01*
X0066750Y0109250D01*
X0066524Y0109791D01*
X0069673Y0109791D02*
X0069875Y0109250D01*
X0069875Y0104875D01*
X0078000Y0096750D01*
X0078000Y0093000D01*
X0083000Y0093000D02*
X0083000Y0096750D01*
X0073000Y0106750D01*
X0073000Y0109250D01*
X0072823Y0109791D01*
X0075972Y0109791D02*
X0076125Y0109250D01*
X0076125Y0108000D01*
X0084875Y0099250D01*
X0085500Y0099250D01*
X0088000Y0096750D01*
X0088000Y0093000D01*
X0093000Y0093000D02*
X0093000Y0096750D01*
X0080500Y0109250D01*
X0079250Y0109250D01*
X0079122Y0109791D01*
X0118000Y0128000D02*
X0121750Y0128000D01*
X0124250Y0130500D01*
X0124250Y0131125D01*
X0129875Y0136750D01*
X0130165Y0137252D01*
X0129875Y0139875D02*
X0127375Y0139875D01*
X0124250Y0136750D01*
X0124250Y0135500D01*
X0121750Y0133000D01*
X0118000Y0133000D01*
X0118000Y0138000D02*
X0121750Y0138000D01*
X0126750Y0143000D01*
X0129875Y0143000D01*
X0130165Y0143551D01*
X0129875Y0146125D02*
X0130165Y0146701D01*
X0129875Y0146125D02*
X0124875Y0146125D01*
X0121750Y0143000D01*
X0118000Y0143000D01*
X0118000Y0148000D02*
X0119250Y0149250D01*
X0129875Y0149250D01*
X0130165Y0149850D01*
X0130165Y0153000D02*
X0118000Y0153000D01*
X0119250Y0156750D02*
X0118000Y0158000D01*
X0119250Y0156750D02*
X0129875Y0156750D01*
X0130165Y0156150D01*
X0130165Y0159299D02*
X0129875Y0159875D01*
X0124875Y0159875D01*
X0121750Y0163000D01*
X0118000Y0163000D01*
X0118000Y0168000D02*
X0121750Y0168000D01*
X0126750Y0163000D01*
X0129875Y0163000D01*
X0130165Y0162449D01*
X0130165Y0165598D02*
X0129875Y0166125D01*
X0127375Y0166125D01*
X0124250Y0169250D01*
X0124250Y0170500D01*
X0121750Y0173000D01*
X0118000Y0173000D01*
X0118000Y0178000D02*
X0121750Y0178000D01*
X0124250Y0175500D01*
X0124250Y0174875D01*
X0129875Y0169250D01*
X0130165Y0168748D01*
X0136750Y0176125D02*
X0137252Y0175835D01*
X0136750Y0176125D02*
X0131125Y0181750D01*
X0130500Y0181750D01*
X0128000Y0184250D01*
X0128000Y0188000D01*
X0133000Y0188000D02*
X0133000Y0184250D01*
X0135500Y0181750D01*
X0136750Y0181750D01*
X0139875Y0178625D01*
X0139875Y0176125D01*
X0140402Y0175835D01*
X0143000Y0176125D02*
X0143551Y0175835D01*
X0143000Y0176125D02*
X0143000Y0179250D01*
X0138000Y0184250D01*
X0138000Y0188000D01*
X0143000Y0188000D02*
X0143000Y0184250D01*
X0146125Y0181125D01*
X0146125Y0176125D01*
X0146701Y0175835D01*
X0149250Y0176125D02*
X0149850Y0175835D01*
X0149250Y0176125D02*
X0149250Y0186750D01*
X0148000Y0188000D01*
X0153000Y0188000D02*
X0153000Y0175835D01*
X0156150Y0175835D02*
X0156750Y0176125D01*
X0156750Y0186750D01*
X0158000Y0188000D01*
X0163000Y0188000D02*
X0163000Y0184250D01*
X0159875Y0181125D01*
X0159875Y0176125D01*
X0159299Y0175835D01*
X0162449Y0175835D02*
X0163000Y0176125D01*
X0163000Y0179250D01*
X0168000Y0184250D01*
X0168000Y0188000D01*
X0173000Y0188000D02*
X0173000Y0184250D01*
X0170500Y0181750D01*
X0169250Y0181750D01*
X0166125Y0178625D01*
X0166125Y0176125D01*
X0165598Y0175835D01*
X0168748Y0175835D02*
X0169250Y0176125D01*
X0174875Y0181750D01*
X0175500Y0181750D01*
X0178000Y0184250D01*
X0178000Y0188000D01*
X0184250Y0178000D02*
X0188000Y0178000D01*
X0184250Y0178000D02*
X0181750Y0175500D01*
X0181750Y0174875D01*
X0176125Y0169250D01*
X0175835Y0168748D01*
X0176125Y0166125D02*
X0175835Y0165598D01*
X0176125Y0166125D02*
X0178625Y0166125D01*
X0181750Y0169250D01*
X0181750Y0170500D01*
X0184250Y0173000D01*
X0188000Y0173000D01*
X0188000Y0168000D02*
X0184250Y0168000D01*
X0179250Y0163000D01*
X0176125Y0163000D01*
X0175835Y0162449D01*
X0176125Y0159875D02*
X0175835Y0159299D01*
X0176125Y0159875D02*
X0181125Y0159875D01*
X0184250Y0163000D01*
X0188000Y0163000D01*
X0188000Y0158000D02*
X0186750Y0156750D01*
X0176125Y0156750D01*
X0175835Y0156150D01*
X0175835Y0153000D02*
X0188000Y0153000D01*
X0186750Y0149250D02*
X0188000Y0148000D01*
X0186750Y0149250D02*
X0176125Y0149250D01*
X0175835Y0149850D01*
X0175835Y0146701D02*
X0176125Y0146125D01*
X0181125Y0146125D01*
X0184250Y0143000D01*
X0188000Y0143000D01*
X0188000Y0138000D02*
X0184250Y0138000D01*
X0179250Y0143000D01*
X0176125Y0143000D01*
X0175835Y0143551D01*
X0175835Y0140402D02*
X0176125Y0139875D01*
X0178625Y0139875D01*
X0181750Y0136750D01*
X0181750Y0135500D01*
X0184250Y0133000D01*
X0188000Y0133000D01*
X0188000Y0128000D02*
X0184250Y0128000D01*
X0181750Y0130500D01*
X0181750Y0131125D01*
X0176125Y0136750D01*
X0175835Y0137252D01*
X0169250Y0129875D02*
X0168748Y0130165D01*
X0169250Y0129875D02*
X0174875Y0124250D01*
X0175500Y0124250D01*
X0178000Y0121750D01*
X0178000Y0118000D01*
X0173000Y0118000D02*
X0173000Y0121750D01*
X0170500Y0124250D01*
X0169250Y0124250D01*
X0166125Y0127375D01*
X0166125Y0129875D01*
X0165598Y0130165D01*
X0163000Y0129875D02*
X0163000Y0126750D01*
X0168000Y0121750D01*
X0168000Y0118000D01*
X0163000Y0118000D02*
X0163000Y0121750D01*
X0159875Y0124875D01*
X0159875Y0129875D01*
X0159299Y0130165D01*
X0162449Y0130165D02*
X0163000Y0129875D01*
X0156750Y0129875D02*
X0156150Y0130165D01*
X0156750Y0129875D02*
X0156750Y0119250D01*
X0158000Y0118000D01*
X0153000Y0118000D02*
X0153000Y0130165D01*
X0149850Y0130165D02*
X0149250Y0129875D01*
X0149250Y0119250D01*
X0148000Y0118000D01*
X0143000Y0118000D02*
X0143000Y0121750D01*
X0146125Y0124875D01*
X0146125Y0129875D01*
X0146701Y0130165D01*
X0143551Y0130165D02*
X0143000Y0129875D01*
X0143000Y0126750D01*
X0138000Y0121750D01*
X0138000Y0118000D01*
X0133000Y0118000D02*
X0133000Y0121750D01*
X0135500Y0124250D01*
X0136750Y0124250D01*
X0139875Y0127375D01*
X0139875Y0129875D01*
X0140402Y0130165D01*
X0137252Y0130165D02*
X0136750Y0129875D01*
X0131125Y0124250D01*
X0130500Y0124250D01*
X0128000Y0121750D01*
X0128000Y0118000D01*
X0129875Y0139875D02*
X0130165Y0140402D01*
X0075972Y0171209D02*
X0076125Y0171750D01*
X0024791Y0151524D02*
X0024250Y0151750D01*
X0020500Y0151750D01*
X0014250Y0158000D01*
X0020500Y0065500D02*
X0020500Y0061750D01*
X0026750Y0055500D01*
X0026976Y0054900D01*
X0029875Y0055500D02*
X0030126Y0054900D01*
X0029875Y0055500D02*
X0029875Y0057375D01*
X0025500Y0061750D01*
X0025500Y0065500D01*
X0030500Y0065500D02*
X0030500Y0061750D01*
X0033000Y0059250D01*
X0033000Y0055500D01*
X0033276Y0054900D01*
X0036125Y0055500D02*
X0036425Y0054900D01*
X0036125Y0055500D02*
X0036125Y0064875D01*
X0035500Y0065500D01*
X0039875Y0064875D02*
X0040500Y0065500D01*
X0039875Y0064875D02*
X0039875Y0055500D01*
X0039575Y0054900D01*
X0042724Y0054900D02*
X0043000Y0055500D01*
X0043000Y0059250D01*
X0045500Y0061750D01*
X0045500Y0065500D01*
X0050500Y0065500D02*
X0050500Y0061750D01*
X0046125Y0057375D01*
X0046125Y0055500D01*
X0045874Y0054900D01*
X0049024Y0054900D02*
X0049250Y0055500D01*
X0055500Y0061750D01*
X0055500Y0065500D01*
X0061750Y0055500D02*
X0065500Y0055500D01*
X0061750Y0055500D02*
X0055500Y0049250D01*
X0054900Y0049024D01*
X0055500Y0046125D02*
X0054900Y0045874D01*
X0055500Y0046125D02*
X0057375Y0046125D01*
X0061750Y0050500D01*
X0065500Y0050500D01*
X0065500Y0045500D02*
X0061750Y0045500D01*
X0059250Y0043000D01*
X0055500Y0043000D01*
X0054900Y0042724D01*
X0055500Y0039875D02*
X0054900Y0039575D01*
X0055500Y0039875D02*
X0064875Y0039875D01*
X0065500Y0040500D01*
X0064875Y0036125D02*
X0065500Y0035500D01*
X0064875Y0036125D02*
X0055500Y0036125D01*
X0054900Y0036425D01*
X0054900Y0033276D02*
X0055500Y0033000D01*
X0059250Y0033000D01*
X0061750Y0030500D01*
X0065500Y0030500D01*
X0065500Y0025500D02*
X0061750Y0025500D01*
X0057375Y0029875D01*
X0055500Y0029875D01*
X0054900Y0030126D01*
X0054900Y0026976D02*
X0055500Y0026750D01*
X0061750Y0020500D01*
X0065500Y0020500D01*
X0055500Y0014250D02*
X0055500Y0010500D01*
X0055500Y0014250D02*
X0049250Y0020500D01*
X0049024Y0021100D01*
X0046125Y0020500D02*
X0046125Y0018625D01*
X0050500Y0014250D01*
X0050500Y0010500D01*
X0045500Y0010500D02*
X0045500Y0014250D01*
X0043000Y0016750D01*
X0043000Y0020500D01*
X0042724Y0021100D01*
X0039875Y0020500D02*
X0039575Y0021100D01*
X0039875Y0020500D02*
X0039875Y0011125D01*
X0040500Y0010500D01*
X0036125Y0011125D02*
X0035500Y0010500D01*
X0036125Y0011125D02*
X0036125Y0020500D01*
X0036425Y0021100D01*
X0033276Y0021100D02*
X0033000Y0020500D01*
X0033000Y0016750D01*
X0030500Y0014250D01*
X0030500Y0010500D01*
X0025500Y0010500D02*
X0025500Y0014250D01*
X0029875Y0018625D01*
X0029875Y0020500D01*
X0030126Y0021100D01*
X0026976Y0021100D02*
X0026750Y0020500D01*
X0020500Y0014250D01*
X0020500Y0010500D01*
X0014250Y0020500D02*
X0010500Y0020500D01*
X0014250Y0020500D02*
X0020500Y0026750D01*
X0021100Y0026976D01*
X0020500Y0029875D02*
X0018625Y0029875D01*
X0014250Y0025500D01*
X0010500Y0025500D01*
X0010500Y0030500D02*
X0014250Y0030500D01*
X0016750Y0033000D01*
X0020500Y0033000D01*
X0021100Y0033276D01*
X0021100Y0030126D02*
X0020500Y0029875D01*
X0020500Y0036125D02*
X0021100Y0036425D01*
X0020500Y0036125D02*
X0011125Y0036125D01*
X0010500Y0035500D01*
X0011125Y0039875D02*
X0010500Y0040500D01*
X0011125Y0039875D02*
X0020500Y0039875D01*
X0021100Y0039575D01*
X0021100Y0042724D02*
X0020500Y0043000D01*
X0016750Y0043000D01*
X0014250Y0045500D01*
X0010500Y0045500D01*
X0010500Y0050500D02*
X0014250Y0050500D01*
X0018625Y0046125D01*
X0020500Y0046125D01*
X0021100Y0045874D01*
X0021100Y0049024D02*
X0020500Y0049250D01*
X0014250Y0055500D01*
X0010500Y0055500D01*
X0045874Y0021100D02*
X0046125Y0020500D01*
X0079250Y0020500D02*
X0083000Y0020500D01*
X0089250Y0026750D01*
X0089850Y0026976D01*
X0089250Y0029875D02*
X0087375Y0029875D01*
X0083000Y0025500D01*
X0079250Y0025500D01*
X0079250Y0030500D02*
X0083000Y0030500D01*
X0085500Y0033000D01*
X0089250Y0033000D01*
X0089850Y0033276D01*
X0089850Y0030126D02*
X0089250Y0029875D01*
X0089250Y0036125D02*
X0089850Y0036425D01*
X0089250Y0036125D02*
X0079875Y0036125D01*
X0079250Y0035500D01*
X0079875Y0039875D02*
X0079250Y0040500D01*
X0079875Y0039875D02*
X0089250Y0039875D01*
X0089850Y0039575D01*
X0089850Y0042724D02*
X0089250Y0043000D01*
X0085500Y0043000D01*
X0083000Y0045500D01*
X0079250Y0045500D01*
X0079250Y0050500D02*
X0083000Y0050500D01*
X0087375Y0046125D01*
X0089250Y0046125D01*
X0089850Y0045874D01*
X0089850Y0049024D02*
X0089250Y0049250D01*
X0083000Y0055500D01*
X0079250Y0055500D01*
X0089250Y0061750D02*
X0089250Y0065500D01*
X0089250Y0061750D02*
X0095500Y0055500D01*
X0095726Y0054900D01*
X0098625Y0055500D02*
X0098876Y0054900D01*
X0098625Y0055500D02*
X0098625Y0057375D01*
X0094250Y0061750D01*
X0094250Y0065500D01*
X0099250Y0065500D02*
X0099250Y0061750D01*
X0101750Y0059250D01*
X0101750Y0055500D01*
X0102026Y0054900D01*
X0104875Y0055500D02*
X0105175Y0054900D01*
X0104875Y0055500D02*
X0104875Y0064875D01*
X0104250Y0065500D01*
X0108625Y0064875D02*
X0109250Y0065500D01*
X0108625Y0064875D02*
X0108625Y0055500D01*
X0108325Y0054900D01*
X0111474Y0054900D02*
X0111750Y0055500D01*
X0111750Y0059250D01*
X0114250Y0061750D01*
X0114250Y0065500D01*
X0119250Y0065500D02*
X0119250Y0061750D01*
X0114875Y0057375D01*
X0114875Y0055500D01*
X0114624Y0054900D01*
X0117774Y0054900D02*
X0118000Y0055500D01*
X0124250Y0061750D01*
X0124250Y0065500D01*
X0130500Y0055500D02*
X0134250Y0055500D01*
X0130500Y0055500D02*
X0124250Y0049250D01*
X0123650Y0049024D01*
X0124250Y0046125D02*
X0123650Y0045874D01*
X0124250Y0046125D02*
X0126125Y0046125D01*
X0130500Y0050500D01*
X0134250Y0050500D01*
X0134250Y0045500D02*
X0130500Y0045500D01*
X0128000Y0043000D01*
X0124250Y0043000D01*
X0123650Y0042724D01*
X0124250Y0039875D02*
X0123650Y0039575D01*
X0124250Y0039875D02*
X0133625Y0039875D01*
X0134250Y0040500D01*
X0133625Y0036125D02*
X0134250Y0035500D01*
X0133625Y0036125D02*
X0124250Y0036125D01*
X0123650Y0036425D01*
X0123650Y0033276D02*
X0124250Y0033000D01*
X0128000Y0033000D01*
X0130500Y0030500D01*
X0134250Y0030500D01*
X0134250Y0025500D02*
X0130500Y0025500D01*
X0126125Y0029875D01*
X0124250Y0029875D01*
X0123650Y0030126D01*
X0123650Y0026976D02*
X0124250Y0026750D01*
X0130500Y0020500D01*
X0134250Y0020500D01*
X0124250Y0014250D02*
X0124250Y0010500D01*
X0124250Y0014250D02*
X0118000Y0020500D01*
X0117774Y0021100D01*
X0114875Y0020500D02*
X0114875Y0018625D01*
X0119250Y0014250D01*
X0119250Y0010500D01*
X0114250Y0010500D02*
X0114250Y0014250D01*
X0111750Y0016750D01*
X0111750Y0020500D01*
X0111474Y0021100D01*
X0114624Y0021100D02*
X0114875Y0020500D01*
X0108625Y0020500D02*
X0108325Y0021100D01*
X0108625Y0020500D02*
X0108625Y0011125D01*
X0109250Y0010500D01*
X0104875Y0011125D02*
X0104250Y0010500D01*
X0104875Y0011125D02*
X0104875Y0020500D01*
X0105175Y0021100D01*
X0102026Y0021100D02*
X0101750Y0020500D01*
X0101750Y0016750D01*
X0099250Y0014250D01*
X0099250Y0010500D01*
X0094250Y0010500D02*
X0094250Y0014250D01*
X0098625Y0018625D01*
X0098625Y0020500D01*
X0098876Y0021100D01*
X0095726Y0021100D02*
X0095500Y0020500D01*
X0089250Y0014250D01*
X0089250Y0010500D01*
X0148000Y0020500D02*
X0148000Y0021000D01*
X0152200Y0021000D01*
X0158200Y0027000D01*
X0158200Y0030600D01*
X0158748Y0031110D01*
X0158200Y0033000D02*
X0157000Y0033000D01*
X0155250Y0031250D01*
X0155250Y0029450D01*
X0151600Y0025800D01*
X0148000Y0025800D01*
X0148000Y0025500D01*
X0148000Y0030500D02*
X0148000Y0030600D01*
X0151600Y0030600D01*
X0155800Y0034800D01*
X0158200Y0034800D01*
X0158748Y0035047D01*
X0158200Y0036600D02*
X0158748Y0037016D01*
X0158200Y0036600D02*
X0148600Y0036600D01*
X0148000Y0036000D01*
X0148000Y0035500D01*
X0149200Y0039000D02*
X0148000Y0040200D01*
X0148000Y0040500D01*
X0149200Y0039000D02*
X0158200Y0039000D01*
X0158748Y0038984D01*
X0158748Y0040953D02*
X0158200Y0041400D01*
X0155800Y0041400D01*
X0152200Y0045000D01*
X0148000Y0045000D01*
X0148000Y0045500D01*
X0148000Y0050400D02*
X0148000Y0050500D01*
X0148000Y0050400D02*
X0151600Y0050400D01*
X0155250Y0046750D01*
X0155250Y0044950D01*
X0157000Y0043200D01*
X0158200Y0043200D01*
X0158748Y0042921D01*
X0158748Y0044890D02*
X0158200Y0045000D01*
X0158200Y0048600D01*
X0151600Y0055200D01*
X0148000Y0055200D01*
X0148000Y0055500D01*
X0151000Y0061200D02*
X0151000Y0065400D01*
X0150500Y0065500D01*
X0151000Y0061200D02*
X0160600Y0051600D01*
X0160600Y0047400D01*
X0161110Y0047252D01*
X0163000Y0047400D02*
X0163079Y0047252D01*
X0163000Y0047400D02*
X0163000Y0054600D01*
X0155800Y0061800D01*
X0155800Y0065400D01*
X0155500Y0065500D01*
X0160500Y0065500D02*
X0160600Y0065400D01*
X0160600Y0061800D01*
X0164800Y0057600D01*
X0164800Y0047400D01*
X0165047Y0047252D01*
X0166600Y0047400D02*
X0167016Y0047252D01*
X0166600Y0047400D02*
X0166600Y0064800D01*
X0166000Y0065400D01*
X0165500Y0065500D01*
X0169000Y0064200D02*
X0170200Y0065400D01*
X0170500Y0065500D01*
X0169000Y0064200D02*
X0169000Y0047400D01*
X0168984Y0047252D01*
X0170953Y0047252D02*
X0171400Y0047400D01*
X0171400Y0057600D01*
X0175000Y0061200D01*
X0175000Y0065400D01*
X0175500Y0065500D01*
X0180400Y0065400D02*
X0180400Y0061800D01*
X0173200Y0054600D01*
X0173200Y0047400D01*
X0172921Y0047252D01*
X0174890Y0047252D02*
X0175000Y0047400D01*
X0175000Y0051600D01*
X0185200Y0061800D01*
X0185200Y0065400D01*
X0185500Y0065500D01*
X0180500Y0065500D02*
X0180400Y0065400D01*
X0188000Y0055500D02*
X0187600Y0055200D01*
X0184000Y0055200D01*
X0177400Y0048600D01*
X0177400Y0045000D01*
X0177252Y0044890D01*
X0177400Y0043200D02*
X0177252Y0042921D01*
X0177400Y0043200D02*
X0179200Y0043200D01*
X0181600Y0045600D01*
X0181600Y0047400D01*
X0184600Y0050400D01*
X0187600Y0050400D01*
X0188000Y0050500D01*
X0188000Y0045500D02*
X0187600Y0045000D01*
X0184000Y0045000D01*
X0180400Y0041400D01*
X0177400Y0041400D01*
X0177252Y0040953D01*
X0177400Y0039000D02*
X0177252Y0038984D01*
X0177400Y0039000D02*
X0186400Y0039000D01*
X0187600Y0040200D01*
X0188000Y0040500D01*
X0187000Y0036600D02*
X0187600Y0036000D01*
X0188000Y0035500D01*
X0187000Y0036600D02*
X0177400Y0036600D01*
X0177252Y0037016D01*
X0177252Y0035047D02*
X0177400Y0034800D01*
X0180400Y0034800D01*
X0184600Y0030600D01*
X0187600Y0030600D01*
X0188000Y0030500D01*
X0187600Y0025800D02*
X0184000Y0025800D01*
X0181600Y0028200D01*
X0181600Y0030000D01*
X0178600Y0033000D01*
X0177400Y0033000D01*
X0177252Y0033079D01*
X0177252Y0031110D02*
X0177400Y0030600D01*
X0177400Y0027600D01*
X0184000Y0021000D01*
X0187600Y0021000D01*
X0188000Y0020500D01*
X0188000Y0025500D02*
X0187600Y0025800D01*
X0185200Y0014400D02*
X0185200Y0010800D01*
X0185500Y0010500D01*
X0185200Y0014400D02*
X0175000Y0024600D01*
X0175000Y0028200D01*
X0174890Y0028748D01*
X0173200Y0028200D02*
X0172921Y0028748D01*
X0173200Y0028200D02*
X0173200Y0021600D01*
X0180400Y0014400D01*
X0180400Y0010800D01*
X0180500Y0010500D01*
X0175500Y0010500D02*
X0175000Y0010800D01*
X0175000Y0014400D01*
X0171400Y0018000D01*
X0171400Y0028200D01*
X0170953Y0028748D01*
X0168984Y0028748D02*
X0169000Y0028200D01*
X0169000Y0012000D01*
X0170500Y0010500D01*
X0166600Y0011400D02*
X0166000Y0010800D01*
X0165500Y0010500D01*
X0166600Y0011400D02*
X0166600Y0028200D01*
X0167016Y0028748D01*
X0165047Y0028748D02*
X0164800Y0028200D01*
X0164800Y0018600D01*
X0160600Y0014400D01*
X0160600Y0010800D01*
X0160500Y0010500D01*
X0155800Y0010800D02*
X0155800Y0014400D01*
X0163000Y0021600D01*
X0163000Y0028200D01*
X0163079Y0028748D01*
X0161110Y0028748D02*
X0160600Y0028200D01*
X0160600Y0024000D01*
X0151000Y0014400D01*
X0151000Y0010800D01*
X0150500Y0010500D01*
X0155500Y0010500D02*
X0155800Y0010800D01*
X0158200Y0033000D02*
X0158748Y0033079D01*
D26*
X0163500Y0033500D03*
X0172500Y0033500D03*
X0172500Y0042500D03*
X0163500Y0042500D03*
D27*
X0169250Y0077047D02*
X0169250Y0078764D01*
X0169467Y0078547D01*
X0169250Y0077047D02*
X0176750Y0077047D01*
X0189750Y0077047D01*
X0189750Y0079000D01*
X0184053Y0080926D02*
X0180112Y0080926D01*
X0180199Y0081077D02*
X0180322Y0081535D01*
X0180322Y0082953D01*
X0180322Y0084371D01*
X0180199Y0084829D01*
X0179962Y0085239D01*
X0179627Y0085574D01*
X0179216Y0085811D01*
X0178759Y0085934D01*
X0176750Y0085934D01*
X0176750Y0082953D01*
X0176750Y0082953D01*
X0176750Y0085934D01*
X0174741Y0085934D01*
X0174284Y0085811D01*
X0173873Y0085574D01*
X0173538Y0085239D01*
X0173301Y0084829D01*
X0173178Y0084371D01*
X0173178Y0082953D01*
X0176750Y0082953D01*
X0180322Y0082953D01*
X0176750Y0082953D01*
X0176750Y0082953D01*
X0176750Y0082953D01*
X0173178Y0082953D01*
X0173178Y0081535D01*
X0173301Y0081077D01*
X0173538Y0080666D01*
X0173873Y0080331D01*
X0174114Y0080192D01*
X0173769Y0079847D01*
X0172431Y0079847D01*
X0172431Y0083923D01*
X0171260Y0085094D01*
X0167240Y0085094D01*
X0166609Y0084463D01*
X0166536Y0084535D01*
X0166126Y0084772D01*
X0165668Y0084894D01*
X0164250Y0084894D01*
X0162832Y0084894D01*
X0162374Y0084772D01*
X0161964Y0084535D01*
X0161750Y0084321D01*
X0161536Y0084535D01*
X0161126Y0084772D01*
X0160668Y0084894D01*
X0159250Y0084894D01*
X0157832Y0084894D01*
X0157374Y0084772D01*
X0156964Y0084535D01*
X0156891Y0084463D01*
X0156260Y0085094D01*
X0153250Y0085094D01*
X0153250Y0092906D01*
X0156260Y0092906D01*
X0156891Y0093537D01*
X0156964Y0093465D01*
X0157374Y0093228D01*
X0157832Y0093106D01*
X0159250Y0093105D01*
X0159250Y0099236D01*
X0159250Y0093106D01*
X0160668Y0093106D01*
X0161126Y0093228D01*
X0161536Y0093465D01*
X0161750Y0093679D01*
X0161964Y0093465D01*
X0162374Y0093228D01*
X0162832Y0093106D01*
X0164250Y0093105D01*
X0164250Y0099236D01*
X0164250Y0093106D01*
X0165668Y0093106D01*
X0166126Y0093228D01*
X0166536Y0093465D01*
X0166609Y0093537D01*
X0167240Y0092906D01*
X0171260Y0092906D01*
X0172431Y0094077D01*
X0172431Y0098153D01*
X0173769Y0098153D01*
X0174114Y0097808D01*
X0173873Y0097669D01*
X0173538Y0097334D01*
X0173301Y0096923D01*
X0173178Y0096465D01*
X0173178Y0095047D01*
X0173178Y0093629D01*
X0173301Y0093171D01*
X0173538Y0092761D01*
X0173873Y0092426D01*
X0174284Y0092189D01*
X0174741Y0092066D01*
X0176750Y0092066D01*
X0178759Y0092066D01*
X0179216Y0092189D01*
X0179627Y0092426D01*
X0179962Y0092761D01*
X0180199Y0093171D01*
X0180322Y0093629D01*
X0180322Y0095047D01*
X0176750Y0095047D01*
X0176750Y0092066D01*
X0176750Y0095047D01*
X0176750Y0095047D01*
X0176750Y0095047D01*
X0173178Y0095047D01*
X0176750Y0095047D01*
X0176750Y0095047D01*
X0180322Y0095047D01*
X0180322Y0096465D01*
X0180199Y0096923D01*
X0179962Y0097334D01*
X0179627Y0097669D01*
X0179386Y0097808D01*
X0179731Y0098153D01*
X0183750Y0098153D01*
X0183750Y0094172D01*
X0184922Y0093000D01*
X0185548Y0093000D01*
X0185326Y0092778D01*
X0184789Y0092040D01*
X0184375Y0091226D01*
X0184093Y0090358D01*
X0183950Y0089456D01*
X0183950Y0089200D01*
X0189550Y0089200D01*
X0189550Y0088800D01*
X0183950Y0088800D01*
X0183950Y0088544D01*
X0184093Y0087642D01*
X0184375Y0086774D01*
X0184789Y0085960D01*
X0185326Y0085222D01*
X0185972Y0084576D01*
X0186539Y0084164D01*
X0186351Y0084087D01*
X0184663Y0082399D01*
X0183750Y0080193D01*
X0183750Y0079847D01*
X0179731Y0079847D01*
X0179386Y0080192D01*
X0179627Y0080331D01*
X0179962Y0080666D01*
X0180199Y0081077D01*
X0180322Y0082524D02*
X0184789Y0082524D01*
X0186438Y0084123D02*
X0180322Y0084123D01*
X0179372Y0085721D02*
X0184963Y0085721D01*
X0184198Y0087320D02*
X0153250Y0087320D01*
X0153250Y0088918D02*
X0189550Y0088918D01*
X0184844Y0092115D02*
X0178942Y0092115D01*
X0180322Y0093714D02*
X0184208Y0093714D01*
X0183750Y0095312D02*
X0180322Y0095312D01*
X0180202Y0096911D02*
X0183750Y0096911D01*
X0189750Y0099000D02*
X0189750Y0100953D01*
X0176750Y0100953D01*
X0169250Y0100953D01*
X0169250Y0099236D01*
X0169467Y0099453D01*
X0172431Y0096911D02*
X0173298Y0096911D01*
X0173178Y0095312D02*
X0172431Y0095312D01*
X0172068Y0093714D02*
X0173178Y0093714D01*
X0174558Y0092115D02*
X0153250Y0092115D01*
X0153250Y0090517D02*
X0184144Y0090517D01*
X0176750Y0092115D02*
X0176750Y0092115D01*
X0176750Y0093714D02*
X0176750Y0093714D01*
X0176750Y0085721D02*
X0176750Y0085721D01*
X0176750Y0084123D02*
X0176750Y0084123D01*
X0174128Y0085721D02*
X0153250Y0085721D01*
X0149500Y0085721D02*
X0128622Y0085721D01*
X0128466Y0085811D02*
X0128009Y0085934D01*
X0126000Y0085934D01*
X0126000Y0082953D01*
X0126000Y0082953D01*
X0126000Y0085934D01*
X0123991Y0085934D01*
X0123534Y0085811D01*
X0123123Y0085574D01*
X0122788Y0085239D01*
X0122551Y0084829D01*
X0122428Y0084371D01*
X0122428Y0082953D01*
X0126000Y0082953D01*
X0129572Y0082953D01*
X0129572Y0084371D01*
X0129449Y0084829D01*
X0129212Y0085239D01*
X0128877Y0085574D01*
X0128466Y0085811D01*
X0129572Y0084123D02*
X0130519Y0084123D01*
X0130319Y0083923D02*
X0130319Y0079847D01*
X0128981Y0079847D01*
X0128636Y0080192D01*
X0128877Y0080331D01*
X0129212Y0080666D01*
X0129449Y0081077D01*
X0129572Y0081535D01*
X0129572Y0082953D01*
X0126000Y0082953D01*
X0126000Y0082953D01*
X0126000Y0082953D01*
X0122428Y0082953D01*
X0122428Y0081535D01*
X0122551Y0081077D01*
X0122788Y0080666D01*
X0123123Y0080331D01*
X0123364Y0080192D01*
X0123019Y0079847D01*
X0119000Y0079847D01*
X0119000Y0083828D01*
X0117828Y0085000D01*
X0117202Y0085000D01*
X0117424Y0085222D01*
X0117961Y0085960D01*
X0118375Y0086774D01*
X0118657Y0087642D01*
X0118800Y0088544D01*
X0118800Y0088800D01*
X0113200Y0088800D01*
X0113200Y0089200D01*
X0118800Y0089200D01*
X0118800Y0089456D01*
X0118657Y0090358D01*
X0118375Y0091226D01*
X0117961Y0092040D01*
X0117424Y0092778D01*
X0116778Y0093424D01*
X0116211Y0093836D01*
X0116399Y0093913D01*
X0118087Y0095601D01*
X0119000Y0097807D01*
X0119000Y0098153D01*
X0123019Y0098153D01*
X0123364Y0097808D01*
X0123123Y0097669D01*
X0122788Y0097334D01*
X0122551Y0096923D01*
X0122428Y0096465D01*
X0122428Y0095047D01*
X0122428Y0093629D01*
X0122551Y0093171D01*
X0122788Y0092761D01*
X0123123Y0092426D01*
X0123534Y0092189D01*
X0123991Y0092066D01*
X0126000Y0092066D01*
X0128009Y0092066D01*
X0128466Y0092189D01*
X0128877Y0092426D01*
X0129212Y0092761D01*
X0129449Y0093171D01*
X0129572Y0093629D01*
X0129572Y0095047D01*
X0126000Y0095047D01*
X0126000Y0092066D01*
X0126000Y0095047D01*
X0126000Y0095047D01*
X0126000Y0095047D01*
X0122428Y0095047D01*
X0126000Y0095047D01*
X0126000Y0095047D01*
X0129572Y0095047D01*
X0129572Y0096465D01*
X0129449Y0096923D01*
X0129212Y0097334D01*
X0128877Y0097669D01*
X0128636Y0097808D01*
X0128981Y0098153D01*
X0130319Y0098153D01*
X0130319Y0094077D01*
X0131490Y0092906D01*
X0135510Y0092906D01*
X0136141Y0093537D01*
X0136214Y0093465D01*
X0136624Y0093228D01*
X0137082Y0093106D01*
X0138500Y0093105D01*
X0138500Y0099236D01*
X0138500Y0093106D01*
X0139918Y0093106D01*
X0140376Y0093228D01*
X0140786Y0093465D01*
X0141000Y0093679D01*
X0141214Y0093465D01*
X0141624Y0093228D01*
X0142082Y0093106D01*
X0143500Y0093105D01*
X0143500Y0099236D01*
X0143500Y0093106D01*
X0144918Y0093106D01*
X0145376Y0093228D01*
X0145786Y0093465D01*
X0145859Y0093537D01*
X0146490Y0092906D01*
X0149500Y0092906D01*
X0149500Y0085094D01*
X0146490Y0085094D01*
X0145859Y0084463D01*
X0145786Y0084535D01*
X0145376Y0084772D01*
X0144918Y0084894D01*
X0143500Y0084894D01*
X0142082Y0084894D01*
X0141624Y0084772D01*
X0141214Y0084535D01*
X0141000Y0084321D01*
X0140786Y0084535D01*
X0140376Y0084772D01*
X0139918Y0084894D01*
X0138500Y0084894D01*
X0137082Y0084894D01*
X0136624Y0084772D01*
X0136214Y0084535D01*
X0136141Y0084463D01*
X0135510Y0085094D01*
X0131490Y0085094D01*
X0130319Y0083923D01*
X0130319Y0082524D02*
X0129572Y0082524D01*
X0129362Y0080926D02*
X0130319Y0080926D01*
X0133283Y0078547D02*
X0133500Y0078764D01*
X0133500Y0077047D01*
X0126000Y0077047D01*
X0113000Y0077047D01*
X0113000Y0079000D01*
X0119000Y0080926D02*
X0122638Y0080926D01*
X0122428Y0082524D02*
X0119000Y0082524D01*
X0118706Y0084123D02*
X0122428Y0084123D01*
X0123378Y0085721D02*
X0117787Y0085721D01*
X0118552Y0087320D02*
X0149500Y0087320D01*
X0149500Y0088918D02*
X0113200Y0088918D01*
X0118606Y0090517D02*
X0149500Y0090517D01*
X0149500Y0092115D02*
X0128192Y0092115D01*
X0129572Y0093714D02*
X0130682Y0093714D01*
X0130319Y0095312D02*
X0129572Y0095312D01*
X0129452Y0096911D02*
X0130319Y0096911D01*
X0133283Y0099453D02*
X0133500Y0099236D01*
X0133500Y0100953D01*
X0126000Y0100953D01*
X0113000Y0100953D01*
X0113000Y0099000D01*
X0118629Y0096911D02*
X0122548Y0096911D01*
X0122428Y0095312D02*
X0117797Y0095312D01*
X0116380Y0093714D02*
X0122428Y0093714D01*
X0123808Y0092115D02*
X0117906Y0092115D01*
X0126000Y0092115D02*
X0126000Y0092115D01*
X0126000Y0093714D02*
X0126000Y0093714D01*
X0126000Y0085721D02*
X0126000Y0085721D01*
X0126000Y0084123D02*
X0126000Y0084123D01*
X0138500Y0084123D02*
X0138500Y0084123D01*
X0138500Y0084894D02*
X0138500Y0078764D01*
X0138500Y0078764D01*
X0138500Y0084894D01*
X0138500Y0082524D02*
X0138500Y0082524D01*
X0138500Y0080926D02*
X0138500Y0080926D01*
X0138500Y0079327D02*
X0138500Y0079327D01*
X0138500Y0078764D02*
X0143500Y0078764D01*
X0143500Y0078764D01*
X0143500Y0084894D01*
X0143500Y0078764D01*
X0143500Y0078764D01*
X0141481Y0078764D01*
X0138500Y0078764D01*
X0138500Y0078764D01*
X0143500Y0079327D02*
X0143500Y0079327D01*
X0143500Y0080926D02*
X0143500Y0080926D01*
X0143500Y0082524D02*
X0143500Y0082524D01*
X0143500Y0084123D02*
X0143500Y0084123D01*
X0143500Y0093714D02*
X0143500Y0093714D01*
X0143500Y0095312D02*
X0143500Y0095312D01*
X0143500Y0096911D02*
X0143500Y0096911D01*
X0143500Y0098509D02*
X0143500Y0098509D01*
X0143500Y0099236D02*
X0143500Y0099236D01*
X0140519Y0099236D01*
X0138500Y0099236D01*
X0138500Y0099236D01*
X0138500Y0099236D01*
X0143500Y0099236D01*
X0143500Y0099236D01*
X0138500Y0098509D02*
X0138500Y0098509D01*
X0138500Y0096911D02*
X0138500Y0096911D01*
X0138500Y0095312D02*
X0138500Y0095312D01*
X0138500Y0093714D02*
X0138500Y0093714D01*
X0159250Y0093714D02*
X0159250Y0093714D01*
X0159250Y0095312D02*
X0159250Y0095312D01*
X0159250Y0096911D02*
X0159250Y0096911D01*
X0159250Y0098509D02*
X0159250Y0098509D01*
X0159250Y0099236D02*
X0159250Y0099236D01*
X0159250Y0099236D01*
X0164250Y0099236D01*
X0164250Y0099236D01*
X0164250Y0099236D01*
X0162231Y0099236D01*
X0159250Y0099236D01*
X0164250Y0098509D02*
X0164250Y0098509D01*
X0164250Y0096911D02*
X0164250Y0096911D01*
X0164250Y0095312D02*
X0164250Y0095312D01*
X0164250Y0093714D02*
X0164250Y0093714D01*
X0164250Y0084894D02*
X0164250Y0078764D01*
X0164250Y0078764D01*
X0164250Y0084894D01*
X0164250Y0084123D02*
X0164250Y0084123D01*
X0164250Y0082524D02*
X0164250Y0082524D01*
X0164250Y0080926D02*
X0164250Y0080926D01*
X0164250Y0079327D02*
X0164250Y0079327D01*
X0164250Y0078764D02*
X0161269Y0078764D01*
X0159250Y0078764D01*
X0159250Y0078764D01*
X0159250Y0084894D01*
X0159250Y0078764D01*
X0159250Y0078764D01*
X0164250Y0078764D01*
X0164250Y0078764D01*
X0159250Y0079327D02*
X0159250Y0079327D01*
X0159250Y0080926D02*
X0159250Y0080926D01*
X0159250Y0082524D02*
X0159250Y0082524D01*
X0159250Y0084123D02*
X0159250Y0084123D01*
X0172231Y0084123D02*
X0173178Y0084123D01*
X0173178Y0082524D02*
X0172431Y0082524D01*
X0172431Y0080926D02*
X0173388Y0080926D01*
M02*
