G75*
%MOIN*%
%OFA0B0*%
%FSLAX25Y25*%
%IPPOS*%
%LPD*%
%AMOC8*
5,1,8,0,0,1.08239X$1,22.5*
%
%ADD10R,0.04200X0.05900*%
%ADD11R,1.89200X0.03300*%
%ADD12C,0.00000*%
%ADD13R,0.04200X0.04200*%
D10*
X0005050Y0005900D03*
X0010050Y0005900D03*
X0015050Y0005900D03*
X0020050Y0005900D03*
X0025050Y0005900D03*
X0030050Y0005900D03*
X0035050Y0005900D03*
X0040050Y0005900D03*
X0045050Y0005900D03*
X0050050Y0005900D03*
X0055050Y0005900D03*
X0060050Y0005900D03*
X0065050Y0005900D03*
X0070050Y0005900D03*
X0075050Y0005900D03*
X0080050Y0005900D03*
X0085050Y0005900D03*
X0090050Y0005900D03*
X0095050Y0005900D03*
X0100050Y0005900D03*
X0105050Y0005900D03*
X0110050Y0005900D03*
X0115050Y0005900D03*
X0120050Y0005900D03*
X0125050Y0005900D03*
X0130050Y0005900D03*
X0135050Y0005900D03*
X0140050Y0005900D03*
X0145050Y0005900D03*
X0150050Y0005900D03*
X0155050Y0005900D03*
X0160050Y0005900D03*
X0165050Y0005900D03*
X0170050Y0005900D03*
X0175050Y0005900D03*
X0180050Y0005900D03*
X0185050Y0005900D03*
X0190050Y0005900D03*
X0190050Y0016700D03*
X0185050Y0016700D03*
X0180050Y0016700D03*
X0175050Y0016700D03*
X0170050Y0016700D03*
X0165050Y0016700D03*
X0160050Y0016700D03*
X0155050Y0016700D03*
X0150050Y0016700D03*
X0145050Y0016700D03*
X0140050Y0016700D03*
X0135050Y0016700D03*
X0130050Y0016700D03*
X0125050Y0016700D03*
X0120050Y0016700D03*
X0115050Y0016700D03*
X0110050Y0016700D03*
X0105050Y0016700D03*
X0100050Y0016700D03*
X0095050Y0016700D03*
X0090050Y0016700D03*
X0085050Y0016700D03*
X0080050Y0016700D03*
X0075050Y0016700D03*
X0070050Y0016700D03*
X0065050Y0016700D03*
X0060050Y0016700D03*
X0055050Y0016700D03*
X0050050Y0016700D03*
X0045050Y0016700D03*
X0040050Y0016700D03*
X0035050Y0016700D03*
X0030050Y0016700D03*
X0025050Y0016700D03*
X0020050Y0016700D03*
X0015050Y0016700D03*
X0010050Y0016700D03*
X0005050Y0016700D03*
X0005050Y0023400D03*
X0010050Y0023400D03*
X0015050Y0023400D03*
X0020050Y0023400D03*
X0025050Y0023400D03*
X0030050Y0023400D03*
X0035050Y0023400D03*
X0040050Y0023400D03*
X0045050Y0023400D03*
X0050050Y0023400D03*
X0055050Y0023400D03*
X0060050Y0023400D03*
X0065050Y0023400D03*
X0070050Y0023400D03*
X0075050Y0023400D03*
X0080050Y0023400D03*
X0085050Y0023400D03*
X0090050Y0023400D03*
X0095050Y0023400D03*
X0100050Y0023400D03*
X0105050Y0023400D03*
X0110050Y0023400D03*
X0115050Y0023400D03*
X0120050Y0023400D03*
X0125050Y0023400D03*
X0130050Y0023400D03*
X0135050Y0023400D03*
X0140050Y0023400D03*
X0145050Y0023400D03*
X0150050Y0023400D03*
X0155050Y0023400D03*
X0160050Y0023400D03*
X0165050Y0023400D03*
X0170050Y0023400D03*
X0175050Y0023400D03*
X0180050Y0023400D03*
X0185050Y0023400D03*
X0190050Y0023400D03*
X0190050Y0034200D03*
X0185050Y0034200D03*
X0180050Y0034200D03*
X0175050Y0034200D03*
X0170050Y0034200D03*
X0165050Y0034200D03*
X0160050Y0034200D03*
X0155050Y0034200D03*
X0150050Y0034200D03*
X0145050Y0034200D03*
X0140050Y0034200D03*
X0135050Y0034200D03*
X0130050Y0034200D03*
X0125050Y0034200D03*
X0120050Y0034200D03*
X0115050Y0034200D03*
X0110050Y0034200D03*
X0105050Y0034200D03*
X0100050Y0034200D03*
X0095050Y0034200D03*
X0090050Y0034200D03*
X0085050Y0034200D03*
X0080050Y0034200D03*
X0075050Y0034200D03*
X0070050Y0034200D03*
X0065050Y0034200D03*
X0060050Y0034200D03*
X0055050Y0034200D03*
X0050050Y0034200D03*
X0045050Y0034200D03*
X0040050Y0034200D03*
X0035050Y0034200D03*
X0030050Y0034200D03*
X0025050Y0034200D03*
X0020050Y0034200D03*
X0015050Y0034200D03*
X0010050Y0034200D03*
X0005050Y0034200D03*
X0005050Y0040900D03*
X0010050Y0040900D03*
X0015050Y0040900D03*
X0020050Y0040900D03*
X0025050Y0040900D03*
X0030050Y0040900D03*
X0035050Y0040900D03*
X0040050Y0040900D03*
X0045050Y0040900D03*
X0050050Y0040900D03*
X0055050Y0040900D03*
X0060050Y0040900D03*
X0065050Y0040900D03*
X0070050Y0040900D03*
X0075050Y0040900D03*
X0080050Y0040900D03*
X0085050Y0040900D03*
X0090050Y0040900D03*
X0095050Y0040900D03*
X0100050Y0040900D03*
X0105050Y0040900D03*
X0110050Y0040900D03*
X0115050Y0040900D03*
X0120050Y0040900D03*
X0125050Y0040900D03*
X0130050Y0040900D03*
X0135050Y0040900D03*
X0140050Y0040900D03*
X0145050Y0040900D03*
X0150050Y0040900D03*
X0155050Y0040900D03*
X0160050Y0040900D03*
X0165050Y0040900D03*
X0170050Y0040900D03*
X0175050Y0040900D03*
X0180050Y0040900D03*
X0185050Y0040900D03*
X0190050Y0040900D03*
X0190050Y0051700D03*
X0185050Y0051700D03*
X0180050Y0051700D03*
X0175050Y0051700D03*
X0170050Y0051700D03*
X0165050Y0051700D03*
X0160050Y0051700D03*
X0155050Y0051700D03*
X0150050Y0051700D03*
X0145050Y0051700D03*
X0140050Y0051700D03*
X0135050Y0051700D03*
X0130050Y0051700D03*
X0125050Y0051700D03*
X0120050Y0051700D03*
X0115050Y0051700D03*
X0110050Y0051700D03*
X0105050Y0051700D03*
X0100050Y0051700D03*
X0095050Y0051700D03*
X0090050Y0051700D03*
X0085050Y0051700D03*
X0080050Y0051700D03*
X0075050Y0051700D03*
X0070050Y0051700D03*
X0065050Y0051700D03*
X0060050Y0051700D03*
X0055050Y0051700D03*
X0050050Y0051700D03*
X0045050Y0051700D03*
X0040050Y0051700D03*
X0035050Y0051700D03*
X0030050Y0051700D03*
X0025050Y0051700D03*
X0020050Y0051700D03*
X0015050Y0051700D03*
X0010050Y0051700D03*
X0005050Y0051700D03*
X0005050Y0058400D03*
X0010050Y0058400D03*
X0015050Y0058400D03*
X0020050Y0058400D03*
X0025050Y0058400D03*
X0030050Y0058400D03*
X0035050Y0058400D03*
X0040050Y0058400D03*
X0045050Y0058400D03*
X0050050Y0058400D03*
X0055050Y0058400D03*
X0060050Y0058400D03*
X0065050Y0058400D03*
X0070050Y0058400D03*
X0075050Y0058400D03*
X0080050Y0058400D03*
X0085050Y0058400D03*
X0090050Y0058400D03*
X0095050Y0058400D03*
X0100050Y0058400D03*
X0105050Y0058400D03*
X0110050Y0058400D03*
X0115050Y0058400D03*
X0120050Y0058400D03*
X0125050Y0058400D03*
X0130050Y0058400D03*
X0135050Y0058400D03*
X0140050Y0058400D03*
X0145050Y0058400D03*
X0150050Y0058400D03*
X0155050Y0058400D03*
X0160050Y0058400D03*
X0165050Y0058400D03*
X0170050Y0058400D03*
X0175050Y0058400D03*
X0180050Y0058400D03*
X0185050Y0058400D03*
X0190050Y0058400D03*
X0190050Y0069200D03*
X0185050Y0069200D03*
X0180050Y0069200D03*
X0175050Y0069200D03*
X0170050Y0069200D03*
X0165050Y0069200D03*
X0160050Y0069200D03*
X0155050Y0069200D03*
X0150050Y0069200D03*
X0145050Y0069200D03*
X0140050Y0069200D03*
X0135050Y0069200D03*
X0130050Y0069200D03*
X0125050Y0069200D03*
X0120050Y0069200D03*
X0115050Y0069200D03*
X0110050Y0069200D03*
X0105050Y0069200D03*
X0100050Y0069200D03*
X0095050Y0069200D03*
X0090050Y0069200D03*
X0085050Y0069200D03*
X0080050Y0069200D03*
X0075050Y0069200D03*
X0070050Y0069200D03*
X0065050Y0069200D03*
X0060050Y0069200D03*
X0055050Y0069200D03*
X0050050Y0069200D03*
X0045050Y0069200D03*
X0040050Y0069200D03*
X0035050Y0069200D03*
X0030050Y0069200D03*
X0025050Y0069200D03*
X0020050Y0069200D03*
X0015050Y0069200D03*
X0010050Y0069200D03*
X0005050Y0069200D03*
X0005050Y0075900D03*
X0010050Y0075900D03*
X0015050Y0075900D03*
X0020050Y0075900D03*
X0025050Y0075900D03*
X0030050Y0075900D03*
X0035050Y0075900D03*
X0040050Y0075900D03*
X0045050Y0075900D03*
X0050050Y0075900D03*
X0055050Y0075900D03*
X0060050Y0075900D03*
X0065050Y0075900D03*
X0070050Y0075900D03*
X0075050Y0075900D03*
X0080050Y0075900D03*
X0085050Y0075900D03*
X0090050Y0075900D03*
X0095050Y0075900D03*
X0100050Y0075900D03*
X0105050Y0075900D03*
X0110050Y0075900D03*
X0115050Y0075900D03*
X0120050Y0075900D03*
X0125050Y0075900D03*
X0130050Y0075900D03*
X0135050Y0075900D03*
X0140050Y0075900D03*
X0145050Y0075900D03*
X0150050Y0075900D03*
X0155050Y0075900D03*
X0160050Y0075900D03*
X0165050Y0075900D03*
X0170050Y0075900D03*
X0175050Y0075900D03*
X0180050Y0075900D03*
X0185050Y0075900D03*
X0190050Y0075900D03*
X0190050Y0086700D03*
X0185050Y0086700D03*
X0180050Y0086700D03*
X0175050Y0086700D03*
X0170050Y0086700D03*
X0165050Y0086700D03*
X0160050Y0086700D03*
X0155050Y0086700D03*
X0150050Y0086700D03*
X0145050Y0086700D03*
X0140050Y0086700D03*
X0135050Y0086700D03*
X0130050Y0086700D03*
X0125050Y0086700D03*
X0120050Y0086700D03*
X0115050Y0086700D03*
X0110050Y0086700D03*
X0105050Y0086700D03*
X0100050Y0086700D03*
X0095050Y0086700D03*
X0090050Y0086700D03*
X0085050Y0086700D03*
X0080050Y0086700D03*
X0075050Y0086700D03*
X0070050Y0086700D03*
X0065050Y0086700D03*
X0060050Y0086700D03*
X0055050Y0086700D03*
X0050050Y0086700D03*
X0045050Y0086700D03*
X0040050Y0086700D03*
X0035050Y0086700D03*
X0030050Y0086700D03*
X0025050Y0086700D03*
X0020050Y0086700D03*
X0015050Y0086700D03*
X0010050Y0086700D03*
X0005050Y0086700D03*
X0005050Y0093400D03*
X0010050Y0093400D03*
X0015050Y0093400D03*
X0020050Y0093400D03*
X0025050Y0093400D03*
X0030050Y0093400D03*
X0035050Y0093400D03*
X0040050Y0093400D03*
X0045050Y0093400D03*
X0050050Y0093400D03*
X0055050Y0093400D03*
X0060050Y0093400D03*
X0065050Y0093400D03*
X0070050Y0093400D03*
X0075050Y0093400D03*
X0080050Y0093400D03*
X0085050Y0093400D03*
X0090050Y0093400D03*
X0095050Y0093400D03*
X0100050Y0093400D03*
X0105050Y0093400D03*
X0110050Y0093400D03*
X0115050Y0093400D03*
X0120050Y0093400D03*
X0125050Y0093400D03*
X0130050Y0093400D03*
X0135050Y0093400D03*
X0140050Y0093400D03*
X0145050Y0093400D03*
X0150050Y0093400D03*
X0155050Y0093400D03*
X0160050Y0093400D03*
X0165050Y0093400D03*
X0170050Y0093400D03*
X0175050Y0093400D03*
X0180050Y0093400D03*
X0185050Y0093400D03*
X0190050Y0093400D03*
X0190050Y0104200D03*
X0185050Y0104200D03*
X0180050Y0104200D03*
X0175050Y0104200D03*
X0170050Y0104200D03*
X0165050Y0104200D03*
X0160050Y0104200D03*
X0155050Y0104200D03*
X0150050Y0104200D03*
X0145050Y0104200D03*
X0140050Y0104200D03*
X0135050Y0104200D03*
X0130050Y0104200D03*
X0125050Y0104200D03*
X0120050Y0104200D03*
X0115050Y0104200D03*
X0110050Y0104200D03*
X0105050Y0104200D03*
X0100050Y0104200D03*
X0095050Y0104200D03*
X0090050Y0104200D03*
X0085050Y0104200D03*
X0080050Y0104200D03*
X0075050Y0104200D03*
X0070050Y0104200D03*
X0065050Y0104200D03*
X0060050Y0104200D03*
X0055050Y0104200D03*
X0050050Y0104200D03*
X0045050Y0104200D03*
X0040050Y0104200D03*
X0035050Y0104200D03*
X0030050Y0104200D03*
X0025050Y0104200D03*
X0020050Y0104200D03*
X0015050Y0104200D03*
X0010050Y0104200D03*
X0005050Y0104200D03*
X0005050Y0110900D03*
X0010050Y0110900D03*
X0015050Y0110900D03*
X0020050Y0110900D03*
X0025050Y0110900D03*
X0030050Y0110900D03*
X0035050Y0110900D03*
X0040050Y0110900D03*
X0045050Y0110900D03*
X0050050Y0110900D03*
X0055050Y0110900D03*
X0060050Y0110900D03*
X0065050Y0110900D03*
X0070050Y0110900D03*
X0075050Y0110900D03*
X0080050Y0110900D03*
X0085050Y0110900D03*
X0090050Y0110900D03*
X0095050Y0110900D03*
X0100050Y0110900D03*
X0105050Y0110900D03*
X0110050Y0110900D03*
X0115050Y0110900D03*
X0120050Y0110900D03*
X0125050Y0110900D03*
X0130050Y0110900D03*
X0135050Y0110900D03*
X0140050Y0110900D03*
X0145050Y0110900D03*
X0150050Y0110900D03*
X0155050Y0110900D03*
X0160050Y0110900D03*
X0165050Y0110900D03*
X0170050Y0110900D03*
X0175050Y0110900D03*
X0180050Y0110900D03*
X0185050Y0110900D03*
X0190050Y0110900D03*
X0190050Y0121700D03*
X0185050Y0121700D03*
X0180050Y0121700D03*
X0175050Y0121700D03*
X0170050Y0121700D03*
X0165050Y0121700D03*
X0160050Y0121700D03*
X0155050Y0121700D03*
X0150050Y0121700D03*
X0145050Y0121700D03*
X0140050Y0121700D03*
X0135050Y0121700D03*
X0130050Y0121700D03*
X0125050Y0121700D03*
X0120050Y0121700D03*
X0115050Y0121700D03*
X0110050Y0121700D03*
X0105050Y0121700D03*
X0100050Y0121700D03*
X0095050Y0121700D03*
X0090050Y0121700D03*
X0085050Y0121700D03*
X0080050Y0121700D03*
X0075050Y0121700D03*
X0070050Y0121700D03*
X0065050Y0121700D03*
X0060050Y0121700D03*
X0055050Y0121700D03*
X0050050Y0121700D03*
X0045050Y0121700D03*
X0040050Y0121700D03*
X0035050Y0121700D03*
X0030050Y0121700D03*
X0025050Y0121700D03*
X0020050Y0121700D03*
X0015050Y0121700D03*
X0010050Y0121700D03*
X0005050Y0121700D03*
X0005050Y0128400D03*
X0010050Y0128400D03*
X0015050Y0128400D03*
X0020050Y0128400D03*
X0025050Y0128400D03*
X0030050Y0128400D03*
X0035050Y0128400D03*
X0040050Y0128400D03*
X0045050Y0128400D03*
X0050050Y0128400D03*
X0055050Y0128400D03*
X0060050Y0128400D03*
X0065050Y0128400D03*
X0070050Y0128400D03*
X0075050Y0128400D03*
X0080050Y0128400D03*
X0085050Y0128400D03*
X0090050Y0128400D03*
X0095050Y0128400D03*
X0100050Y0128400D03*
X0105050Y0128400D03*
X0110050Y0128400D03*
X0115050Y0128400D03*
X0120050Y0128400D03*
X0125050Y0128400D03*
X0130050Y0128400D03*
X0135050Y0128400D03*
X0140050Y0128400D03*
X0145050Y0128400D03*
X0150050Y0128400D03*
X0155050Y0128400D03*
X0160050Y0128400D03*
X0165050Y0128400D03*
X0170050Y0128400D03*
X0175050Y0128400D03*
X0180050Y0128400D03*
X0185050Y0128400D03*
X0190050Y0128400D03*
X0190050Y0139200D03*
X0185050Y0139200D03*
X0180050Y0139200D03*
X0175050Y0139200D03*
X0170050Y0139200D03*
X0165050Y0139200D03*
X0160050Y0139200D03*
X0155050Y0139200D03*
X0150050Y0139200D03*
X0145050Y0139200D03*
X0140050Y0139200D03*
X0135050Y0139200D03*
X0130050Y0139200D03*
X0125050Y0139200D03*
X0120050Y0139200D03*
X0115050Y0139200D03*
X0110050Y0139200D03*
X0105050Y0139200D03*
X0100050Y0139200D03*
X0095050Y0139200D03*
X0090050Y0139200D03*
X0085050Y0139200D03*
X0080050Y0139200D03*
X0075050Y0139200D03*
X0070050Y0139200D03*
X0065050Y0139200D03*
X0060050Y0139200D03*
X0055050Y0139200D03*
X0050050Y0139200D03*
X0045050Y0139200D03*
X0040050Y0139200D03*
X0035050Y0139200D03*
X0030050Y0139200D03*
X0025050Y0139200D03*
X0020050Y0139200D03*
X0015050Y0139200D03*
X0010050Y0139200D03*
X0005050Y0139200D03*
X0005050Y0145900D03*
X0010050Y0145900D03*
X0015050Y0145900D03*
X0020050Y0145900D03*
X0025050Y0145900D03*
X0030050Y0145900D03*
X0035050Y0145900D03*
X0040050Y0145900D03*
X0045050Y0145900D03*
X0050050Y0145900D03*
X0055050Y0145900D03*
X0060050Y0145900D03*
X0065050Y0145900D03*
X0070050Y0145900D03*
X0075050Y0145900D03*
X0080050Y0145900D03*
X0085050Y0145900D03*
X0090050Y0145900D03*
X0095050Y0145900D03*
X0100050Y0145900D03*
X0105050Y0145900D03*
X0110050Y0145900D03*
X0115050Y0145900D03*
X0120050Y0145900D03*
X0125050Y0145900D03*
X0130050Y0145900D03*
X0135050Y0145900D03*
X0140050Y0145900D03*
X0145050Y0145900D03*
X0150050Y0145900D03*
X0155050Y0145900D03*
X0160050Y0145900D03*
X0165050Y0145900D03*
X0170050Y0145900D03*
X0175050Y0145900D03*
X0180050Y0145900D03*
X0185050Y0145900D03*
X0190050Y0145900D03*
X0190050Y0156700D03*
X0185050Y0156700D03*
X0180050Y0156700D03*
X0175050Y0156700D03*
X0170050Y0156700D03*
X0165050Y0156700D03*
X0160050Y0156700D03*
X0155050Y0156700D03*
X0150050Y0156700D03*
X0145050Y0156700D03*
X0140050Y0156700D03*
X0135050Y0156700D03*
X0130050Y0156700D03*
X0125050Y0156700D03*
X0120050Y0156700D03*
X0115050Y0156700D03*
X0110050Y0156700D03*
X0105050Y0156700D03*
X0100050Y0156700D03*
X0095050Y0156700D03*
X0090050Y0156700D03*
X0085050Y0156700D03*
X0080050Y0156700D03*
X0075050Y0156700D03*
X0070050Y0156700D03*
X0065050Y0156700D03*
X0060050Y0156700D03*
X0055050Y0156700D03*
X0050050Y0156700D03*
X0045050Y0156700D03*
X0040050Y0156700D03*
X0035050Y0156700D03*
X0030050Y0156700D03*
X0025050Y0156700D03*
X0020050Y0156700D03*
X0015050Y0156700D03*
X0010050Y0156700D03*
X0005050Y0156700D03*
X0005050Y0163400D03*
X0010050Y0163400D03*
X0015050Y0163400D03*
X0020050Y0163400D03*
X0025050Y0163400D03*
X0030050Y0163400D03*
X0035050Y0163400D03*
X0040050Y0163400D03*
X0045050Y0163400D03*
X0050050Y0163400D03*
X0055050Y0163400D03*
X0060050Y0163400D03*
X0065050Y0163400D03*
X0070050Y0163400D03*
X0075050Y0163400D03*
X0080050Y0163400D03*
X0085050Y0163400D03*
X0090050Y0163400D03*
X0095050Y0163400D03*
X0100050Y0163400D03*
X0105050Y0163400D03*
X0110050Y0163400D03*
X0115050Y0163400D03*
X0120050Y0163400D03*
X0125050Y0163400D03*
X0130050Y0163400D03*
X0135050Y0163400D03*
X0140050Y0163400D03*
X0145050Y0163400D03*
X0150050Y0163400D03*
X0155050Y0163400D03*
X0160050Y0163400D03*
X0165050Y0163400D03*
X0170050Y0163400D03*
X0175050Y0163400D03*
X0180050Y0163400D03*
X0185050Y0163400D03*
X0190050Y0163400D03*
X0190050Y0174200D03*
X0185050Y0174200D03*
X0180050Y0174200D03*
X0175050Y0174200D03*
X0170050Y0174200D03*
X0165050Y0174200D03*
X0160050Y0174200D03*
X0155050Y0174200D03*
X0150050Y0174200D03*
X0145050Y0174200D03*
X0140050Y0174200D03*
X0135050Y0174200D03*
X0130050Y0174200D03*
X0125050Y0174200D03*
X0120050Y0174200D03*
X0115050Y0174200D03*
X0110050Y0174200D03*
X0105050Y0174200D03*
X0100050Y0174200D03*
X0095050Y0174200D03*
X0090050Y0174200D03*
X0085050Y0174200D03*
X0080050Y0174200D03*
X0075050Y0174200D03*
X0070050Y0174200D03*
X0065050Y0174200D03*
X0060050Y0174200D03*
X0055050Y0174200D03*
X0050050Y0174200D03*
X0045050Y0174200D03*
X0040050Y0174200D03*
X0035050Y0174200D03*
X0030050Y0174200D03*
X0025050Y0174200D03*
X0020050Y0174200D03*
X0015050Y0174200D03*
X0010050Y0174200D03*
X0005050Y0174200D03*
X0005050Y0180900D03*
X0010050Y0180900D03*
X0015050Y0180900D03*
X0020050Y0180900D03*
X0025050Y0180900D03*
X0030050Y0180900D03*
X0035050Y0180900D03*
X0040050Y0180900D03*
X0045050Y0180900D03*
X0050050Y0180900D03*
X0055050Y0180900D03*
X0060050Y0180900D03*
X0065050Y0180900D03*
X0070050Y0180900D03*
X0075050Y0180900D03*
X0080050Y0180900D03*
X0085050Y0180900D03*
X0090050Y0180900D03*
X0095050Y0180900D03*
X0100050Y0180900D03*
X0105050Y0180900D03*
X0110050Y0180900D03*
X0115050Y0180900D03*
X0120050Y0180900D03*
X0125050Y0180900D03*
X0130050Y0180900D03*
X0135050Y0180900D03*
X0140050Y0180900D03*
X0145050Y0180900D03*
X0150050Y0180900D03*
X0155050Y0180900D03*
X0160050Y0180900D03*
X0165050Y0180900D03*
X0170050Y0180900D03*
X0175050Y0180900D03*
X0180050Y0180900D03*
X0185050Y0180900D03*
X0190050Y0180900D03*
X0190050Y0191700D03*
X0185050Y0191700D03*
X0180050Y0191700D03*
X0175050Y0191700D03*
X0170050Y0191700D03*
X0165050Y0191700D03*
X0160050Y0191700D03*
X0155050Y0191700D03*
X0150050Y0191700D03*
X0145050Y0191700D03*
X0140050Y0191700D03*
X0135050Y0191700D03*
X0130050Y0191700D03*
X0125050Y0191700D03*
X0120050Y0191700D03*
X0115050Y0191700D03*
X0110050Y0191700D03*
X0105050Y0191700D03*
X0100050Y0191700D03*
X0095050Y0191700D03*
X0090050Y0191700D03*
X0085050Y0191700D03*
X0080050Y0191700D03*
X0075050Y0191700D03*
X0070050Y0191700D03*
X0065050Y0191700D03*
X0060050Y0191700D03*
X0055050Y0191700D03*
X0050050Y0191700D03*
X0045050Y0191700D03*
X0040050Y0191700D03*
X0035050Y0191700D03*
X0030050Y0191700D03*
X0025050Y0191700D03*
X0020050Y0191700D03*
X0015050Y0191700D03*
X0010050Y0191700D03*
X0005050Y0191700D03*
D11*
X0097550Y0186300D03*
X0097550Y0168800D03*
X0097550Y0151300D03*
X0097550Y0133800D03*
X0097550Y0116300D03*
X0097550Y0098800D03*
X0097550Y0081300D03*
X0097550Y0063800D03*
X0097550Y0046300D03*
X0097550Y0028800D03*
X0097550Y0011300D03*
D12*
X0001050Y0001050D02*
X0001050Y0197050D01*
X0194050Y0197050D01*
X0194050Y0001050D01*
X0001050Y0001050D01*
D13*
X0005050Y0005050D03*
X0010050Y0005050D03*
X0015050Y0005050D03*
X0020050Y0005050D03*
X0025050Y0005050D03*
X0030050Y0005050D03*
X0035050Y0005050D03*
X0040050Y0005050D03*
X0045050Y0005050D03*
X0050050Y0005050D03*
X0055050Y0005050D03*
X0060050Y0005050D03*
X0065050Y0005050D03*
X0070050Y0005050D03*
X0075050Y0005050D03*
X0080050Y0005050D03*
X0085050Y0005050D03*
X0090050Y0005050D03*
X0095050Y0005050D03*
X0100050Y0005050D03*
X0105050Y0005050D03*
X0110050Y0005050D03*
X0115050Y0005050D03*
X0120050Y0005050D03*
X0125050Y0005050D03*
X0130050Y0005050D03*
X0135050Y0005050D03*
X0140050Y0005050D03*
X0145050Y0005050D03*
X0150050Y0005050D03*
X0155050Y0005050D03*
X0160050Y0005050D03*
X0165050Y0005050D03*
X0170050Y0005050D03*
X0175050Y0005050D03*
X0180050Y0005050D03*
X0185050Y0005050D03*
X0190050Y0005050D03*
X0190050Y0017550D03*
X0190050Y0022550D03*
X0185050Y0022550D03*
X0180050Y0022550D03*
X0180050Y0017550D03*
X0185050Y0017550D03*
X0175050Y0017550D03*
X0170050Y0017550D03*
X0170050Y0022550D03*
X0175050Y0022550D03*
X0165050Y0022550D03*
X0160050Y0022550D03*
X0160050Y0017550D03*
X0165050Y0017550D03*
X0155050Y0017550D03*
X0155050Y0022550D03*
X0150050Y0022550D03*
X0145050Y0022550D03*
X0145050Y0017550D03*
X0150050Y0017550D03*
X0140050Y0017550D03*
X0135050Y0017550D03*
X0135050Y0022550D03*
X0140050Y0022550D03*
X0130050Y0022550D03*
X0125050Y0022550D03*
X0125050Y0017550D03*
X0130050Y0017550D03*
X0120050Y0017550D03*
X0120050Y0022550D03*
X0115050Y0022550D03*
X0110050Y0022550D03*
X0110050Y0017550D03*
X0115050Y0017550D03*
X0105050Y0017550D03*
X0100050Y0017550D03*
X0100050Y0022550D03*
X0105050Y0022550D03*
X0095050Y0022550D03*
X0090050Y0022550D03*
X0090050Y0017550D03*
X0095050Y0017550D03*
X0085050Y0017550D03*
X0080050Y0017550D03*
X0080050Y0022550D03*
X0085050Y0022550D03*
X0075050Y0022550D03*
X0075050Y0017550D03*
X0070050Y0017550D03*
X0065050Y0017550D03*
X0065050Y0022550D03*
X0070050Y0022550D03*
X0060050Y0022550D03*
X0055050Y0022550D03*
X0055050Y0017550D03*
X0060050Y0017550D03*
X0050050Y0017550D03*
X0045050Y0017550D03*
X0045050Y0022550D03*
X0050050Y0022550D03*
X0040050Y0022550D03*
X0040050Y0017550D03*
X0035050Y0017550D03*
X0030050Y0017550D03*
X0030050Y0022550D03*
X0035050Y0022550D03*
X0025050Y0022550D03*
X0020050Y0022550D03*
X0020050Y0017550D03*
X0025050Y0017550D03*
X0015050Y0017550D03*
X0010050Y0017550D03*
X0010050Y0022550D03*
X0015050Y0022550D03*
X0005050Y0022550D03*
X0005050Y0017550D03*
X0005050Y0035050D03*
X0005050Y0040050D03*
X0010050Y0040050D03*
X0015050Y0040050D03*
X0015050Y0035050D03*
X0010050Y0035050D03*
X0020050Y0035050D03*
X0025050Y0035050D03*
X0025050Y0040050D03*
X0020050Y0040050D03*
X0030050Y0040050D03*
X0035050Y0040050D03*
X0035050Y0035050D03*
X0030050Y0035050D03*
X0040050Y0035050D03*
X0040050Y0040050D03*
X0045050Y0040050D03*
X0050050Y0040050D03*
X0050050Y0035050D03*
X0045050Y0035050D03*
X0055050Y0035050D03*
X0060050Y0035050D03*
X0060050Y0040050D03*
X0055050Y0040050D03*
X0065050Y0040050D03*
X0070050Y0040050D03*
X0070050Y0035050D03*
X0065050Y0035050D03*
X0075050Y0035050D03*
X0075050Y0040050D03*
X0080050Y0040050D03*
X0085050Y0040050D03*
X0085050Y0035050D03*
X0080050Y0035050D03*
X0090050Y0035050D03*
X0095050Y0035050D03*
X0095050Y0040050D03*
X0090050Y0040050D03*
X0100050Y0040050D03*
X0105050Y0040050D03*
X0105050Y0035050D03*
X0100050Y0035050D03*
X0110050Y0035050D03*
X0115050Y0035050D03*
X0115050Y0040050D03*
X0110050Y0040050D03*
X0120050Y0040050D03*
X0120050Y0035050D03*
X0125050Y0035050D03*
X0130050Y0035050D03*
X0130050Y0040050D03*
X0125050Y0040050D03*
X0135050Y0040050D03*
X0140050Y0040050D03*
X0140050Y0035050D03*
X0135050Y0035050D03*
X0145050Y0035050D03*
X0150050Y0035050D03*
X0150050Y0040050D03*
X0145050Y0040050D03*
X0155050Y0040050D03*
X0155050Y0035050D03*
X0160050Y0035050D03*
X0165050Y0035050D03*
X0165050Y0040050D03*
X0160050Y0040050D03*
X0170050Y0040050D03*
X0175050Y0040050D03*
X0175050Y0035050D03*
X0170050Y0035050D03*
X0180050Y0035050D03*
X0185050Y0035050D03*
X0185050Y0040050D03*
X0180050Y0040050D03*
X0190050Y0040050D03*
X0190050Y0035050D03*
X0190050Y0052550D03*
X0190050Y0057550D03*
X0185050Y0057550D03*
X0180050Y0057550D03*
X0180050Y0052550D03*
X0185050Y0052550D03*
X0175050Y0052550D03*
X0170050Y0052550D03*
X0170050Y0057550D03*
X0175050Y0057550D03*
X0165050Y0057550D03*
X0160050Y0057550D03*
X0160050Y0052550D03*
X0165050Y0052550D03*
X0155050Y0052550D03*
X0155050Y0057550D03*
X0150050Y0057550D03*
X0145050Y0057550D03*
X0145050Y0052550D03*
X0150050Y0052550D03*
X0140050Y0052550D03*
X0135050Y0052550D03*
X0135050Y0057550D03*
X0140050Y0057550D03*
X0130050Y0057550D03*
X0125050Y0057550D03*
X0125050Y0052550D03*
X0130050Y0052550D03*
X0120050Y0052550D03*
X0120050Y0057550D03*
X0115050Y0057550D03*
X0110050Y0057550D03*
X0110050Y0052550D03*
X0115050Y0052550D03*
X0105050Y0052550D03*
X0100050Y0052550D03*
X0100050Y0057550D03*
X0105050Y0057550D03*
X0095050Y0057550D03*
X0090050Y0057550D03*
X0090050Y0052550D03*
X0095050Y0052550D03*
X0085050Y0052550D03*
X0080050Y0052550D03*
X0080050Y0057550D03*
X0085050Y0057550D03*
X0075050Y0057550D03*
X0075050Y0052550D03*
X0070050Y0052550D03*
X0065050Y0052550D03*
X0065050Y0057550D03*
X0070050Y0057550D03*
X0060050Y0057550D03*
X0055050Y0057550D03*
X0055050Y0052550D03*
X0060050Y0052550D03*
X0050050Y0052550D03*
X0045050Y0052550D03*
X0045050Y0057550D03*
X0050050Y0057550D03*
X0040050Y0057550D03*
X0040050Y0052550D03*
X0035050Y0052550D03*
X0030050Y0052550D03*
X0030050Y0057550D03*
X0035050Y0057550D03*
X0025050Y0057550D03*
X0020050Y0057550D03*
X0020050Y0052550D03*
X0025050Y0052550D03*
X0015050Y0052550D03*
X0010050Y0052550D03*
X0010050Y0057550D03*
X0015050Y0057550D03*
X0005050Y0057550D03*
X0005050Y0052550D03*
X0005050Y0070050D03*
X0005050Y0075050D03*
X0010050Y0075050D03*
X0010050Y0070050D03*
X0015050Y0070050D03*
X0015050Y0075050D03*
X0020050Y0075050D03*
X0020050Y0070050D03*
X0025050Y0070050D03*
X0025050Y0075050D03*
X0030050Y0075050D03*
X0030050Y0070050D03*
X0035050Y0070050D03*
X0035050Y0075050D03*
X0040050Y0075050D03*
X0040050Y0070050D03*
X0045050Y0070050D03*
X0045050Y0075050D03*
X0050050Y0075050D03*
X0050050Y0070050D03*
X0055050Y0070050D03*
X0055050Y0075050D03*
X0060050Y0075050D03*
X0060050Y0070050D03*
X0065050Y0070050D03*
X0065050Y0075050D03*
X0070050Y0075050D03*
X0070050Y0070050D03*
X0075050Y0070050D03*
X0075050Y0075050D03*
X0080050Y0075050D03*
X0080050Y0070050D03*
X0085050Y0070050D03*
X0085050Y0075050D03*
X0090050Y0075050D03*
X0090050Y0070050D03*
X0095050Y0070050D03*
X0095050Y0075050D03*
X0100050Y0075050D03*
X0100050Y0070050D03*
X0105050Y0070050D03*
X0105050Y0075050D03*
X0110050Y0075050D03*
X0110050Y0070050D03*
X0115050Y0070050D03*
X0115050Y0075050D03*
X0120050Y0075050D03*
X0120050Y0070050D03*
X0125050Y0070050D03*
X0125050Y0075050D03*
X0130050Y0075050D03*
X0130050Y0070050D03*
X0135050Y0070050D03*
X0135050Y0075050D03*
X0140050Y0075050D03*
X0140050Y0070050D03*
X0145050Y0070050D03*
X0145050Y0075050D03*
X0150050Y0075050D03*
X0150050Y0070050D03*
X0155050Y0070050D03*
X0155050Y0075050D03*
X0160050Y0075050D03*
X0160050Y0070050D03*
X0165050Y0070050D03*
X0165050Y0075050D03*
X0170050Y0075050D03*
X0170050Y0070050D03*
X0175050Y0070050D03*
X0175050Y0075050D03*
X0180050Y0075050D03*
X0180050Y0070050D03*
X0185050Y0070050D03*
X0185050Y0075050D03*
X0190050Y0075050D03*
X0190050Y0070050D03*
X0190050Y0087550D03*
X0190050Y0092550D03*
X0185050Y0092550D03*
X0185050Y0087550D03*
X0180050Y0087550D03*
X0180050Y0092550D03*
X0175050Y0092550D03*
X0175050Y0087550D03*
X0170050Y0087550D03*
X0170050Y0092550D03*
X0165050Y0092550D03*
X0165050Y0087550D03*
X0160050Y0087550D03*
X0160050Y0092550D03*
X0155050Y0092550D03*
X0155050Y0087550D03*
X0150050Y0087550D03*
X0150050Y0092550D03*
X0145050Y0092550D03*
X0145050Y0087550D03*
X0140050Y0087550D03*
X0140050Y0092550D03*
X0135050Y0092550D03*
X0135050Y0087550D03*
X0130050Y0087550D03*
X0130050Y0092550D03*
X0125050Y0092550D03*
X0125050Y0087550D03*
X0120050Y0087550D03*
X0120050Y0092550D03*
X0115050Y0092550D03*
X0115050Y0087550D03*
X0110050Y0087550D03*
X0110050Y0092550D03*
X0105050Y0092550D03*
X0105050Y0087550D03*
X0100050Y0087550D03*
X0100050Y0092550D03*
X0095050Y0092550D03*
X0095050Y0087550D03*
X0090050Y0087550D03*
X0090050Y0092550D03*
X0085050Y0092550D03*
X0085050Y0087550D03*
X0080050Y0087550D03*
X0080050Y0092550D03*
X0075050Y0092550D03*
X0075050Y0087550D03*
X0070050Y0087550D03*
X0070050Y0092550D03*
X0065050Y0092550D03*
X0065050Y0087550D03*
X0060050Y0087550D03*
X0060050Y0092550D03*
X0055050Y0092550D03*
X0055050Y0087550D03*
X0050050Y0087550D03*
X0050050Y0092550D03*
X0045050Y0092550D03*
X0045050Y0087550D03*
X0040050Y0087550D03*
X0040050Y0092550D03*
X0035050Y0092550D03*
X0035050Y0087550D03*
X0030050Y0087550D03*
X0030050Y0092550D03*
X0025050Y0092550D03*
X0025050Y0087550D03*
X0020050Y0087550D03*
X0020050Y0092550D03*
X0015050Y0092550D03*
X0015050Y0087550D03*
X0010050Y0087550D03*
X0010050Y0092550D03*
X0005050Y0092550D03*
X0005050Y0087550D03*
X0005050Y0105050D03*
X0005050Y0110050D03*
X0010050Y0110050D03*
X0010050Y0105050D03*
X0015050Y0105050D03*
X0015050Y0110050D03*
X0020050Y0110050D03*
X0020050Y0105050D03*
X0025050Y0105050D03*
X0025050Y0110050D03*
X0030050Y0110050D03*
X0030050Y0105050D03*
X0035050Y0105050D03*
X0035050Y0110050D03*
X0040050Y0110050D03*
X0040050Y0105050D03*
X0045050Y0105050D03*
X0045050Y0110050D03*
X0050050Y0110050D03*
X0050050Y0105050D03*
X0055050Y0105050D03*
X0055050Y0110050D03*
X0060050Y0110050D03*
X0060050Y0105050D03*
X0065050Y0105050D03*
X0065050Y0110050D03*
X0070050Y0110050D03*
X0070050Y0105050D03*
X0075050Y0105050D03*
X0075050Y0110050D03*
X0080050Y0110050D03*
X0080050Y0105050D03*
X0085050Y0105050D03*
X0085050Y0110050D03*
X0090050Y0110050D03*
X0090050Y0105050D03*
X0095050Y0105050D03*
X0095050Y0110050D03*
X0100050Y0110050D03*
X0100050Y0105050D03*
X0105050Y0105050D03*
X0105050Y0110050D03*
X0110050Y0110050D03*
X0110050Y0105050D03*
X0115050Y0105050D03*
X0115050Y0110050D03*
X0120050Y0110050D03*
X0120050Y0105050D03*
X0125050Y0105050D03*
X0125050Y0110050D03*
X0130050Y0110050D03*
X0130050Y0105050D03*
X0135050Y0105050D03*
X0135050Y0110050D03*
X0140050Y0110050D03*
X0140050Y0105050D03*
X0145050Y0105050D03*
X0145050Y0110050D03*
X0150050Y0110050D03*
X0150050Y0105050D03*
X0155050Y0105050D03*
X0155050Y0110050D03*
X0160050Y0110050D03*
X0160050Y0105050D03*
X0165050Y0105050D03*
X0165050Y0110050D03*
X0170050Y0110050D03*
X0170050Y0105050D03*
X0175050Y0105050D03*
X0175050Y0110050D03*
X0180050Y0110050D03*
X0180050Y0105050D03*
X0185050Y0105050D03*
X0185050Y0110050D03*
X0190050Y0110050D03*
X0190050Y0105050D03*
X0190050Y0122550D03*
X0190050Y0127550D03*
X0185050Y0127550D03*
X0180050Y0127550D03*
X0180050Y0122550D03*
X0185050Y0122550D03*
X0175050Y0122550D03*
X0170050Y0122550D03*
X0170050Y0127550D03*
X0175050Y0127550D03*
X0165050Y0127550D03*
X0160050Y0127550D03*
X0160050Y0122550D03*
X0165050Y0122550D03*
X0155050Y0122550D03*
X0155050Y0127550D03*
X0150050Y0127550D03*
X0145050Y0127550D03*
X0145050Y0122550D03*
X0150050Y0122550D03*
X0140050Y0122550D03*
X0135050Y0122550D03*
X0135050Y0127550D03*
X0140050Y0127550D03*
X0130050Y0127550D03*
X0125050Y0127550D03*
X0125050Y0122550D03*
X0130050Y0122550D03*
X0120050Y0122550D03*
X0120050Y0127550D03*
X0115050Y0127550D03*
X0110050Y0127550D03*
X0110050Y0122550D03*
X0115050Y0122550D03*
X0105050Y0122550D03*
X0100050Y0122550D03*
X0100050Y0127550D03*
X0105050Y0127550D03*
X0095050Y0127550D03*
X0090050Y0127550D03*
X0090050Y0122550D03*
X0095050Y0122550D03*
X0085050Y0122550D03*
X0080050Y0122550D03*
X0080050Y0127550D03*
X0085050Y0127550D03*
X0075050Y0127550D03*
X0075050Y0122550D03*
X0070050Y0122550D03*
X0065050Y0122550D03*
X0065050Y0127550D03*
X0070050Y0127550D03*
X0060050Y0127550D03*
X0055050Y0127550D03*
X0055050Y0122550D03*
X0060050Y0122550D03*
X0050050Y0122550D03*
X0045050Y0122550D03*
X0045050Y0127550D03*
X0050050Y0127550D03*
X0040050Y0127550D03*
X0040050Y0122550D03*
X0035050Y0122550D03*
X0030050Y0122550D03*
X0030050Y0127550D03*
X0035050Y0127550D03*
X0025050Y0127550D03*
X0020050Y0127550D03*
X0020050Y0122550D03*
X0025050Y0122550D03*
X0015050Y0122550D03*
X0010050Y0122550D03*
X0010050Y0127550D03*
X0015050Y0127550D03*
X0005050Y0127550D03*
X0005050Y0122550D03*
X0005050Y0140050D03*
X0005050Y0145050D03*
X0010050Y0145050D03*
X0015050Y0145050D03*
X0015050Y0140050D03*
X0010050Y0140050D03*
X0020050Y0140050D03*
X0025050Y0140050D03*
X0025050Y0145050D03*
X0020050Y0145050D03*
X0030050Y0145050D03*
X0035050Y0145050D03*
X0035050Y0140050D03*
X0030050Y0140050D03*
X0040050Y0140050D03*
X0040050Y0145050D03*
X0045050Y0145050D03*
X0050050Y0145050D03*
X0050050Y0140050D03*
X0045050Y0140050D03*
X0055050Y0140050D03*
X0060050Y0140050D03*
X0060050Y0145050D03*
X0055050Y0145050D03*
X0065050Y0145050D03*
X0070050Y0145050D03*
X0070050Y0140050D03*
X0065050Y0140050D03*
X0075050Y0140050D03*
X0075050Y0145050D03*
X0080050Y0145050D03*
X0085050Y0145050D03*
X0085050Y0140050D03*
X0080050Y0140050D03*
X0090050Y0140050D03*
X0095050Y0140050D03*
X0095050Y0145050D03*
X0090050Y0145050D03*
X0100050Y0145050D03*
X0105050Y0145050D03*
X0105050Y0140050D03*
X0100050Y0140050D03*
X0110050Y0140050D03*
X0115050Y0140050D03*
X0115050Y0145050D03*
X0110050Y0145050D03*
X0120050Y0145050D03*
X0120050Y0140050D03*
X0125050Y0140050D03*
X0130050Y0140050D03*
X0130050Y0145050D03*
X0125050Y0145050D03*
X0135050Y0145050D03*
X0140050Y0145050D03*
X0140050Y0140050D03*
X0135050Y0140050D03*
X0145050Y0140050D03*
X0150050Y0140050D03*
X0150050Y0145050D03*
X0145050Y0145050D03*
X0155050Y0145050D03*
X0155050Y0140050D03*
X0160050Y0140050D03*
X0165050Y0140050D03*
X0165050Y0145050D03*
X0160050Y0145050D03*
X0170050Y0145050D03*
X0175050Y0145050D03*
X0175050Y0140050D03*
X0170050Y0140050D03*
X0180050Y0140050D03*
X0185050Y0140050D03*
X0185050Y0145050D03*
X0180050Y0145050D03*
X0190050Y0145050D03*
X0190050Y0140050D03*
X0190050Y0157550D03*
X0190050Y0162550D03*
X0185050Y0162550D03*
X0180050Y0162550D03*
X0180050Y0157550D03*
X0185050Y0157550D03*
X0175050Y0157550D03*
X0170050Y0157550D03*
X0170050Y0162550D03*
X0175050Y0162550D03*
X0165050Y0162550D03*
X0160050Y0162550D03*
X0160050Y0157550D03*
X0165050Y0157550D03*
X0155050Y0157550D03*
X0155050Y0162550D03*
X0150050Y0162550D03*
X0145050Y0162550D03*
X0145050Y0157550D03*
X0150050Y0157550D03*
X0140050Y0157550D03*
X0135050Y0157550D03*
X0135050Y0162550D03*
X0140050Y0162550D03*
X0130050Y0162550D03*
X0125050Y0162550D03*
X0125050Y0157550D03*
X0130050Y0157550D03*
X0120050Y0157550D03*
X0120050Y0162550D03*
X0115050Y0162550D03*
X0110050Y0162550D03*
X0110050Y0157550D03*
X0115050Y0157550D03*
X0105050Y0157550D03*
X0100050Y0157550D03*
X0100050Y0162550D03*
X0105050Y0162550D03*
X0095050Y0162550D03*
X0090050Y0162550D03*
X0090050Y0157550D03*
X0095050Y0157550D03*
X0085050Y0157550D03*
X0080050Y0157550D03*
X0080050Y0162550D03*
X0085050Y0162550D03*
X0075050Y0162550D03*
X0075050Y0157550D03*
X0070050Y0157550D03*
X0065050Y0157550D03*
X0065050Y0162550D03*
X0070050Y0162550D03*
X0060050Y0162550D03*
X0055050Y0162550D03*
X0055050Y0157550D03*
X0060050Y0157550D03*
X0050050Y0157550D03*
X0045050Y0157550D03*
X0045050Y0162550D03*
X0050050Y0162550D03*
X0040050Y0162550D03*
X0040050Y0157550D03*
X0035050Y0157550D03*
X0030050Y0157550D03*
X0030050Y0162550D03*
X0035050Y0162550D03*
X0025050Y0162550D03*
X0020050Y0162550D03*
X0020050Y0157550D03*
X0025050Y0157550D03*
X0015050Y0157550D03*
X0010050Y0157550D03*
X0010050Y0162550D03*
X0015050Y0162550D03*
X0005050Y0162550D03*
X0005050Y0157550D03*
X0005050Y0175050D03*
X0005050Y0180050D03*
X0010050Y0180050D03*
X0010050Y0175050D03*
X0015050Y0175050D03*
X0015050Y0180050D03*
X0020050Y0180050D03*
X0020050Y0175050D03*
X0025050Y0175050D03*
X0025050Y0180050D03*
X0030050Y0180050D03*
X0030050Y0175050D03*
X0035050Y0175050D03*
X0035050Y0180050D03*
X0040050Y0180050D03*
X0040050Y0175050D03*
X0045050Y0175050D03*
X0045050Y0180050D03*
X0050050Y0180050D03*
X0050050Y0175050D03*
X0055050Y0175050D03*
X0055050Y0180050D03*
X0060050Y0180050D03*
X0060050Y0175050D03*
X0065050Y0175050D03*
X0065050Y0180050D03*
X0070050Y0180050D03*
X0070050Y0175050D03*
X0075050Y0175050D03*
X0075050Y0180050D03*
X0080050Y0180050D03*
X0080050Y0175050D03*
X0085050Y0175050D03*
X0085050Y0180050D03*
X0090050Y0180050D03*
X0090050Y0175050D03*
X0095050Y0175050D03*
X0095050Y0180050D03*
X0100050Y0180050D03*
X0100050Y0175050D03*
X0105050Y0175050D03*
X0105050Y0180050D03*
X0110050Y0180050D03*
X0110050Y0175050D03*
X0115050Y0175050D03*
X0115050Y0180050D03*
X0120050Y0180050D03*
X0120050Y0175050D03*
X0125050Y0175050D03*
X0125050Y0180050D03*
X0130050Y0180050D03*
X0130050Y0175050D03*
X0135050Y0175050D03*
X0135050Y0180050D03*
X0140050Y0180050D03*
X0140050Y0175050D03*
X0145050Y0175050D03*
X0145050Y0180050D03*
X0150050Y0180050D03*
X0150050Y0175050D03*
X0155050Y0175050D03*
X0155050Y0180050D03*
X0160050Y0180050D03*
X0160050Y0175050D03*
X0165050Y0175050D03*
X0165050Y0180050D03*
X0170050Y0180050D03*
X0170050Y0175050D03*
X0175050Y0175050D03*
X0175050Y0180050D03*
X0180050Y0180050D03*
X0180050Y0175050D03*
X0185050Y0175050D03*
X0185050Y0180050D03*
X0190050Y0180050D03*
X0190050Y0175050D03*
X0190050Y0192550D03*
X0185050Y0192550D03*
X0180050Y0192550D03*
X0175050Y0192550D03*
X0170050Y0192550D03*
X0165050Y0192550D03*
X0160050Y0192550D03*
X0155050Y0192550D03*
X0150050Y0192550D03*
X0145050Y0192550D03*
X0140050Y0192550D03*
X0135050Y0192550D03*
X0130050Y0192550D03*
X0125050Y0192550D03*
X0120050Y0192550D03*
X0115050Y0192550D03*
X0110050Y0192550D03*
X0105050Y0192550D03*
X0100050Y0192550D03*
X0095050Y0192550D03*
X0090050Y0192550D03*
X0085050Y0192550D03*
X0080050Y0192550D03*
X0075050Y0192550D03*
X0070050Y0192550D03*
X0065050Y0192550D03*
X0060050Y0192550D03*
X0055050Y0192550D03*
X0050050Y0192550D03*
X0045050Y0192550D03*
X0040050Y0192550D03*
X0035050Y0192550D03*
X0030050Y0192550D03*
X0025050Y0192550D03*
X0020050Y0192550D03*
X0015050Y0192550D03*
X0010050Y0192550D03*
X0005050Y0192550D03*
M02*
