G75*
%MOIN*%
%OFA0B0*%
%FSLAX25Y25*%
%IPPOS*%
%LPD*%
%AMOC8*
5,1,8,0,0,1.08239X$1,22.5*
%
%ADD10R,0.04200X0.07900*%
%ADD11C,0.00000*%
%ADD12R,0.04200X0.04200*%
D10*
X0005050Y0006900D03*
X0010050Y0006900D03*
X0015050Y0006900D03*
X0020050Y0006900D03*
X0025050Y0006900D03*
X0030050Y0006900D03*
X0035050Y0006900D03*
X0040050Y0006900D03*
X0045050Y0006900D03*
X0050050Y0006900D03*
X0055050Y0006900D03*
X0060050Y0006900D03*
X0065050Y0006900D03*
X0070050Y0006900D03*
X0075050Y0006900D03*
X0080050Y0006900D03*
X0085050Y0006900D03*
X0090050Y0006900D03*
X0095050Y0006900D03*
X0100050Y0006900D03*
X0105050Y0006900D03*
X0110050Y0006900D03*
X0115050Y0006900D03*
X0120050Y0006900D03*
X0125050Y0006900D03*
X0130050Y0006900D03*
X0135050Y0006900D03*
X0140050Y0006900D03*
X0145050Y0006900D03*
X0150050Y0006900D03*
X0155050Y0006900D03*
X0160050Y0006900D03*
X0165050Y0006900D03*
X0170050Y0006900D03*
X0175050Y0006900D03*
X0180050Y0006900D03*
X0185050Y0006900D03*
X0190050Y0006900D03*
X0190050Y0015700D03*
X0185050Y0015700D03*
X0180050Y0015700D03*
X0175050Y0015700D03*
X0170050Y0015700D03*
X0165050Y0015700D03*
X0160050Y0015700D03*
X0155050Y0015700D03*
X0150050Y0015700D03*
X0145050Y0015700D03*
X0140050Y0015700D03*
X0135050Y0015700D03*
X0130050Y0015700D03*
X0125050Y0015700D03*
X0120050Y0015700D03*
X0115050Y0015700D03*
X0110050Y0015700D03*
X0105050Y0015700D03*
X0100050Y0015700D03*
X0095050Y0015700D03*
X0090050Y0015700D03*
X0085050Y0015700D03*
X0080050Y0015700D03*
X0075050Y0015700D03*
X0070050Y0015700D03*
X0065050Y0015700D03*
X0060050Y0015700D03*
X0055050Y0015700D03*
X0050050Y0015700D03*
X0045050Y0015700D03*
X0040050Y0015700D03*
X0035050Y0015700D03*
X0030050Y0015700D03*
X0025050Y0015700D03*
X0020050Y0015700D03*
X0015050Y0015700D03*
X0010050Y0015700D03*
X0005050Y0015700D03*
X0005050Y0024400D03*
X0010050Y0024400D03*
X0015050Y0024400D03*
X0020050Y0024400D03*
X0025050Y0024400D03*
X0030050Y0024400D03*
X0035050Y0024400D03*
X0040050Y0024400D03*
X0045050Y0024400D03*
X0050050Y0024400D03*
X0055050Y0024400D03*
X0060050Y0024400D03*
X0065050Y0024400D03*
X0070050Y0024400D03*
X0075050Y0024400D03*
X0080050Y0024400D03*
X0085050Y0024400D03*
X0090050Y0024400D03*
X0095050Y0024400D03*
X0100050Y0024400D03*
X0105050Y0024400D03*
X0110050Y0024400D03*
X0115050Y0024400D03*
X0120050Y0024400D03*
X0125050Y0024400D03*
X0130050Y0024400D03*
X0135050Y0024400D03*
X0140050Y0024400D03*
X0145050Y0024400D03*
X0150050Y0024400D03*
X0155050Y0024400D03*
X0160050Y0024400D03*
X0165050Y0024400D03*
X0170050Y0024400D03*
X0175050Y0024400D03*
X0180050Y0024400D03*
X0185050Y0024400D03*
X0190050Y0024400D03*
X0190050Y0033200D03*
X0185050Y0033200D03*
X0180050Y0033200D03*
X0175050Y0033200D03*
X0170050Y0033200D03*
X0165050Y0033200D03*
X0160050Y0033200D03*
X0155050Y0033200D03*
X0150050Y0033200D03*
X0145050Y0033200D03*
X0140050Y0033200D03*
X0135050Y0033200D03*
X0130050Y0033200D03*
X0125050Y0033200D03*
X0120050Y0033200D03*
X0115050Y0033200D03*
X0110050Y0033200D03*
X0105050Y0033200D03*
X0100050Y0033200D03*
X0095050Y0033200D03*
X0090050Y0033200D03*
X0085050Y0033200D03*
X0080050Y0033200D03*
X0075050Y0033200D03*
X0070050Y0033200D03*
X0065050Y0033200D03*
X0060050Y0033200D03*
X0055050Y0033200D03*
X0050050Y0033200D03*
X0045050Y0033200D03*
X0040050Y0033200D03*
X0035050Y0033200D03*
X0030050Y0033200D03*
X0025050Y0033200D03*
X0020050Y0033200D03*
X0015050Y0033200D03*
X0010050Y0033200D03*
X0005050Y0033200D03*
X0005050Y0041900D03*
X0010050Y0041900D03*
X0015050Y0041900D03*
X0020050Y0041900D03*
X0025050Y0041900D03*
X0030050Y0041900D03*
X0035050Y0041900D03*
X0040050Y0041900D03*
X0045050Y0041900D03*
X0050050Y0041900D03*
X0055050Y0041900D03*
X0060050Y0041900D03*
X0065050Y0041900D03*
X0070050Y0041900D03*
X0075050Y0041900D03*
X0080050Y0041900D03*
X0085050Y0041900D03*
X0090050Y0041900D03*
X0095050Y0041900D03*
X0100050Y0041900D03*
X0105050Y0041900D03*
X0110050Y0041900D03*
X0115050Y0041900D03*
X0120050Y0041900D03*
X0125050Y0041900D03*
X0130050Y0041900D03*
X0135050Y0041900D03*
X0140050Y0041900D03*
X0145050Y0041900D03*
X0150050Y0041900D03*
X0155050Y0041900D03*
X0160050Y0041900D03*
X0165050Y0041900D03*
X0170050Y0041900D03*
X0175050Y0041900D03*
X0180050Y0041900D03*
X0185050Y0041900D03*
X0190050Y0041900D03*
X0190050Y0050700D03*
X0185050Y0050700D03*
X0180050Y0050700D03*
X0175050Y0050700D03*
X0170050Y0050700D03*
X0165050Y0050700D03*
X0160050Y0050700D03*
X0155050Y0050700D03*
X0150050Y0050700D03*
X0145050Y0050700D03*
X0140050Y0050700D03*
X0135050Y0050700D03*
X0130050Y0050700D03*
X0125050Y0050700D03*
X0120050Y0050700D03*
X0115050Y0050700D03*
X0110050Y0050700D03*
X0105050Y0050700D03*
X0100050Y0050700D03*
X0095050Y0050700D03*
X0090050Y0050700D03*
X0085050Y0050700D03*
X0080050Y0050700D03*
X0075050Y0050700D03*
X0070050Y0050700D03*
X0065050Y0050700D03*
X0060050Y0050700D03*
X0055050Y0050700D03*
X0050050Y0050700D03*
X0045050Y0050700D03*
X0040050Y0050700D03*
X0035050Y0050700D03*
X0030050Y0050700D03*
X0025050Y0050700D03*
X0020050Y0050700D03*
X0015050Y0050700D03*
X0010050Y0050700D03*
X0005050Y0050700D03*
X0005050Y0059400D03*
X0010050Y0059400D03*
X0015050Y0059400D03*
X0020050Y0059400D03*
X0025050Y0059400D03*
X0030050Y0059400D03*
X0035050Y0059400D03*
X0040050Y0059400D03*
X0045050Y0059400D03*
X0050050Y0059400D03*
X0055050Y0059400D03*
X0060050Y0059400D03*
X0065050Y0059400D03*
X0070050Y0059400D03*
X0075050Y0059400D03*
X0080050Y0059400D03*
X0085050Y0059400D03*
X0090050Y0059400D03*
X0095050Y0059400D03*
X0100050Y0059400D03*
X0105050Y0059400D03*
X0110050Y0059400D03*
X0115050Y0059400D03*
X0120050Y0059400D03*
X0125050Y0059400D03*
X0130050Y0059400D03*
X0135050Y0059400D03*
X0140050Y0059400D03*
X0145050Y0059400D03*
X0150050Y0059400D03*
X0155050Y0059400D03*
X0160050Y0059400D03*
X0165050Y0059400D03*
X0170050Y0059400D03*
X0175050Y0059400D03*
X0180050Y0059400D03*
X0185050Y0059400D03*
X0190050Y0059400D03*
X0190050Y0068200D03*
X0185050Y0068200D03*
X0180050Y0068200D03*
X0175050Y0068200D03*
X0170050Y0068200D03*
X0165050Y0068200D03*
X0160050Y0068200D03*
X0155050Y0068200D03*
X0150050Y0068200D03*
X0145050Y0068200D03*
X0140050Y0068200D03*
X0135050Y0068200D03*
X0130050Y0068200D03*
X0125050Y0068200D03*
X0120050Y0068200D03*
X0115050Y0068200D03*
X0110050Y0068200D03*
X0105050Y0068200D03*
X0100050Y0068200D03*
X0095050Y0068200D03*
X0090050Y0068200D03*
X0085050Y0068200D03*
X0080050Y0068200D03*
X0075050Y0068200D03*
X0070050Y0068200D03*
X0065050Y0068200D03*
X0060050Y0068200D03*
X0055050Y0068200D03*
X0050050Y0068200D03*
X0045050Y0068200D03*
X0040050Y0068200D03*
X0035050Y0068200D03*
X0030050Y0068200D03*
X0025050Y0068200D03*
X0020050Y0068200D03*
X0015050Y0068200D03*
X0010050Y0068200D03*
X0005050Y0068200D03*
X0005050Y0076900D03*
X0010050Y0076900D03*
X0015050Y0076900D03*
X0020050Y0076900D03*
X0025050Y0076900D03*
X0030050Y0076900D03*
X0035050Y0076900D03*
X0040050Y0076900D03*
X0045050Y0076900D03*
X0050050Y0076900D03*
X0055050Y0076900D03*
X0060050Y0076900D03*
X0065050Y0076900D03*
X0070050Y0076900D03*
X0075050Y0076900D03*
X0080050Y0076900D03*
X0085050Y0076900D03*
X0090050Y0076900D03*
X0095050Y0076900D03*
X0100050Y0076900D03*
X0105050Y0076900D03*
X0110050Y0076900D03*
X0115050Y0076900D03*
X0120050Y0076900D03*
X0125050Y0076900D03*
X0130050Y0076900D03*
X0135050Y0076900D03*
X0140050Y0076900D03*
X0145050Y0076900D03*
X0150050Y0076900D03*
X0155050Y0076900D03*
X0160050Y0076900D03*
X0165050Y0076900D03*
X0170050Y0076900D03*
X0175050Y0076900D03*
X0180050Y0076900D03*
X0185050Y0076900D03*
X0190050Y0076900D03*
X0190050Y0085700D03*
X0185050Y0085700D03*
X0180050Y0085700D03*
X0175050Y0085700D03*
X0170050Y0085700D03*
X0165050Y0085700D03*
X0160050Y0085700D03*
X0155050Y0085700D03*
X0150050Y0085700D03*
X0145050Y0085700D03*
X0140050Y0085700D03*
X0135050Y0085700D03*
X0130050Y0085700D03*
X0125050Y0085700D03*
X0120050Y0085700D03*
X0115050Y0085700D03*
X0110050Y0085700D03*
X0105050Y0085700D03*
X0100050Y0085700D03*
X0095050Y0085700D03*
X0090050Y0085700D03*
X0085050Y0085700D03*
X0080050Y0085700D03*
X0075050Y0085700D03*
X0070050Y0085700D03*
X0065050Y0085700D03*
X0060050Y0085700D03*
X0055050Y0085700D03*
X0050050Y0085700D03*
X0045050Y0085700D03*
X0040050Y0085700D03*
X0035050Y0085700D03*
X0030050Y0085700D03*
X0025050Y0085700D03*
X0020050Y0085700D03*
X0015050Y0085700D03*
X0010050Y0085700D03*
X0005050Y0085700D03*
X0005050Y0094400D03*
X0010050Y0094400D03*
X0015050Y0094400D03*
X0020050Y0094400D03*
X0025050Y0094400D03*
X0030050Y0094400D03*
X0035050Y0094400D03*
X0040050Y0094400D03*
X0045050Y0094400D03*
X0050050Y0094400D03*
X0055050Y0094400D03*
X0060050Y0094400D03*
X0065050Y0094400D03*
X0070050Y0094400D03*
X0075050Y0094400D03*
X0080050Y0094400D03*
X0085050Y0094400D03*
X0090050Y0094400D03*
X0095050Y0094400D03*
X0100050Y0094400D03*
X0105050Y0094400D03*
X0110050Y0094400D03*
X0115050Y0094400D03*
X0120050Y0094400D03*
X0125050Y0094400D03*
X0130050Y0094400D03*
X0135050Y0094400D03*
X0140050Y0094400D03*
X0145050Y0094400D03*
X0150050Y0094400D03*
X0155050Y0094400D03*
X0160050Y0094400D03*
X0165050Y0094400D03*
X0170050Y0094400D03*
X0175050Y0094400D03*
X0180050Y0094400D03*
X0185050Y0094400D03*
X0190050Y0094400D03*
X0190050Y0103200D03*
X0185050Y0103200D03*
X0180050Y0103200D03*
X0175050Y0103200D03*
X0170050Y0103200D03*
X0165050Y0103200D03*
X0160050Y0103200D03*
X0155050Y0103200D03*
X0150050Y0103200D03*
X0145050Y0103200D03*
X0140050Y0103200D03*
X0135050Y0103200D03*
X0130050Y0103200D03*
X0125050Y0103200D03*
X0120050Y0103200D03*
X0115050Y0103200D03*
X0110050Y0103200D03*
X0105050Y0103200D03*
X0100050Y0103200D03*
X0095050Y0103200D03*
X0090050Y0103200D03*
X0085050Y0103200D03*
X0080050Y0103200D03*
X0075050Y0103200D03*
X0070050Y0103200D03*
X0065050Y0103200D03*
X0060050Y0103200D03*
X0055050Y0103200D03*
X0050050Y0103200D03*
X0045050Y0103200D03*
X0040050Y0103200D03*
X0035050Y0103200D03*
X0030050Y0103200D03*
X0025050Y0103200D03*
X0020050Y0103200D03*
X0015050Y0103200D03*
X0010050Y0103200D03*
X0005050Y0103200D03*
X0005050Y0111900D03*
X0010050Y0111900D03*
X0015050Y0111900D03*
X0020050Y0111900D03*
X0025050Y0111900D03*
X0030050Y0111900D03*
X0035050Y0111900D03*
X0040050Y0111900D03*
X0045050Y0111900D03*
X0050050Y0111900D03*
X0055050Y0111900D03*
X0060050Y0111900D03*
X0065050Y0111900D03*
X0070050Y0111900D03*
X0075050Y0111900D03*
X0080050Y0111900D03*
X0085050Y0111900D03*
X0090050Y0111900D03*
X0095050Y0111900D03*
X0100050Y0111900D03*
X0105050Y0111900D03*
X0110050Y0111900D03*
X0115050Y0111900D03*
X0120050Y0111900D03*
X0125050Y0111900D03*
X0130050Y0111900D03*
X0135050Y0111900D03*
X0140050Y0111900D03*
X0145050Y0111900D03*
X0150050Y0111900D03*
X0155050Y0111900D03*
X0160050Y0111900D03*
X0165050Y0111900D03*
X0170050Y0111900D03*
X0175050Y0111900D03*
X0180050Y0111900D03*
X0185050Y0111900D03*
X0190050Y0111900D03*
X0190050Y0120700D03*
X0185050Y0120700D03*
X0180050Y0120700D03*
X0175050Y0120700D03*
X0170050Y0120700D03*
X0165050Y0120700D03*
X0160050Y0120700D03*
X0155050Y0120700D03*
X0150050Y0120700D03*
X0145050Y0120700D03*
X0140050Y0120700D03*
X0135050Y0120700D03*
X0130050Y0120700D03*
X0125050Y0120700D03*
X0120050Y0120700D03*
X0115050Y0120700D03*
X0110050Y0120700D03*
X0105050Y0120700D03*
X0100050Y0120700D03*
X0095050Y0120700D03*
X0090050Y0120700D03*
X0085050Y0120700D03*
X0080050Y0120700D03*
X0075050Y0120700D03*
X0070050Y0120700D03*
X0065050Y0120700D03*
X0060050Y0120700D03*
X0055050Y0120700D03*
X0050050Y0120700D03*
X0045050Y0120700D03*
X0040050Y0120700D03*
X0035050Y0120700D03*
X0030050Y0120700D03*
X0025050Y0120700D03*
X0020050Y0120700D03*
X0015050Y0120700D03*
X0010050Y0120700D03*
X0005050Y0120700D03*
X0005050Y0129400D03*
X0010050Y0129400D03*
X0015050Y0129400D03*
X0020050Y0129400D03*
X0025050Y0129400D03*
X0030050Y0129400D03*
X0035050Y0129400D03*
X0040050Y0129400D03*
X0045050Y0129400D03*
X0050050Y0129400D03*
X0055050Y0129400D03*
X0060050Y0129400D03*
X0065050Y0129400D03*
X0070050Y0129400D03*
X0075050Y0129400D03*
X0080050Y0129400D03*
X0085050Y0129400D03*
X0090050Y0129400D03*
X0095050Y0129400D03*
X0100050Y0129400D03*
X0105050Y0129400D03*
X0110050Y0129400D03*
X0115050Y0129400D03*
X0120050Y0129400D03*
X0125050Y0129400D03*
X0130050Y0129400D03*
X0135050Y0129400D03*
X0140050Y0129400D03*
X0145050Y0129400D03*
X0150050Y0129400D03*
X0155050Y0129400D03*
X0160050Y0129400D03*
X0165050Y0129400D03*
X0170050Y0129400D03*
X0175050Y0129400D03*
X0180050Y0129400D03*
X0185050Y0129400D03*
X0190050Y0129400D03*
X0190050Y0138200D03*
X0185050Y0138200D03*
X0180050Y0138200D03*
X0175050Y0138200D03*
X0170050Y0138200D03*
X0165050Y0138200D03*
X0160050Y0138200D03*
X0155050Y0138200D03*
X0150050Y0138200D03*
X0145050Y0138200D03*
X0140050Y0138200D03*
X0135050Y0138200D03*
X0130050Y0138200D03*
X0125050Y0138200D03*
X0120050Y0138200D03*
X0115050Y0138200D03*
X0110050Y0138200D03*
X0105050Y0138200D03*
X0100050Y0138200D03*
X0095050Y0138200D03*
X0090050Y0138200D03*
X0085050Y0138200D03*
X0080050Y0138200D03*
X0075050Y0138200D03*
X0070050Y0138200D03*
X0065050Y0138200D03*
X0060050Y0138200D03*
X0055050Y0138200D03*
X0050050Y0138200D03*
X0045050Y0138200D03*
X0040050Y0138200D03*
X0035050Y0138200D03*
X0030050Y0138200D03*
X0025050Y0138200D03*
X0020050Y0138200D03*
X0015050Y0138200D03*
X0010050Y0138200D03*
X0005050Y0138200D03*
X0005050Y0146900D03*
X0010050Y0146900D03*
X0015050Y0146900D03*
X0020050Y0146900D03*
X0025050Y0146900D03*
X0030050Y0146900D03*
X0035050Y0146900D03*
X0040050Y0146900D03*
X0045050Y0146900D03*
X0050050Y0146900D03*
X0055050Y0146900D03*
X0060050Y0146900D03*
X0065050Y0146900D03*
X0070050Y0146900D03*
X0075050Y0146900D03*
X0080050Y0146900D03*
X0085050Y0146900D03*
X0090050Y0146900D03*
X0095050Y0146900D03*
X0100050Y0146900D03*
X0105050Y0146900D03*
X0110050Y0146900D03*
X0115050Y0146900D03*
X0120050Y0146900D03*
X0125050Y0146900D03*
X0130050Y0146900D03*
X0135050Y0146900D03*
X0140050Y0146900D03*
X0145050Y0146900D03*
X0150050Y0146900D03*
X0155050Y0146900D03*
X0160050Y0146900D03*
X0165050Y0146900D03*
X0170050Y0146900D03*
X0175050Y0146900D03*
X0180050Y0146900D03*
X0185050Y0146900D03*
X0190050Y0146900D03*
X0190050Y0155700D03*
X0185050Y0155700D03*
X0180050Y0155700D03*
X0175050Y0155700D03*
X0170050Y0155700D03*
X0165050Y0155700D03*
X0160050Y0155700D03*
X0155050Y0155700D03*
X0150050Y0155700D03*
X0145050Y0155700D03*
X0140050Y0155700D03*
X0135050Y0155700D03*
X0130050Y0155700D03*
X0125050Y0155700D03*
X0120050Y0155700D03*
X0115050Y0155700D03*
X0110050Y0155700D03*
X0105050Y0155700D03*
X0100050Y0155700D03*
X0095050Y0155700D03*
X0090050Y0155700D03*
X0085050Y0155700D03*
X0080050Y0155700D03*
X0075050Y0155700D03*
X0070050Y0155700D03*
X0065050Y0155700D03*
X0060050Y0155700D03*
X0055050Y0155700D03*
X0050050Y0155700D03*
X0045050Y0155700D03*
X0040050Y0155700D03*
X0035050Y0155700D03*
X0030050Y0155700D03*
X0025050Y0155700D03*
X0020050Y0155700D03*
X0015050Y0155700D03*
X0010050Y0155700D03*
X0005050Y0155700D03*
X0005050Y0164400D03*
X0010050Y0164400D03*
X0015050Y0164400D03*
X0020050Y0164400D03*
X0025050Y0164400D03*
X0030050Y0164400D03*
X0035050Y0164400D03*
X0040050Y0164400D03*
X0045050Y0164400D03*
X0050050Y0164400D03*
X0055050Y0164400D03*
X0060050Y0164400D03*
X0065050Y0164400D03*
X0070050Y0164400D03*
X0075050Y0164400D03*
X0080050Y0164400D03*
X0085050Y0164400D03*
X0090050Y0164400D03*
X0095050Y0164400D03*
X0100050Y0164400D03*
X0105050Y0164400D03*
X0110050Y0164400D03*
X0115050Y0164400D03*
X0120050Y0164400D03*
X0125050Y0164400D03*
X0130050Y0164400D03*
X0135050Y0164400D03*
X0140050Y0164400D03*
X0145050Y0164400D03*
X0150050Y0164400D03*
X0155050Y0164400D03*
X0160050Y0164400D03*
X0165050Y0164400D03*
X0170050Y0164400D03*
X0175050Y0164400D03*
X0180050Y0164400D03*
X0185050Y0164400D03*
X0190050Y0164400D03*
X0190050Y0173200D03*
X0185050Y0173200D03*
X0180050Y0173200D03*
X0175050Y0173200D03*
X0170050Y0173200D03*
X0165050Y0173200D03*
X0160050Y0173200D03*
X0155050Y0173200D03*
X0150050Y0173200D03*
X0145050Y0173200D03*
X0140050Y0173200D03*
X0135050Y0173200D03*
X0130050Y0173200D03*
X0125050Y0173200D03*
X0120050Y0173200D03*
X0115050Y0173200D03*
X0110050Y0173200D03*
X0105050Y0173200D03*
X0100050Y0173200D03*
X0095050Y0173200D03*
X0090050Y0173200D03*
X0085050Y0173200D03*
X0080050Y0173200D03*
X0075050Y0173200D03*
X0070050Y0173200D03*
X0065050Y0173200D03*
X0060050Y0173200D03*
X0055050Y0173200D03*
X0050050Y0173200D03*
X0045050Y0173200D03*
X0040050Y0173200D03*
X0035050Y0173200D03*
X0030050Y0173200D03*
X0025050Y0173200D03*
X0020050Y0173200D03*
X0015050Y0173200D03*
X0010050Y0173200D03*
X0005050Y0173200D03*
X0005050Y0181900D03*
X0010050Y0181900D03*
X0015050Y0181900D03*
X0020050Y0181900D03*
X0025050Y0181900D03*
X0030050Y0181900D03*
X0035050Y0181900D03*
X0040050Y0181900D03*
X0045050Y0181900D03*
X0050050Y0181900D03*
X0055050Y0181900D03*
X0060050Y0181900D03*
X0065050Y0181900D03*
X0070050Y0181900D03*
X0075050Y0181900D03*
X0080050Y0181900D03*
X0085050Y0181900D03*
X0090050Y0181900D03*
X0095050Y0181900D03*
X0100050Y0181900D03*
X0105050Y0181900D03*
X0110050Y0181900D03*
X0115050Y0181900D03*
X0120050Y0181900D03*
X0125050Y0181900D03*
X0130050Y0181900D03*
X0135050Y0181900D03*
X0140050Y0181900D03*
X0145050Y0181900D03*
X0150050Y0181900D03*
X0155050Y0181900D03*
X0160050Y0181900D03*
X0165050Y0181900D03*
X0170050Y0181900D03*
X0175050Y0181900D03*
X0180050Y0181900D03*
X0185050Y0181900D03*
X0190050Y0181900D03*
X0190050Y0190700D03*
X0185050Y0190700D03*
X0180050Y0190700D03*
X0175050Y0190700D03*
X0170050Y0190700D03*
X0165050Y0190700D03*
X0160050Y0190700D03*
X0155050Y0190700D03*
X0150050Y0190700D03*
X0145050Y0190700D03*
X0140050Y0190700D03*
X0135050Y0190700D03*
X0130050Y0190700D03*
X0125050Y0190700D03*
X0120050Y0190700D03*
X0115050Y0190700D03*
X0110050Y0190700D03*
X0105050Y0190700D03*
X0100050Y0190700D03*
X0095050Y0190700D03*
X0090050Y0190700D03*
X0085050Y0190700D03*
X0080050Y0190700D03*
X0075050Y0190700D03*
X0070050Y0190700D03*
X0065050Y0190700D03*
X0060050Y0190700D03*
X0055050Y0190700D03*
X0050050Y0190700D03*
X0045050Y0190700D03*
X0040050Y0190700D03*
X0035050Y0190700D03*
X0030050Y0190700D03*
X0025050Y0190700D03*
X0020050Y0190700D03*
X0015050Y0190700D03*
X0010050Y0190700D03*
X0005050Y0190700D03*
D11*
X0001050Y0197050D02*
X0001050Y0001050D01*
X0194050Y0001050D01*
X0194050Y0197050D01*
X0001050Y0197050D01*
D12*
X0005050Y0192550D03*
X0010050Y0192550D03*
X0015050Y0192550D03*
X0020050Y0192550D03*
X0025050Y0192550D03*
X0030050Y0192550D03*
X0035050Y0192550D03*
X0040050Y0192550D03*
X0045050Y0192550D03*
X0050050Y0192550D03*
X0055050Y0192550D03*
X0060050Y0192550D03*
X0065050Y0192550D03*
X0070050Y0192550D03*
X0075050Y0192550D03*
X0080050Y0192550D03*
X0085050Y0192550D03*
X0090050Y0192550D03*
X0095050Y0192550D03*
X0100050Y0192550D03*
X0105050Y0192550D03*
X0110050Y0192550D03*
X0115050Y0192550D03*
X0120050Y0192550D03*
X0125050Y0192550D03*
X0130050Y0192550D03*
X0135050Y0192550D03*
X0140050Y0192550D03*
X0145050Y0192550D03*
X0150050Y0192550D03*
X0155050Y0192550D03*
X0160050Y0192550D03*
X0165050Y0192550D03*
X0170050Y0192550D03*
X0175050Y0192550D03*
X0180050Y0192550D03*
X0185050Y0192550D03*
X0190050Y0192550D03*
X0190050Y0180050D03*
X0190050Y0175050D03*
X0185050Y0175050D03*
X0185050Y0180050D03*
X0180050Y0180050D03*
X0180050Y0175050D03*
X0175050Y0175050D03*
X0175050Y0180050D03*
X0170050Y0180050D03*
X0170050Y0175050D03*
X0165050Y0175050D03*
X0165050Y0180050D03*
X0160050Y0180050D03*
X0160050Y0175050D03*
X0155050Y0175050D03*
X0155050Y0180050D03*
X0150050Y0180050D03*
X0150050Y0175050D03*
X0145050Y0175050D03*
X0145050Y0180050D03*
X0140050Y0180050D03*
X0140050Y0175050D03*
X0135050Y0175050D03*
X0135050Y0180050D03*
X0130050Y0180050D03*
X0130050Y0175050D03*
X0125050Y0175050D03*
X0125050Y0180050D03*
X0120050Y0180050D03*
X0120050Y0175050D03*
X0115050Y0175050D03*
X0115050Y0180050D03*
X0110050Y0180050D03*
X0110050Y0175050D03*
X0105050Y0175050D03*
X0105050Y0180050D03*
X0100050Y0180050D03*
X0100050Y0175050D03*
X0095050Y0175050D03*
X0095050Y0180050D03*
X0090050Y0180050D03*
X0090050Y0175050D03*
X0085050Y0175050D03*
X0085050Y0180050D03*
X0080050Y0180050D03*
X0080050Y0175050D03*
X0075050Y0175050D03*
X0075050Y0180050D03*
X0070050Y0180050D03*
X0070050Y0175050D03*
X0065050Y0175050D03*
X0065050Y0180050D03*
X0060050Y0180050D03*
X0060050Y0175050D03*
X0055050Y0175050D03*
X0055050Y0180050D03*
X0050050Y0180050D03*
X0050050Y0175050D03*
X0045050Y0175050D03*
X0045050Y0180050D03*
X0040050Y0180050D03*
X0040050Y0175050D03*
X0035050Y0175050D03*
X0035050Y0180050D03*
X0030050Y0180050D03*
X0030050Y0175050D03*
X0025050Y0175050D03*
X0025050Y0180050D03*
X0020050Y0180050D03*
X0020050Y0175050D03*
X0015050Y0175050D03*
X0015050Y0180050D03*
X0010050Y0180050D03*
X0010050Y0175050D03*
X0005050Y0175050D03*
X0005050Y0180050D03*
X0005050Y0162550D03*
X0005050Y0157550D03*
X0010050Y0157550D03*
X0015050Y0157550D03*
X0015050Y0162550D03*
X0010050Y0162550D03*
X0020050Y0162550D03*
X0025050Y0162550D03*
X0025050Y0157550D03*
X0020050Y0157550D03*
X0030050Y0157550D03*
X0035050Y0157550D03*
X0035050Y0162550D03*
X0030050Y0162550D03*
X0040050Y0162550D03*
X0040050Y0157550D03*
X0045050Y0157550D03*
X0050050Y0157550D03*
X0050050Y0162550D03*
X0045050Y0162550D03*
X0055050Y0162550D03*
X0060050Y0162550D03*
X0060050Y0157550D03*
X0055050Y0157550D03*
X0065050Y0157550D03*
X0070050Y0157550D03*
X0070050Y0162550D03*
X0065050Y0162550D03*
X0075050Y0162550D03*
X0075050Y0157550D03*
X0080050Y0157550D03*
X0085050Y0157550D03*
X0085050Y0162550D03*
X0080050Y0162550D03*
X0090050Y0162550D03*
X0095050Y0162550D03*
X0095050Y0157550D03*
X0090050Y0157550D03*
X0100050Y0157550D03*
X0105050Y0157550D03*
X0105050Y0162550D03*
X0100050Y0162550D03*
X0110050Y0162550D03*
X0115050Y0162550D03*
X0115050Y0157550D03*
X0110050Y0157550D03*
X0120050Y0157550D03*
X0120050Y0162550D03*
X0125050Y0162550D03*
X0130050Y0162550D03*
X0130050Y0157550D03*
X0125050Y0157550D03*
X0135050Y0157550D03*
X0140050Y0157550D03*
X0140050Y0162550D03*
X0135050Y0162550D03*
X0145050Y0162550D03*
X0150050Y0162550D03*
X0150050Y0157550D03*
X0145050Y0157550D03*
X0155050Y0157550D03*
X0155050Y0162550D03*
X0160050Y0162550D03*
X0165050Y0162550D03*
X0165050Y0157550D03*
X0160050Y0157550D03*
X0170050Y0157550D03*
X0175050Y0157550D03*
X0175050Y0162550D03*
X0170050Y0162550D03*
X0180050Y0162550D03*
X0185050Y0162550D03*
X0185050Y0157550D03*
X0180050Y0157550D03*
X0190050Y0157550D03*
X0190050Y0162550D03*
X0190050Y0145050D03*
X0190050Y0140050D03*
X0185050Y0140050D03*
X0180050Y0140050D03*
X0180050Y0145050D03*
X0185050Y0145050D03*
X0175050Y0145050D03*
X0170050Y0145050D03*
X0170050Y0140050D03*
X0175050Y0140050D03*
X0165050Y0140050D03*
X0160050Y0140050D03*
X0160050Y0145050D03*
X0165050Y0145050D03*
X0155050Y0145050D03*
X0155050Y0140050D03*
X0150050Y0140050D03*
X0145050Y0140050D03*
X0145050Y0145050D03*
X0150050Y0145050D03*
X0140050Y0145050D03*
X0135050Y0145050D03*
X0135050Y0140050D03*
X0140050Y0140050D03*
X0130050Y0140050D03*
X0125050Y0140050D03*
X0125050Y0145050D03*
X0130050Y0145050D03*
X0120050Y0145050D03*
X0120050Y0140050D03*
X0115050Y0140050D03*
X0110050Y0140050D03*
X0110050Y0145050D03*
X0115050Y0145050D03*
X0105050Y0145050D03*
X0100050Y0145050D03*
X0100050Y0140050D03*
X0105050Y0140050D03*
X0095050Y0140050D03*
X0090050Y0140050D03*
X0090050Y0145050D03*
X0095050Y0145050D03*
X0085050Y0145050D03*
X0080050Y0145050D03*
X0080050Y0140050D03*
X0085050Y0140050D03*
X0075050Y0140050D03*
X0075050Y0145050D03*
X0070050Y0145050D03*
X0065050Y0145050D03*
X0065050Y0140050D03*
X0070050Y0140050D03*
X0060050Y0140050D03*
X0055050Y0140050D03*
X0055050Y0145050D03*
X0060050Y0145050D03*
X0050050Y0145050D03*
X0045050Y0145050D03*
X0045050Y0140050D03*
X0050050Y0140050D03*
X0040050Y0140050D03*
X0040050Y0145050D03*
X0035050Y0145050D03*
X0030050Y0145050D03*
X0030050Y0140050D03*
X0035050Y0140050D03*
X0025050Y0140050D03*
X0020050Y0140050D03*
X0020050Y0145050D03*
X0025050Y0145050D03*
X0015050Y0145050D03*
X0010050Y0145050D03*
X0010050Y0140050D03*
X0015050Y0140050D03*
X0005050Y0140050D03*
X0005050Y0145050D03*
X0005050Y0127550D03*
X0005050Y0122550D03*
X0010050Y0122550D03*
X0015050Y0122550D03*
X0015050Y0127550D03*
X0010050Y0127550D03*
X0020050Y0127550D03*
X0025050Y0127550D03*
X0025050Y0122550D03*
X0020050Y0122550D03*
X0030050Y0122550D03*
X0035050Y0122550D03*
X0035050Y0127550D03*
X0030050Y0127550D03*
X0040050Y0127550D03*
X0040050Y0122550D03*
X0045050Y0122550D03*
X0050050Y0122550D03*
X0050050Y0127550D03*
X0045050Y0127550D03*
X0055050Y0127550D03*
X0060050Y0127550D03*
X0060050Y0122550D03*
X0055050Y0122550D03*
X0065050Y0122550D03*
X0070050Y0122550D03*
X0070050Y0127550D03*
X0065050Y0127550D03*
X0075050Y0127550D03*
X0075050Y0122550D03*
X0080050Y0122550D03*
X0085050Y0122550D03*
X0085050Y0127550D03*
X0080050Y0127550D03*
X0090050Y0127550D03*
X0095050Y0127550D03*
X0095050Y0122550D03*
X0090050Y0122550D03*
X0100050Y0122550D03*
X0105050Y0122550D03*
X0105050Y0127550D03*
X0100050Y0127550D03*
X0110050Y0127550D03*
X0115050Y0127550D03*
X0115050Y0122550D03*
X0110050Y0122550D03*
X0120050Y0122550D03*
X0120050Y0127550D03*
X0125050Y0127550D03*
X0130050Y0127550D03*
X0130050Y0122550D03*
X0125050Y0122550D03*
X0135050Y0122550D03*
X0140050Y0122550D03*
X0140050Y0127550D03*
X0135050Y0127550D03*
X0145050Y0127550D03*
X0150050Y0127550D03*
X0150050Y0122550D03*
X0145050Y0122550D03*
X0155050Y0122550D03*
X0155050Y0127550D03*
X0160050Y0127550D03*
X0165050Y0127550D03*
X0165050Y0122550D03*
X0160050Y0122550D03*
X0170050Y0122550D03*
X0175050Y0122550D03*
X0175050Y0127550D03*
X0170050Y0127550D03*
X0180050Y0127550D03*
X0185050Y0127550D03*
X0185050Y0122550D03*
X0180050Y0122550D03*
X0190050Y0122550D03*
X0190050Y0127550D03*
X0190050Y0110050D03*
X0190050Y0105050D03*
X0185050Y0105050D03*
X0185050Y0110050D03*
X0180050Y0110050D03*
X0180050Y0105050D03*
X0175050Y0105050D03*
X0175050Y0110050D03*
X0170050Y0110050D03*
X0170050Y0105050D03*
X0165050Y0105050D03*
X0165050Y0110050D03*
X0160050Y0110050D03*
X0160050Y0105050D03*
X0155050Y0105050D03*
X0155050Y0110050D03*
X0150050Y0110050D03*
X0150050Y0105050D03*
X0145050Y0105050D03*
X0145050Y0110050D03*
X0140050Y0110050D03*
X0140050Y0105050D03*
X0135050Y0105050D03*
X0135050Y0110050D03*
X0130050Y0110050D03*
X0130050Y0105050D03*
X0125050Y0105050D03*
X0125050Y0110050D03*
X0120050Y0110050D03*
X0120050Y0105050D03*
X0115050Y0105050D03*
X0115050Y0110050D03*
X0110050Y0110050D03*
X0110050Y0105050D03*
X0105050Y0105050D03*
X0105050Y0110050D03*
X0100050Y0110050D03*
X0100050Y0105050D03*
X0095050Y0105050D03*
X0095050Y0110050D03*
X0090050Y0110050D03*
X0090050Y0105050D03*
X0085050Y0105050D03*
X0085050Y0110050D03*
X0080050Y0110050D03*
X0080050Y0105050D03*
X0075050Y0105050D03*
X0075050Y0110050D03*
X0070050Y0110050D03*
X0070050Y0105050D03*
X0065050Y0105050D03*
X0065050Y0110050D03*
X0060050Y0110050D03*
X0060050Y0105050D03*
X0055050Y0105050D03*
X0055050Y0110050D03*
X0050050Y0110050D03*
X0050050Y0105050D03*
X0045050Y0105050D03*
X0045050Y0110050D03*
X0040050Y0110050D03*
X0040050Y0105050D03*
X0035050Y0105050D03*
X0035050Y0110050D03*
X0030050Y0110050D03*
X0030050Y0105050D03*
X0025050Y0105050D03*
X0025050Y0110050D03*
X0020050Y0110050D03*
X0020050Y0105050D03*
X0015050Y0105050D03*
X0015050Y0110050D03*
X0010050Y0110050D03*
X0010050Y0105050D03*
X0005050Y0105050D03*
X0005050Y0110050D03*
X0005050Y0092550D03*
X0005050Y0087550D03*
X0010050Y0087550D03*
X0010050Y0092550D03*
X0015050Y0092550D03*
X0015050Y0087550D03*
X0020050Y0087550D03*
X0020050Y0092550D03*
X0025050Y0092550D03*
X0025050Y0087550D03*
X0030050Y0087550D03*
X0030050Y0092550D03*
X0035050Y0092550D03*
X0035050Y0087550D03*
X0040050Y0087550D03*
X0040050Y0092550D03*
X0045050Y0092550D03*
X0045050Y0087550D03*
X0050050Y0087550D03*
X0050050Y0092550D03*
X0055050Y0092550D03*
X0055050Y0087550D03*
X0060050Y0087550D03*
X0060050Y0092550D03*
X0065050Y0092550D03*
X0065050Y0087550D03*
X0070050Y0087550D03*
X0070050Y0092550D03*
X0075050Y0092550D03*
X0075050Y0087550D03*
X0080050Y0087550D03*
X0080050Y0092550D03*
X0085050Y0092550D03*
X0085050Y0087550D03*
X0090050Y0087550D03*
X0090050Y0092550D03*
X0095050Y0092550D03*
X0095050Y0087550D03*
X0100050Y0087550D03*
X0100050Y0092550D03*
X0105050Y0092550D03*
X0105050Y0087550D03*
X0110050Y0087550D03*
X0110050Y0092550D03*
X0115050Y0092550D03*
X0115050Y0087550D03*
X0120050Y0087550D03*
X0120050Y0092550D03*
X0125050Y0092550D03*
X0125050Y0087550D03*
X0130050Y0087550D03*
X0130050Y0092550D03*
X0135050Y0092550D03*
X0135050Y0087550D03*
X0140050Y0087550D03*
X0140050Y0092550D03*
X0145050Y0092550D03*
X0145050Y0087550D03*
X0150050Y0087550D03*
X0150050Y0092550D03*
X0155050Y0092550D03*
X0155050Y0087550D03*
X0160050Y0087550D03*
X0160050Y0092550D03*
X0165050Y0092550D03*
X0165050Y0087550D03*
X0170050Y0087550D03*
X0170050Y0092550D03*
X0175050Y0092550D03*
X0175050Y0087550D03*
X0180050Y0087550D03*
X0180050Y0092550D03*
X0185050Y0092550D03*
X0185050Y0087550D03*
X0190050Y0087550D03*
X0190050Y0092550D03*
X0190050Y0075050D03*
X0190050Y0070050D03*
X0185050Y0070050D03*
X0185050Y0075050D03*
X0180050Y0075050D03*
X0180050Y0070050D03*
X0175050Y0070050D03*
X0175050Y0075050D03*
X0170050Y0075050D03*
X0170050Y0070050D03*
X0165050Y0070050D03*
X0165050Y0075050D03*
X0160050Y0075050D03*
X0160050Y0070050D03*
X0155050Y0070050D03*
X0155050Y0075050D03*
X0150050Y0075050D03*
X0150050Y0070050D03*
X0145050Y0070050D03*
X0145050Y0075050D03*
X0140050Y0075050D03*
X0140050Y0070050D03*
X0135050Y0070050D03*
X0135050Y0075050D03*
X0130050Y0075050D03*
X0130050Y0070050D03*
X0125050Y0070050D03*
X0125050Y0075050D03*
X0120050Y0075050D03*
X0120050Y0070050D03*
X0115050Y0070050D03*
X0115050Y0075050D03*
X0110050Y0075050D03*
X0110050Y0070050D03*
X0105050Y0070050D03*
X0105050Y0075050D03*
X0100050Y0075050D03*
X0100050Y0070050D03*
X0095050Y0070050D03*
X0095050Y0075050D03*
X0090050Y0075050D03*
X0090050Y0070050D03*
X0085050Y0070050D03*
X0085050Y0075050D03*
X0080050Y0075050D03*
X0080050Y0070050D03*
X0075050Y0070050D03*
X0075050Y0075050D03*
X0070050Y0075050D03*
X0070050Y0070050D03*
X0065050Y0070050D03*
X0065050Y0075050D03*
X0060050Y0075050D03*
X0060050Y0070050D03*
X0055050Y0070050D03*
X0055050Y0075050D03*
X0050050Y0075050D03*
X0050050Y0070050D03*
X0045050Y0070050D03*
X0045050Y0075050D03*
X0040050Y0075050D03*
X0040050Y0070050D03*
X0035050Y0070050D03*
X0035050Y0075050D03*
X0030050Y0075050D03*
X0030050Y0070050D03*
X0025050Y0070050D03*
X0025050Y0075050D03*
X0020050Y0075050D03*
X0020050Y0070050D03*
X0015050Y0070050D03*
X0015050Y0075050D03*
X0010050Y0075050D03*
X0010050Y0070050D03*
X0005050Y0070050D03*
X0005050Y0075050D03*
X0005050Y0057550D03*
X0005050Y0052550D03*
X0010050Y0052550D03*
X0015050Y0052550D03*
X0015050Y0057550D03*
X0010050Y0057550D03*
X0020050Y0057550D03*
X0025050Y0057550D03*
X0025050Y0052550D03*
X0020050Y0052550D03*
X0030050Y0052550D03*
X0035050Y0052550D03*
X0035050Y0057550D03*
X0030050Y0057550D03*
X0040050Y0057550D03*
X0040050Y0052550D03*
X0045050Y0052550D03*
X0050050Y0052550D03*
X0050050Y0057550D03*
X0045050Y0057550D03*
X0055050Y0057550D03*
X0060050Y0057550D03*
X0060050Y0052550D03*
X0055050Y0052550D03*
X0065050Y0052550D03*
X0070050Y0052550D03*
X0070050Y0057550D03*
X0065050Y0057550D03*
X0075050Y0057550D03*
X0075050Y0052550D03*
X0080050Y0052550D03*
X0085050Y0052550D03*
X0085050Y0057550D03*
X0080050Y0057550D03*
X0090050Y0057550D03*
X0095050Y0057550D03*
X0095050Y0052550D03*
X0090050Y0052550D03*
X0100050Y0052550D03*
X0105050Y0052550D03*
X0105050Y0057550D03*
X0100050Y0057550D03*
X0110050Y0057550D03*
X0115050Y0057550D03*
X0115050Y0052550D03*
X0110050Y0052550D03*
X0120050Y0052550D03*
X0120050Y0057550D03*
X0125050Y0057550D03*
X0130050Y0057550D03*
X0130050Y0052550D03*
X0125050Y0052550D03*
X0135050Y0052550D03*
X0140050Y0052550D03*
X0140050Y0057550D03*
X0135050Y0057550D03*
X0145050Y0057550D03*
X0150050Y0057550D03*
X0150050Y0052550D03*
X0145050Y0052550D03*
X0155050Y0052550D03*
X0155050Y0057550D03*
X0160050Y0057550D03*
X0165050Y0057550D03*
X0165050Y0052550D03*
X0160050Y0052550D03*
X0170050Y0052550D03*
X0175050Y0052550D03*
X0175050Y0057550D03*
X0170050Y0057550D03*
X0180050Y0057550D03*
X0185050Y0057550D03*
X0185050Y0052550D03*
X0180050Y0052550D03*
X0190050Y0052550D03*
X0190050Y0057550D03*
X0190050Y0040050D03*
X0190050Y0035050D03*
X0185050Y0035050D03*
X0180050Y0035050D03*
X0180050Y0040050D03*
X0185050Y0040050D03*
X0175050Y0040050D03*
X0170050Y0040050D03*
X0170050Y0035050D03*
X0175050Y0035050D03*
X0165050Y0035050D03*
X0160050Y0035050D03*
X0160050Y0040050D03*
X0165050Y0040050D03*
X0155050Y0040050D03*
X0155050Y0035050D03*
X0150050Y0035050D03*
X0145050Y0035050D03*
X0145050Y0040050D03*
X0150050Y0040050D03*
X0140050Y0040050D03*
X0135050Y0040050D03*
X0135050Y0035050D03*
X0140050Y0035050D03*
X0130050Y0035050D03*
X0125050Y0035050D03*
X0125050Y0040050D03*
X0130050Y0040050D03*
X0120050Y0040050D03*
X0120050Y0035050D03*
X0115050Y0035050D03*
X0110050Y0035050D03*
X0110050Y0040050D03*
X0115050Y0040050D03*
X0105050Y0040050D03*
X0100050Y0040050D03*
X0100050Y0035050D03*
X0105050Y0035050D03*
X0095050Y0035050D03*
X0090050Y0035050D03*
X0090050Y0040050D03*
X0095050Y0040050D03*
X0085050Y0040050D03*
X0080050Y0040050D03*
X0080050Y0035050D03*
X0085050Y0035050D03*
X0075050Y0035050D03*
X0075050Y0040050D03*
X0070050Y0040050D03*
X0065050Y0040050D03*
X0065050Y0035050D03*
X0070050Y0035050D03*
X0060050Y0035050D03*
X0055050Y0035050D03*
X0055050Y0040050D03*
X0060050Y0040050D03*
X0050050Y0040050D03*
X0045050Y0040050D03*
X0045050Y0035050D03*
X0050050Y0035050D03*
X0040050Y0035050D03*
X0040050Y0040050D03*
X0035050Y0040050D03*
X0030050Y0040050D03*
X0030050Y0035050D03*
X0035050Y0035050D03*
X0025050Y0035050D03*
X0020050Y0035050D03*
X0020050Y0040050D03*
X0025050Y0040050D03*
X0015050Y0040050D03*
X0010050Y0040050D03*
X0010050Y0035050D03*
X0015050Y0035050D03*
X0005050Y0035050D03*
X0005050Y0040050D03*
X0005050Y0022550D03*
X0005050Y0017550D03*
X0010050Y0017550D03*
X0015050Y0017550D03*
X0015050Y0022550D03*
X0010050Y0022550D03*
X0020050Y0022550D03*
X0025050Y0022550D03*
X0025050Y0017550D03*
X0020050Y0017550D03*
X0030050Y0017550D03*
X0035050Y0017550D03*
X0035050Y0022550D03*
X0030050Y0022550D03*
X0040050Y0022550D03*
X0040050Y0017550D03*
X0045050Y0017550D03*
X0050050Y0017550D03*
X0050050Y0022550D03*
X0045050Y0022550D03*
X0055050Y0022550D03*
X0060050Y0022550D03*
X0060050Y0017550D03*
X0055050Y0017550D03*
X0065050Y0017550D03*
X0070050Y0017550D03*
X0070050Y0022550D03*
X0065050Y0022550D03*
X0075050Y0022550D03*
X0075050Y0017550D03*
X0080050Y0017550D03*
X0085050Y0017550D03*
X0085050Y0022550D03*
X0080050Y0022550D03*
X0090050Y0022550D03*
X0095050Y0022550D03*
X0095050Y0017550D03*
X0090050Y0017550D03*
X0100050Y0017550D03*
X0105050Y0017550D03*
X0105050Y0022550D03*
X0100050Y0022550D03*
X0110050Y0022550D03*
X0115050Y0022550D03*
X0115050Y0017550D03*
X0110050Y0017550D03*
X0120050Y0017550D03*
X0120050Y0022550D03*
X0125050Y0022550D03*
X0130050Y0022550D03*
X0130050Y0017550D03*
X0125050Y0017550D03*
X0135050Y0017550D03*
X0140050Y0017550D03*
X0140050Y0022550D03*
X0135050Y0022550D03*
X0145050Y0022550D03*
X0150050Y0022550D03*
X0150050Y0017550D03*
X0145050Y0017550D03*
X0155050Y0017550D03*
X0155050Y0022550D03*
X0160050Y0022550D03*
X0165050Y0022550D03*
X0165050Y0017550D03*
X0160050Y0017550D03*
X0170050Y0017550D03*
X0175050Y0017550D03*
X0175050Y0022550D03*
X0170050Y0022550D03*
X0180050Y0022550D03*
X0185050Y0022550D03*
X0185050Y0017550D03*
X0180050Y0017550D03*
X0190050Y0017550D03*
X0190050Y0022550D03*
X0190050Y0005050D03*
X0185050Y0005050D03*
X0180050Y0005050D03*
X0175050Y0005050D03*
X0170050Y0005050D03*
X0165050Y0005050D03*
X0160050Y0005050D03*
X0155050Y0005050D03*
X0150050Y0005050D03*
X0145050Y0005050D03*
X0140050Y0005050D03*
X0135050Y0005050D03*
X0130050Y0005050D03*
X0125050Y0005050D03*
X0120050Y0005050D03*
X0115050Y0005050D03*
X0110050Y0005050D03*
X0105050Y0005050D03*
X0100050Y0005050D03*
X0095050Y0005050D03*
X0090050Y0005050D03*
X0085050Y0005050D03*
X0080050Y0005050D03*
X0075050Y0005050D03*
X0070050Y0005050D03*
X0065050Y0005050D03*
X0060050Y0005050D03*
X0055050Y0005050D03*
X0050050Y0005050D03*
X0045050Y0005050D03*
X0040050Y0005050D03*
X0035050Y0005050D03*
X0030050Y0005050D03*
X0025050Y0005050D03*
X0020050Y0005050D03*
X0015050Y0005050D03*
X0010050Y0005050D03*
X0005050Y0005050D03*
M02*
