%
M48
M72
T01C0.02362
%
T01
X5050Y5050
X10050Y5050
X15050Y5050
X20050Y5050
X25050Y5050
X30050Y5050
X35050Y5050
X40050Y5050
X45050Y5050
X50050Y5050
X55050Y5050
X60050Y5050
X65050Y5050
X70050Y5050
X75050Y5050
X80050Y5050
X85050Y5050
X90050Y5050
X95050Y5050
X100050Y5050
X105050Y5050
X110050Y5050
X115050Y5050
X120050Y5050
X125050Y5050
X130050Y5050
X135050Y5050
X140050Y5050
X145050Y5050
X150050Y5050
X155050Y5050
X160050Y5050
X165050Y5050
X170050Y5050
X175050Y5050
X180050Y5050
X185050Y5050
X190050Y5050
X190050Y17550
X190050Y22550
X185050Y22550
X180050Y22550
X180050Y17550
X185050Y17550
X175050Y17550
X170050Y17550
X170050Y22550
X175050Y22550
X165050Y22550
X160050Y22550
X160050Y17550
X165050Y17550
X155050Y17550
X155050Y22550
X150050Y22550
X145050Y22550
X145050Y17550
X150050Y17550
X140050Y17550
X135050Y17550
X135050Y22550
X140050Y22550
X130050Y22550
X125050Y22550
X125050Y17550
X130050Y17550
X120050Y17550
X120050Y22550
X115050Y22550
X110050Y22550
X110050Y17550
X115050Y17550
X105050Y17550
X100050Y17550
X100050Y22550
X105050Y22550
X95050Y22550
X90050Y22550
X90050Y17550
X95050Y17550
X85050Y17550
X80050Y17550
X80050Y22550
X85050Y22550
X75050Y22550
X75050Y17550
X70050Y17550
X65050Y17550
X65050Y22550
X70050Y22550
X60050Y22550
X55050Y22550
X55050Y17550
X60050Y17550
X50050Y17550
X45050Y17550
X45050Y22550
X50050Y22550
X40050Y22550
X40050Y17550
X35050Y17550
X30050Y17550
X30050Y22550
X35050Y22550
X25050Y22550
X20050Y22550
X20050Y17550
X25050Y17550
X15050Y17550
X10050Y17550
X10050Y22550
X15050Y22550
X5050Y22550
X5050Y17550
X5050Y35050
X5050Y40050
X10050Y40050
X15050Y40050
X15050Y35050
X10050Y35050
X20050Y35050
X25050Y35050
X25050Y40050
X20050Y40050
X30050Y40050
X35050Y40050
X35050Y35050
X30050Y35050
X40050Y35050
X40050Y40050
X45050Y40050
X50050Y40050
X50050Y35050
X45050Y35050
X55050Y35050
X60050Y35050
X60050Y40050
X55050Y40050
X65050Y40050
X70050Y40050
X70050Y35050
X65050Y35050
X75050Y35050
X75050Y40050
X80050Y40050
X85050Y40050
X85050Y35050
X80050Y35050
X90050Y35050
X95050Y35050
X95050Y40050
X90050Y40050
X100050Y40050
X105050Y40050
X105050Y35050
X100050Y35050
X110050Y35050
X115050Y35050
X115050Y40050
X110050Y40050
X120050Y40050
X120050Y35050
X125050Y35050
X130050Y35050
X130050Y40050
X125050Y40050
X135050Y40050
X140050Y40050
X140050Y35050
X135050Y35050
X145050Y35050
X150050Y35050
X150050Y40050
X145050Y40050
X155050Y40050
X155050Y35050
X160050Y35050
X165050Y35050
X165050Y40050
X160050Y40050
X170050Y40050
X175050Y40050
X175050Y35050
X170050Y35050
X180050Y35050
X185050Y35050
X185050Y40050
X180050Y40050
X190050Y40050
X190050Y35050
X190050Y52550
X190050Y57550
X185050Y57550
X180050Y57550
X180050Y52550
X185050Y52550
X175050Y52550
X170050Y52550
X170050Y57550
X175050Y57550
X165050Y57550
X160050Y57550
X160050Y52550
X165050Y52550
X155050Y52550
X155050Y57550
X150050Y57550
X145050Y57550
X145050Y52550
X150050Y52550
X140050Y52550
X135050Y52550
X135050Y57550
X140050Y57550
X130050Y57550
X125050Y57550
X125050Y52550
X130050Y52550
X120050Y52550
X120050Y57550
X115050Y57550
X110050Y57550
X110050Y52550
X115050Y52550
X105050Y52550
X100050Y52550
X100050Y57550
X105050Y57550
X95050Y57550
X90050Y57550
X90050Y52550
X95050Y52550
X85050Y52550
X80050Y52550
X80050Y57550
X85050Y57550
X75050Y57550
X75050Y52550
X70050Y52550
X65050Y52550
X65050Y57550
X70050Y57550
X60050Y57550
X55050Y57550
X55050Y52550
X60050Y52550
X50050Y52550
X45050Y52550
X45050Y57550
X50050Y57550
X40050Y57550
X40050Y52550
X35050Y52550
X30050Y52550
X30050Y57550
X35050Y57550
X25050Y57550
X20050Y57550
X20050Y52550
X25050Y52550
X15050Y52550
X10050Y52550
X10050Y57550
X15050Y57550
X5050Y57550
X5050Y52550
X5050Y70050
X5050Y75050
X10050Y75050
X10050Y70050
X15050Y70050
X15050Y75050
X20050Y75050
X20050Y70050
X25050Y70050
X25050Y75050
X30050Y75050
X30050Y70050
X35050Y70050
X35050Y75050
X40050Y75050
X40050Y70050
X45050Y70050
X45050Y75050
X50050Y75050
X50050Y70050
X55050Y70050
X55050Y75050
X60050Y75050
X60050Y70050
X65050Y70050
X65050Y75050
X70050Y75050
X70050Y70050
X75050Y70050
X75050Y75050
X80050Y75050
X80050Y70050
X85050Y70050
X85050Y75050
X90050Y75050
X90050Y70050
X95050Y70050
X95050Y75050
X100050Y75050
X100050Y70050
X105050Y70050
X105050Y75050
X110050Y75050
X110050Y70050
X115050Y70050
X115050Y75050
X120050Y75050
X120050Y70050
X125050Y70050
X125050Y75050
X130050Y75050
X130050Y70050
X135050Y70050
X135050Y75050
X140050Y75050
X140050Y70050
X145050Y70050
X145050Y75050
X150050Y75050
X150050Y70050
X155050Y70050
X155050Y75050
X160050Y75050
X160050Y70050
X165050Y70050
X165050Y75050
X170050Y75050
X170050Y70050
X175050Y70050
X175050Y75050
X180050Y75050
X180050Y70050
X185050Y70050
X185050Y75050
X190050Y75050
X190050Y70050
X190050Y87550
X190050Y92550
X185050Y92550
X185050Y87550
X180050Y87550
X180050Y92550
X175050Y92550
X175050Y87550
X170050Y87550
X170050Y92550
X165050Y92550
X165050Y87550
X160050Y87550
X160050Y92550
X155050Y92550
X155050Y87550
X150050Y87550
X150050Y92550
X145050Y92550
X145050Y87550
X140050Y87550
X140050Y92550
X135050Y92550
X135050Y87550
X130050Y87550
X130050Y92550
X125050Y92550
X125050Y87550
X120050Y87550
X120050Y92550
X115050Y92550
X115050Y87550
X110050Y87550
X110050Y92550
X105050Y92550
X105050Y87550
X100050Y87550
X100050Y92550
X95050Y92550
X95050Y87550
X90050Y87550
X90050Y92550
X85050Y92550
X85050Y87550
X80050Y87550
X80050Y92550
X75050Y92550
X75050Y87550
X70050Y87550
X70050Y92550
X65050Y92550
X65050Y87550
X60050Y87550
X60050Y92550
X55050Y92550
X55050Y87550
X50050Y87550
X50050Y92550
X45050Y92550
X45050Y87550
X40050Y87550
X40050Y92550
X35050Y92550
X35050Y87550
X30050Y87550
X30050Y92550
X25050Y92550
X25050Y87550
X20050Y87550
X20050Y92550
X15050Y92550
X15050Y87550
X10050Y87550
X10050Y92550
X5050Y92550
X5050Y87550
X5050Y105050
X5050Y110050
X10050Y110050
X10050Y105050
X15050Y105050
X15050Y110050
X20050Y110050
X20050Y105050
X25050Y105050
X25050Y110050
X30050Y110050
X30050Y105050
X35050Y105050
X35050Y110050
X40050Y110050
X40050Y105050
X45050Y105050
X45050Y110050
X50050Y110050
X50050Y105050
X55050Y105050
X55050Y110050
X60050Y110050
X60050Y105050
X65050Y105050
X65050Y110050
X70050Y110050
X70050Y105050
X75050Y105050
X75050Y110050
X80050Y110050
X80050Y105050
X85050Y105050
X85050Y110050
X90050Y110050
X90050Y105050
X95050Y105050
X95050Y110050
X100050Y110050
X100050Y105050
X105050Y105050
X105050Y110050
X110050Y110050
X110050Y105050
X115050Y105050
X115050Y110050
X120050Y110050
X120050Y105050
X125050Y105050
X125050Y110050
X130050Y110050
X130050Y105050
X135050Y105050
X135050Y110050
X140050Y110050
X140050Y105050
X145050Y105050
X145050Y110050
X150050Y110050
X150050Y105050
X155050Y105050
X155050Y110050
X160050Y110050
X160050Y105050
X165050Y105050
X165050Y110050
X170050Y110050
X170050Y105050
X175050Y105050
X175050Y110050
X180050Y110050
X180050Y105050
X185050Y105050
X185050Y110050
X190050Y110050
X190050Y105050
X190050Y122550
X190050Y127550
X185050Y127550
X180050Y127550
X180050Y122550
X185050Y122550
X175050Y122550
X170050Y122550
X170050Y127550
X175050Y127550
X165050Y127550
X160050Y127550
X160050Y122550
X165050Y122550
X155050Y122550
X155050Y127550
X150050Y127550
X145050Y127550
X145050Y122550
X150050Y122550
X140050Y122550
X135050Y122550
X135050Y127550
X140050Y127550
X130050Y127550
X125050Y127550
X125050Y122550
X130050Y122550
X120050Y122550
X120050Y127550
X115050Y127550
X110050Y127550
X110050Y122550
X115050Y122550
X105050Y122550
X100050Y122550
X100050Y127550
X105050Y127550
X95050Y127550
X90050Y127550
X90050Y122550
X95050Y122550
X85050Y122550
X80050Y122550
X80050Y127550
X85050Y127550
X75050Y127550
X75050Y122550
X70050Y122550
X65050Y122550
X65050Y127550
X70050Y127550
X60050Y127550
X55050Y127550
X55050Y122550
X60050Y122550
X50050Y122550
X45050Y122550
X45050Y127550
X50050Y127550
X40050Y127550
X40050Y122550
X35050Y122550
X30050Y122550
X30050Y127550
X35050Y127550
X25050Y127550
X20050Y127550
X20050Y122550
X25050Y122550
X15050Y122550
X10050Y122550
X10050Y127550
X15050Y127550
X5050Y127550
X5050Y122550
X5050Y140050
X5050Y145050
X10050Y145050
X15050Y145050
X15050Y140050
X10050Y140050
X20050Y140050
X25050Y140050
X25050Y145050
X20050Y145050
X30050Y145050
X35050Y145050
X35050Y140050
X30050Y140050
X40050Y140050
X40050Y145050
X45050Y145050
X50050Y145050
X50050Y140050
X45050Y140050
X55050Y140050
X60050Y140050
X60050Y145050
X55050Y145050
X65050Y145050
X70050Y145050
X70050Y140050
X65050Y140050
X75050Y140050
X75050Y145050
X80050Y145050
X85050Y145050
X85050Y140050
X80050Y140050
X90050Y140050
X95050Y140050
X95050Y145050
X90050Y145050
X100050Y145050
X105050Y145050
X105050Y140050
X100050Y140050
X110050Y140050
X115050Y140050
X115050Y145050
X110050Y145050
X120050Y145050
X120050Y140050
X125050Y140050
X130050Y140050
X130050Y145050
X125050Y145050
X135050Y145050
X140050Y145050
X140050Y140050
X135050Y140050
X145050Y140050
X150050Y140050
X150050Y145050
X145050Y145050
X155050Y145050
X155050Y140050
X160050Y140050
X165050Y140050
X165050Y145050
X160050Y145050
X170050Y145050
X175050Y145050
X175050Y140050
X170050Y140050
X180050Y140050
X185050Y140050
X185050Y145050
X180050Y145050
X190050Y145050
X190050Y140050
X190050Y157550
X190050Y162550
X185050Y162550
X180050Y162550
X180050Y157550
X185050Y157550
X175050Y157550
X170050Y157550
X170050Y162550
X175050Y162550
X165050Y162550
X160050Y162550
X160050Y157550
X165050Y157550
X155050Y157550
X155050Y162550
X150050Y162550
X145050Y162550
X145050Y157550
X150050Y157550
X140050Y157550
X135050Y157550
X135050Y162550
X140050Y162550
X130050Y162550
X125050Y162550
X125050Y157550
X130050Y157550
X120050Y157550
X120050Y162550
X115050Y162550
X110050Y162550
X110050Y157550
X115050Y157550
X105050Y157550
X100050Y157550
X100050Y162550
X105050Y162550
X95050Y162550
X90050Y162550
X90050Y157550
X95050Y157550
X85050Y157550
X80050Y157550
X80050Y162550
X85050Y162550
X75050Y162550
X75050Y157550
X70050Y157550
X65050Y157550
X65050Y162550
X70050Y162550
X60050Y162550
X55050Y162550
X55050Y157550
X60050Y157550
X50050Y157550
X45050Y157550
X45050Y162550
X50050Y162550
X40050Y162550
X40050Y157550
X35050Y157550
X30050Y157550
X30050Y162550
X35050Y162550
X25050Y162550
X20050Y162550
X20050Y157550
X25050Y157550
X15050Y157550
X10050Y157550
X10050Y162550
X15050Y162550
X5050Y162550
X5050Y157550
X5050Y175050
X5050Y180050
X10050Y180050
X10050Y175050
X15050Y175050
X15050Y180050
X20050Y180050
X20050Y175050
X25050Y175050
X25050Y180050
X30050Y180050
X30050Y175050
X35050Y175050
X35050Y180050
X40050Y180050
X40050Y175050
X45050Y175050
X45050Y180050
X50050Y180050
X50050Y175050
X55050Y175050
X55050Y180050
X60050Y180050
X60050Y175050
X65050Y175050
X65050Y180050
X70050Y180050
X70050Y175050
X75050Y175050
X75050Y180050
X80050Y180050
X80050Y175050
X85050Y175050
X85050Y180050
X90050Y180050
X90050Y175050
X95050Y175050
X95050Y180050
X100050Y180050
X100050Y175050
X105050Y175050
X105050Y180050
X110050Y180050
X110050Y175050
X115050Y175050
X115050Y180050
X120050Y180050
X120050Y175050
X125050Y175050
X125050Y180050
X130050Y180050
X130050Y175050
X135050Y175050
X135050Y180050
X140050Y180050
X140050Y175050
X145050Y175050
X145050Y180050
X150050Y180050
X150050Y175050
X155050Y175050
X155050Y180050
X160050Y180050
X160050Y175050
X165050Y175050
X165050Y180050
X170050Y180050
X170050Y175050
X175050Y175050
X175050Y180050
X180050Y180050
X180050Y175050
X185050Y175050
X185050Y180050
X190050Y180050
X190050Y175050
X190050Y192550
X185050Y192550
X180050Y192550
X175050Y192550
X170050Y192550
X165050Y192550
X160050Y192550
X155050Y192550
X150050Y192550
X145050Y192550
X140050Y192550
X135050Y192550
X130050Y192550
X125050Y192550
X120050Y192550
X115050Y192550
X110050Y192550
X105050Y192550
X100050Y192550
X95050Y192550
X90050Y192550
X85050Y192550
X80050Y192550
X75050Y192550
X70050Y192550
X65050Y192550
X60050Y192550
X55050Y192550
X50050Y192550
X45050Y192550
X40050Y192550
X35050Y192550
X30050Y192550
X25050Y192550
X20050Y192550
X15050Y192550
X10050Y192550
X5050Y192550
M30
