%
M48
M72
T01C0.0236
%
T01
X505Y505
X1005Y505
X1505Y505
X2005Y505
X2505Y505
X3005Y505
X3505Y505
X4005Y505
X4505Y505
X5005Y505
X5505Y505
X6005Y505
X6505Y505
X7005Y505
X7505Y505
X8005Y505
X8505Y505
X9005Y505
X9505Y505
X10005Y505
X10505Y505
X11005Y505
X11505Y505
X12005Y505
X12505Y505
X13005Y505
X13505Y505
X14005Y505
X14505Y505
X15005Y505
X15505Y505
X16005Y505
X16505Y505
X17005Y505
X17505Y505
X18005Y505
X18505Y505
X19005Y505
X19005Y1755
X19005Y2255
X18505Y2255
X18005Y2255
X18005Y1755
X18505Y1755
X17505Y1755
X17005Y1755
X17005Y2255
X17505Y2255
X16505Y2255
X16005Y2255
X16005Y1755
X16505Y1755
X15505Y1755
X15505Y2255
X15005Y2255
X14505Y2255
X14505Y1755
X15005Y1755
X14005Y1755
X13505Y1755
X13505Y2255
X14005Y2255
X13005Y2255
X12505Y2255
X12505Y1755
X13005Y1755
X12005Y1755
X12005Y2255
X11505Y2255
X11005Y2255
X11005Y1755
X11505Y1755
X10505Y1755
X10005Y1755
X10005Y2255
X10505Y2255
X9505Y2255
X9005Y2255
X9005Y1755
X9505Y1755
X8505Y1755
X8005Y1755
X8005Y2255
X8505Y2255
X7505Y2255
X7505Y1755
X7005Y1755
X6505Y1755
X6505Y2255
X7005Y2255
X6005Y2255
X5505Y2255
X5505Y1755
X6005Y1755
X5005Y1755
X4505Y1755
X4505Y2255
X5005Y2255
X4005Y2255
X4005Y1755
X3505Y1755
X3005Y1755
X3005Y2255
X3505Y2255
X2505Y2255
X2005Y2255
X2005Y1755
X2505Y1755
X1505Y1755
X1005Y1755
X1005Y2255
X1505Y2255
X505Y2255
X505Y1755
X505Y3505
X505Y4005
X1005Y4005
X1505Y4005
X1505Y3505
X1005Y3505
X2005Y3505
X2505Y3505
X2505Y4005
X2005Y4005
X3005Y4005
X3505Y4005
X3505Y3505
X3005Y3505
X4005Y3505
X4005Y4005
X4505Y4005
X5005Y4005
X5005Y3505
X4505Y3505
X5505Y3505
X6005Y3505
X6005Y4005
X5505Y4005
X6505Y4005
X7005Y4005
X7005Y3505
X6505Y3505
X7505Y3505
X7505Y4005
X8005Y4005
X8505Y4005
X8505Y3505
X8005Y3505
X9005Y3505
X9505Y3505
X9505Y4005
X9005Y4005
X10005Y4005
X10505Y4005
X10505Y3505
X10005Y3505
X11005Y3505
X11505Y3505
X11505Y4005
X11005Y4005
X12005Y4005
X12005Y3505
X12505Y3505
X13005Y3505
X13005Y4005
X12505Y4005
X13505Y4005
X14005Y4005
X14005Y3505
X13505Y3505
X14505Y3505
X15005Y3505
X15005Y4005
X14505Y4005
X15505Y4005
X15505Y3505
X16005Y3505
X16505Y3505
X16505Y4005
X16005Y4005
X17005Y4005
X17505Y4005
X17505Y3505
X17005Y3505
X18005Y3505
X18505Y3505
X18505Y4005
X18005Y4005
X19005Y4005
X19005Y3505
X19005Y5255
X19005Y5755
X18505Y5755
X18005Y5755
X18005Y5255
X18505Y5255
X17505Y5255
X17005Y5255
X17005Y5755
X17505Y5755
X16505Y5755
X16005Y5755
X16005Y5255
X16505Y5255
X15505Y5255
X15505Y5755
X15005Y5755
X14505Y5755
X14505Y5255
X15005Y5255
X14005Y5255
X13505Y5255
X13505Y5755
X14005Y5755
X13005Y5755
X12505Y5755
X12505Y5255
X13005Y5255
X12005Y5255
X12005Y5755
X11505Y5755
X11005Y5755
X11005Y5255
X11505Y5255
X10505Y5255
X10005Y5255
X10005Y5755
X10505Y5755
X9505Y5755
X9005Y5755
X9005Y5255
X9505Y5255
X8505Y5255
X8005Y5255
X8005Y5755
X8505Y5755
X7505Y5755
X7505Y5255
X7005Y5255
X6505Y5255
X6505Y5755
X7005Y5755
X6005Y5755
X5505Y5755
X5505Y5255
X6005Y5255
X5005Y5255
X4505Y5255
X4505Y5755
X5005Y5755
X4005Y5755
X4005Y5255
X3505Y5255
X3005Y5255
X3005Y5755
X3505Y5755
X2505Y5755
X2005Y5755
X2005Y5255
X2505Y5255
X1505Y5255
X1005Y5255
X1005Y5755
X1505Y5755
X505Y5755
X505Y5255
X505Y7005
X505Y7505
X1005Y7505
X1005Y7005
X1505Y7005
X1505Y7505
X2005Y7505
X2005Y7005
X2505Y7005
X2505Y7505
X3005Y7505
X3005Y7005
X3505Y7005
X3505Y7505
X4005Y7505
X4005Y7005
X4505Y7005
X4505Y7505
X5005Y7505
X5005Y7005
X5505Y7005
X5505Y7505
X6005Y7505
X6005Y7005
X6505Y7005
X6505Y7505
X7005Y7505
X7005Y7005
X7505Y7005
X7505Y7505
X8005Y7505
X8005Y7005
X8505Y7005
X8505Y7505
X9005Y7505
X9005Y7005
X9505Y7005
X9505Y7505
X10005Y7505
X10005Y7005
X10505Y7005
X10505Y7505
X11005Y7505
X11005Y7005
X11505Y7005
X11505Y7505
X12005Y7505
X12005Y7005
X12505Y7005
X12505Y7505
X13005Y7505
X13005Y7005
X13505Y7005
X13505Y7505
X14005Y7505
X14005Y7005
X14505Y7005
X14505Y7505
X15005Y7505
X15005Y7005
X15505Y7005
X15505Y7505
X16005Y7505
X16005Y7005
X16505Y7005
X16505Y7505
X17005Y7505
X17005Y7005
X17505Y7005
X17505Y7505
X18005Y7505
X18005Y7005
X18505Y7005
X18505Y7505
X19005Y7505
X19005Y7005
X19005Y8755
X19005Y9255
X18505Y9255
X18505Y8755
X18005Y8755
X18005Y9255
X17505Y9255
X17505Y8755
X17005Y8755
X17005Y9255
X16505Y9255
X16505Y8755
X16005Y8755
X16005Y9255
X15505Y9255
X15505Y8755
X15005Y8755
X15005Y9255
X14505Y9255
X14505Y8755
X14005Y8755
X14005Y9255
X13505Y9255
X13505Y8755
X13005Y8755
X13005Y9255
X12505Y9255
X12505Y8755
X12005Y8755
X12005Y9255
X11505Y9255
X11505Y8755
X11005Y8755
X11005Y9255
X10505Y9255
X10505Y8755
X10005Y8755
X10005Y9255
X9505Y9255
X9505Y8755
X9005Y8755
X9005Y9255
X8505Y9255
X8505Y8755
X8005Y8755
X8005Y9255
X7505Y9255
X7505Y8755
X7005Y8755
X7005Y9255
X6505Y9255
X6505Y8755
X6005Y8755
X6005Y9255
X5505Y9255
X5505Y8755
X5005Y8755
X5005Y9255
X4505Y9255
X4505Y8755
X4005Y8755
X4005Y9255
X3505Y9255
X3505Y8755
X3005Y8755
X3005Y9255
X2505Y9255
X2505Y8755
X2005Y8755
X2005Y9255
X1505Y9255
X1505Y8755
X1005Y8755
X1005Y9255
X505Y9255
X505Y8755
X505Y10505
X505Y11005
X1005Y11005
X1005Y10505
X1505Y10505
X1505Y11005
X2005Y11005
X2005Y10505
X2505Y10505
X2505Y11005
X3005Y11005
X3005Y10505
X3505Y10505
X3505Y11005
X4005Y11005
X4005Y10505
X4505Y10505
X4505Y11005
X5005Y11005
X5005Y10505
X5505Y10505
X5505Y11005
X6005Y11005
X6005Y10505
X6505Y10505
X6505Y11005
X7005Y11005
X7005Y10505
X7505Y10505
X7505Y11005
X8005Y11005
X8005Y10505
X8505Y10505
X8505Y11005
X9005Y11005
X9005Y10505
X9505Y10505
X9505Y11005
X10005Y11005
X10005Y10505
X10505Y10505
X10505Y11005
X11005Y11005
X11005Y10505
X11505Y10505
X11505Y11005
X12005Y11005
X12005Y10505
X12505Y10505
X12505Y11005
X13005Y11005
X13005Y10505
X13505Y10505
X13505Y11005
X14005Y11005
X14005Y10505
X14505Y10505
X14505Y11005
X15005Y11005
X15005Y10505
X15505Y10505
X15505Y11005
X16005Y11005
X16005Y10505
X16505Y10505
X16505Y11005
X17005Y11005
X17005Y10505
X17505Y10505
X17505Y11005
X18005Y11005
X18005Y10505
X18505Y10505
X18505Y11005
X19005Y11005
X19005Y10505
X19005Y12255
X19005Y12755
X18505Y12755
X18005Y12755
X18005Y12255
X18505Y12255
X17505Y12255
X17005Y12255
X17005Y12755
X17505Y12755
X16505Y12755
X16005Y12755
X16005Y12255
X16505Y12255
X15505Y12255
X15505Y12755
X15005Y12755
X14505Y12755
X14505Y12255
X15005Y12255
X14005Y12255
X13505Y12255
X13505Y12755
X14005Y12755
X13005Y12755
X12505Y12755
X12505Y12255
X13005Y12255
X12005Y12255
X12005Y12755
X11505Y12755
X11005Y12755
X11005Y12255
X11505Y12255
X10505Y12255
X10005Y12255
X10005Y12755
X10505Y12755
X9505Y12755
X9005Y12755
X9005Y12255
X9505Y12255
X8505Y12255
X8005Y12255
X8005Y12755
X8505Y12755
X7505Y12755
X7505Y12255
X7005Y12255
X6505Y12255
X6505Y12755
X7005Y12755
X6005Y12755
X5505Y12755
X5505Y12255
X6005Y12255
X5005Y12255
X4505Y12255
X4505Y12755
X5005Y12755
X4005Y12755
X4005Y12255
X3505Y12255
X3005Y12255
X3005Y12755
X3505Y12755
X2505Y12755
X2005Y12755
X2005Y12255
X2505Y12255
X1505Y12255
X1005Y12255
X1005Y12755
X1505Y12755
X505Y12755
X505Y12255
X505Y14005
X505Y14505
X1005Y14505
X1505Y14505
X1505Y14005
X1005Y14005
X2005Y14005
X2505Y14005
X2505Y14505
X2005Y14505
X3005Y14505
X3505Y14505
X3505Y14005
X3005Y14005
X4005Y14005
X4005Y14505
X4505Y14505
X5005Y14505
X5005Y14005
X4505Y14005
X5505Y14005
X6005Y14005
X6005Y14505
X5505Y14505
X6505Y14505
X7005Y14505
X7005Y14005
X6505Y14005
X7505Y14005
X7505Y14505
X8005Y14505
X8505Y14505
X8505Y14005
X8005Y14005
X9005Y14005
X9505Y14005
X9505Y14505
X9005Y14505
X10005Y14505
X10505Y14505
X10505Y14005
X10005Y14005
X11005Y14005
X11505Y14005
X11505Y14505
X11005Y14505
X12005Y14505
X12005Y14005
X12505Y14005
X13005Y14005
X13005Y14505
X12505Y14505
X13505Y14505
X14005Y14505
X14005Y14005
X13505Y14005
X14505Y14005
X15005Y14005
X15005Y14505
X14505Y14505
X15505Y14505
X15505Y14005
X16005Y14005
X16505Y14005
X16505Y14505
X16005Y14505
X17005Y14505
X17505Y14505
X17505Y14005
X17005Y14005
X18005Y14005
X18505Y14005
X18505Y14505
X18005Y14505
X19005Y14505
X19005Y14005
X19005Y15755
X19005Y16255
X18505Y16255
X18005Y16255
X18005Y15755
X18505Y15755
X17505Y15755
X17005Y15755
X17005Y16255
X17505Y16255
X16505Y16255
X16005Y16255
X16005Y15755
X16505Y15755
X15505Y15755
X15505Y16255
X15005Y16255
X14505Y16255
X14505Y15755
X15005Y15755
X14005Y15755
X13505Y15755
X13505Y16255
X14005Y16255
X13005Y16255
X12505Y16255
X12505Y15755
X13005Y15755
X12005Y15755
X12005Y16255
X11505Y16255
X11005Y16255
X11005Y15755
X11505Y15755
X10505Y15755
X10005Y15755
X10005Y16255
X10505Y16255
X9505Y16255
X9005Y16255
X9005Y15755
X9505Y15755
X8505Y15755
X8005Y15755
X8005Y16255
X8505Y16255
X7505Y16255
X7505Y15755
X7005Y15755
X6505Y15755
X6505Y16255
X7005Y16255
X6005Y16255
X5505Y16255
X5505Y15755
X6005Y15755
X5005Y15755
X4505Y15755
X4505Y16255
X5005Y16255
X4005Y16255
X4005Y15755
X3505Y15755
X3005Y15755
X3005Y16255
X3505Y16255
X2505Y16255
X2005Y16255
X2005Y15755
X2505Y15755
X1505Y15755
X1005Y15755
X1005Y16255
X1505Y16255
X505Y16255
X505Y15755
X505Y17505
X505Y18005
X1005Y18005
X1005Y17505
X1505Y17505
X1505Y18005
X2005Y18005
X2005Y17505
X2505Y17505
X2505Y18005
X3005Y18005
X3005Y17505
X3505Y17505
X3505Y18005
X4005Y18005
X4005Y17505
X4505Y17505
X4505Y18005
X5005Y18005
X5005Y17505
X5505Y17505
X5505Y18005
X6005Y18005
X6005Y17505
X6505Y17505
X6505Y18005
X7005Y18005
X7005Y17505
X7505Y17505
X7505Y18005
X8005Y18005
X8005Y17505
X8505Y17505
X8505Y18005
X9005Y18005
X9005Y17505
X9505Y17505
X9505Y18005
X10005Y18005
X10005Y17505
X10505Y17505
X10505Y18005
X11005Y18005
X11005Y17505
X11505Y17505
X11505Y18005
X12005Y18005
X12005Y17505
X12505Y17505
X12505Y18005
X13005Y18005
X13005Y17505
X13505Y17505
X13505Y18005
X14005Y18005
X14005Y17505
X14505Y17505
X14505Y18005
X15005Y18005
X15005Y17505
X15505Y17505
X15505Y18005
X16005Y18005
X16005Y17505
X16505Y17505
X16505Y18005
X17005Y18005
X17005Y17505
X17505Y17505
X17505Y18005
X18005Y18005
X18005Y17505
X18505Y17505
X18505Y18005
X19005Y18005
X19005Y17505
X19005Y19255
X18505Y19255
X18005Y19255
X17505Y19255
X17005Y19255
X16505Y19255
X16005Y19255
X15505Y19255
X15005Y19255
X14505Y19255
X14005Y19255
X13505Y19255
X13005Y19255
X12505Y19255
X12005Y19255
X11505Y19255
X11005Y19255
X10505Y19255
X10005Y19255
X9505Y19255
X9005Y19255
X8505Y19255
X8005Y19255
X7505Y19255
X7005Y19255
X6505Y19255
X6005Y19255
X5505Y19255
X5005Y19255
X4505Y19255
X4005Y19255
X3505Y19255
X3005Y19255
X2505Y19255
X2005Y19255
X1505Y19255
X1005Y19255
X505Y19255
M30
